<?xml version="1.0" encoding="UTF-8" standalone="no"?><svg xmlns="http://www.w3.org/2000/svg" xmlns:xlink="http://www.w3.org/1999/xlink" contentScriptType="application/ecmascript" contentStyleType="text/css" height="281px" preserveAspectRatio="none" style="width:343px;height:281px;" version="1.1" viewBox="0 0 343 281" width="343px" zoomAndPan="magnify"><defs><filter height="300%" id="f17ywiozhuz786" width="300%" x="-1" y="-1"><feGaussianBlur result="blurOut" stdDeviation="2.0"/><feColorMatrix in="blurOut" result="blurOut2" type="matrix" values="0 0 0 0 0 0 0 0 0 0 0 0 0 0 0 0 0 0 .4 0"/><feOffset dx="4.0" dy="4.0" in="blurOut2" result="blurOut3"/><feBlend in="SourceGraphic" in2="blurOut3" mode="normal"/></filter></defs><g><!--cluster checkout--><rect fill="#FFFFFF" filter="url(#f17ywiozhuz786)" height="246" style="stroke: #000000; stroke-width: 1.5;" width="130" x="120" y="24"/><text fill="#000000" font-family="sans-serif" font-size="14" font-weight="bold" lengthAdjust="spacingAndGlyphs" textLength="73" x="148.5" y="38.9951">checkout</text><ellipse cx="184.9619" cy="157.0236" fill="#FEFECE" filter="url(#f17ywiozhuz786)" rx="48.9619" ry="14.5236" style="stroke: #A80036; stroke-width: 1.5;"/><text fill="#000000" font-family="sans-serif" font-size="14" lengthAdjust="spacingAndGlyphs" textLength="65" x="152.4619" y="161.6721">checkout</text><ellipse cx="184.9264" cy="75.0236" fill="#FEFECE" filter="url(#f17ywiozhuz786)" rx="45.4264" ry="14.5236" style="stroke: #A80036; stroke-width: 1.5;"/><text fill="#000000" font-family="sans-serif" font-size="14" lengthAdjust="spacingAndGlyphs" textLength="60" x="154.9264" y="79.6721">payment</text><ellipse cx="185.2132" cy="239.0236" fill="#FEFECE" filter="url(#f17ywiozhuz786)" rx="24.2132" ry="14.5236" style="stroke: #A80036; stroke-width: 1.5;"/><text fill="#000000" font-family="sans-serif" font-size="14" lengthAdjust="spacingAndGlyphs" textLength="30" x="170.2132" y="243.6721">help</text><!--entity customer--><ellipse cx="39" cy="125.5" fill="#FEFECE" filter="url(#f17ywiozhuz786)" rx="8" ry="8" style="stroke: #A80036; stroke-width: 2.0;"/><path d="M39,133.5 L39,160.5 M26,141.5 L52,141.5 M39,160.5 L26,175.5 M39,160.5 L52,175.5 " fill="none" filter="url(#f17ywiozhuz786)" style="stroke: #A80036; stroke-width: 2.0;"/><text fill="#000000" font-family="sans-serif" font-size="14" lengthAdjust="spacingAndGlyphs" textLength="66" x="6" y="195.4951">customer</text><!--entity clerk--><ellipse cx="315" cy="125.5" fill="#FEFECE" filter="url(#f17ywiozhuz786)" rx="8" ry="8" style="stroke: #A80036; stroke-width: 2.0;"/><path d="M315,133.5 L315,160.5 M302,141.5 L328,141.5 M315,160.5 L302,175.5 M315,160.5 L328,175.5 " fill="none" filter="url(#f17ywiozhuz786)" style="stroke: #A80036; stroke-width: 2.0;"/><text fill="#000000" font-family="sans-serif" font-size="14" lengthAdjust="spacingAndGlyphs" textLength="33" x="298.5" y="195.4951">clerk</text><!--link customer to checkout--><path d="M72.3164,157 C91.0567,157 115.013,157 135.93,157 " fill="none" id="customer-checkout" style="stroke: #A80036; stroke-width: 1.0;"/><!--link checkout to payment--><path d="M185,142.717 C185,129.394 185,109.405 185,94.595 " fill="none" id="checkout-payment" style="stroke: #A80036; stroke-width: 1.0; stroke-dasharray: 7.0,7.0;"/><polygon fill="#A80036" points="185,89.395,181,98.395,185,94.395,189,98.395,185,89.395" style="stroke: #A80036; stroke-width: 1.0;"/><text fill="#000000" font-family="sans-serif" font-size="13" lengthAdjust="spacingAndGlyphs" textLength="45" x="150" y="120.3169">include</text><!--link help to checkout--><path d="M185,224.7167 C185,211.394 185,191.4052 185,176.595 " fill="none" id="help-checkout" style="stroke: #A80036; stroke-width: 1.0; stroke-dasharray: 7.0,7.0;"/><polygon fill="#A80036" points="185,171.395,181,180.395,185,176.395,189,180.395,185,171.395" style="stroke: #A80036; stroke-width: 1.0;"/><text fill="#000000" font-family="sans-serif" font-size="13" lengthAdjust="spacingAndGlyphs" textLength="51" x="147" y="202.3169">extends</text><!--link checkout to clerk--><path d="M234.027,157 C256.727,157 282.291,157 298.273,157 " fill="none" id="checkout-clerk" style="stroke: #A80036; stroke-width: 1.0;"/><!--
@startuml
left to right direction
skinparam packageStyle rectangle
actor customer
actor clerk
rectangle checkout {
  customer - - (checkout)
  (checkout) .> (payment) : include
  (help) .> (checkout) : extends
  (checkout) - - clerk
}
@enduml

PlantUML version 1.2019.08(Sat Jul 13 15:25:14 EDT 2019)
(GPL source distribution)
Java Runtime: OpenJDK Runtime Environment
JVM: OpenJDK 64-Bit Server VM
Java Version: 1.8.0_222-ga
Operating System: Linux
OS Version: 4.14.154
Default Encoding: UTF-8
Language: en
Country: GB
--></g></svg>