<?xml version="1.0" encoding="UTF-8" standalone="no"?><svg xmlns="http://www.w3.org/2000/svg" xmlns:xlink="http://www.w3.org/1999/xlink" contentScriptType="application/ecmascript" contentStyleType="text/css" height="252px" preserveAspectRatio="none" style="width:446px;height:252px;" version="1.1" viewBox="0 0 446 252" width="446px" zoomAndPan="magnify"><defs/><g><line style="stroke: #000000; stroke-width: 1.7;" x1="10" x2="10" y1="10" y2="221.875"/><line style="stroke: #000000; stroke-width: 1.7;" x1="429" x2="429" y1="10" y2="221.875"/><line style="stroke: #AAAAAA; stroke-width: 0.5; stroke-dasharray: 3.0,5.0;" x1="124" x2="124" y1="10" y2="221.875"/><line style="stroke: #AAAAAA; stroke-width: 0.5; stroke-dasharray: 3.0,5.0;" x1="174" x2="174" y1="10" y2="221.875"/><line style="stroke: #AAAAAA; stroke-width: 0.5; stroke-dasharray: 3.0,5.0;" x1="224" x2="224" y1="10" y2="221.875"/><line style="stroke: #AAAAAA; stroke-width: 0.5; stroke-dasharray: 3.0,5.0;" x1="274" x2="274" y1="10" y2="221.875"/><line style="stroke: #AAAAAA; stroke-width: 0.5; stroke-dasharray: 3.0,5.0;" x1="324" x2="324" y1="10" y2="221.875"/><line style="stroke: #AAAAAA; stroke-width: 0.5; stroke-dasharray: 3.0,5.0;" x1="374" x2="374" y1="10" y2="221.875"/><line style="stroke: #AAAAAA; stroke-width: 0.5; stroke-dasharray: 3.0,5.0;" x1="424" x2="424" y1="10" y2="221.875"/><text fill="#000000" font-family="sans-serif" font-size="12" lengthAdjust="spacingAndGlyphs" textLength="81" x="15" y="21.1387">Web Browser</text><line style="stroke: #000000; stroke-width: 1.0;" x1="10" x2="97" y1="24.9688" y2="24.9688"/><line style="stroke: #000000; stroke-width: 1.0;" x1="97" x2="107" y1="24.9688" y2="10"/><line style="stroke: #038048; stroke-width: 1.5;" x1="84" x2="124" y1="97.9375" y2="97.9375"/><line style="stroke: #038048; stroke-width: 1.5;" x1="124" x2="224" y1="77.9375" y2="77.9375"/><line style="stroke: #038048; stroke-width: 1.5;" x1="224" x2="274" y1="57.9375" y2="57.9375"/><line style="stroke: #038048; stroke-width: 1.5;" x1="274" x2="424" y1="37.9375" y2="37.9375"/><line style="stroke: #038048; stroke-width: 1.5;" x1="124" x2="124" y1="77.9375" y2="97.9375"/><line style="stroke: #038048; stroke-width: 1.5;" x1="224" x2="224" y1="57.9375" y2="77.9375"/><line style="stroke: #038048; stroke-width: 1.5;" x1="274" x2="274" y1="37.9375" y2="57.9375"/><line style="stroke: #FF0000; stroke-width: 1.5;" x1="124" x2="149" y1="67.9375" y2="67.9375"/><polygon fill="#FF0000" points="131.5175,65.2013,131.5175,70.6737,124,67.9375" style="stroke: #FF0000; stroke-width: 1.5;"/><polygon fill="#FF0000" points="141.4825,70.6737,141.4825,65.2013,149,67.9375" style="stroke: #FF0000; stroke-width: 1.5;"/><text fill="#000000" font-family="Serif" font-size="14" lengthAdjust="spacingAndGlyphs" textLength="86" x="93.5" y="59.6357">{50 ms lag}</text><text fill="#000000" font-family="sans-serif" font-size="12" lengthAdjust="spacingAndGlyphs" textLength="60" x="15" y="95.1074">Initializing</text><text fill="#000000" font-family="sans-serif" font-size="12" lengthAdjust="spacingAndGlyphs" textLength="22" x="15" y="75.1074">idle</text><text fill="#000000" font-family="sans-serif" font-size="12" lengthAdjust="spacingAndGlyphs" textLength="69" x="15" y="55.1074">Processing</text><text fill="#000000" font-family="sans-serif" font-size="12" lengthAdjust="spacingAndGlyphs" textLength="46" x="15" y="35.1074">Waiting</text><line style="stroke: #000000; stroke-width: 1.7;" x1="10" x2="429" y1="10" y2="10"/><text fill="#000000" font-family="sans-serif" font-size="12" lengthAdjust="spacingAndGlyphs" textLength="60" x="15" y="139.0762">Web User</text><line style="stroke: #000000; stroke-width: 1.0;" x1="10" x2="76" y1="142.9063" y2="142.9063"/><line style="stroke: #000000; stroke-width: 1.0;" x1="76" x2="86" y1="142.9063" y2="127.9375"/><polygon fill="#D7E0F2" points="56,179.875,112,179.875,124,191.875,112,203.875,56,203.875" style="stroke: #D7E0F2; stroke-width: 1.5;"/><path d="M56,179.875 L112,179.875 L124,191.875 L112,203.875 L56,203.875 " fill="#D7E0F2" style="stroke: #038048; stroke-width: 1.5;"/><polygon fill="#D7E0F2" points="136,179.875,362,179.875,374,191.875,362,203.875,136,203.875,124,191.875" style="stroke: #038048; stroke-width: 1.5;"/><polygon fill="#D7E0F2" points="386,179.875,424,179.875,424,203.875,386,203.875,374,191.875" style="stroke: #D7E0F2; stroke-width: 1.5;"/><path d="M424,179.875 L386,179.875 L374,191.875 L386,203.875 L424,203.875 " fill="#D7E0F2" style="stroke: #038048; stroke-width: 1.5;"/><text fill="#000000" font-family="sans-serif" font-size="12" lengthAdjust="spacingAndGlyphs" textLength="44" x="68" y="196.0293">Absent</text><text fill="#000000" font-family="sans-serif" font-size="12" lengthAdjust="spacingAndGlyphs" textLength="46" x="226" y="196.0293">Waiting</text><text fill="#000000" font-family="sans-serif" font-size="12" lengthAdjust="spacingAndGlyphs" textLength="15" x="386" y="196.0293">ok</text><line style="stroke: #FF0000; stroke-width: 1.0;" x1="224" x2="299" y1="170.875" y2="170.875"/><polygon fill="#FF0000" points="231.5175,168.1388,231.5175,173.6112,224,170.875" style="stroke: #FF0000; stroke-width: 1.0;"/><polygon fill="#FF0000" points="291.4825,173.6112,291.4825,168.1388,299,170.875" style="stroke: #FF0000; stroke-width: 1.0;"/><text fill="#000000" font-family="Serif" font-size="14" lengthAdjust="spacingAndGlyphs" textLength="70" x="226.5" y="162.5732">{150 ms}</text><line style="stroke: #000000; stroke-width: 1.7;" x1="10" x2="429" y1="127.9375" y2="127.9375"/><line style="stroke: #000000; stroke-width: 2.0;" x1="124" x2="124" y1="221.875" y2="226.875"/><line style="stroke: #000000; stroke-width: 2.0;" x1="174" x2="174" y1="221.875" y2="226.875"/><line style="stroke: #000000; stroke-width: 2.0;" x1="224" x2="224" y1="221.875" y2="226.875"/><line style="stroke: #000000; stroke-width: 2.0;" x1="274" x2="274" y1="221.875" y2="226.875"/><line style="stroke: #000000; stroke-width: 2.0;" x1="324" x2="324" y1="221.875" y2="226.875"/><line style="stroke: #000000; stroke-width: 2.0;" x1="374" x2="374" y1="221.875" y2="226.875"/><line style="stroke: #000000; stroke-width: 2.0;" x1="424" x2="424" y1="221.875" y2="226.875"/><line style="stroke: #000000; stroke-width: 2.0;" x1="124" x2="424" y1="221.875" y2="221.875"/><text fill="#000000" font-family="sans-serif" font-size="12" lengthAdjust="spacingAndGlyphs" textLength="8" x="120" y="239.0137">0</text><text fill="#000000" font-family="sans-serif" font-size="12" lengthAdjust="spacingAndGlyphs" textLength="24" x="212" y="239.0137">200</text><text fill="#000000" font-family="sans-serif" font-size="12" lengthAdjust="spacingAndGlyphs" textLength="24" x="262" y="239.0137">300</text><text fill="#000000" font-family="sans-serif" font-size="12" lengthAdjust="spacingAndGlyphs" textLength="24" x="362" y="239.0137">500</text><!--
@startuml
robust "Web Browser" as WB
concise "Web User" as WU

WB is Initializing
WU is Absent

@WB
0 is idle
+200 is Processing
+100 is Waiting
WB@0 <-> @50 : {50 ms lag}

@WU
0 is Waiting
+500 is ok
@200 <-> @+150 : {150 ms}
@enduml

PlantUML version 1.2019.08(Sat Jul 13 15:25:14 EDT 2019)
(GPL source distribution)
Java Runtime: OpenJDK Runtime Environment
JVM: OpenJDK 64-Bit Server VM
Java Version: 1.8.0_222-ga
Operating System: Linux
OS Version: 4.14.154
Default Encoding: UTF-8
Language: en
Country: GB
--></g></svg>