<?xml version="1.0" encoding="UTF-8" standalone="no"?><svg xmlns="http://www.w3.org/2000/svg" xmlns:xlink="http://www.w3.org/1999/xlink" contentScriptType="application/ecmascript" contentStyleType="text/css" height="361px" preserveAspectRatio="none" style="width:593px;height:361px;" version="1.1" viewBox="0 0 593 361" width="593px" zoomAndPan="magnify"><defs><filter height="300%" id="fo26eg3tzz11" width="300%" x="-1" y="-1"><feGaussianBlur result="blurOut" stdDeviation="2.0"/><feColorMatrix in="blurOut" result="blurOut2" type="matrix" values="0 0 0 0 0 0 0 0 0 0 0 0 0 0 0 0 0 0 .4 0"/><feOffset dx="4.0" dy="4.0" in="blurOut2" result="blurOut3"/><feBlend in="SourceGraphic" in2="blurOut3" mode="normal"/></filter></defs><g><rect fill="#FEFECE" filter="url(#fo26eg3tzz11)" height="33.9688" rx="12.5" ry="12.5" style="stroke: #A80036; stroke-width: 1.5;" width="37" x="298" y="168.4141"/><text fill="#000000" font-family="sans-serif" font-size="12" lengthAdjust="spacingAndGlyphs" textLength="17" x="308" y="189.5527">OS</text><rect fill="#FEFECE" filter="url(#fo26eg3tzz11)" height="33.9688" rx="12.5" ry="12.5" style="stroke: #A80036; stroke-width: 1.5;" width="66" x="385" y="100.9531"/><text fill="#000000" font-family="sans-serif" font-size="12" lengthAdjust="spacingAndGlyphs" textLength="46" x="395" y="122.0918">Ubuntu</text><rect fill="#FEFECE" filter="url(#fo26eg3tzz11)" height="33.9688" rx="12.5" ry="12.5" style="stroke: #A80036; stroke-width: 1.5;" width="81" x="501" y="20"/><text fill="#000000" font-family="sans-serif" font-size="12" lengthAdjust="spacingAndGlyphs" textLength="61" x="511" y="41.1387">Linux Mint</text><path d="M451,117.9375 L461,117.9375 C476,117.9375 476,36.9844 491,36.9844 L501,36.9844 " fill="none" style="stroke: #A80036; stroke-width: 1.0;"/><rect fill="#FEFECE" filter="url(#fo26eg3tzz11)" height="33.9688" rx="12.5" ry="12.5" style="stroke: #A80036; stroke-width: 1.5;" width="72" x="501" y="73.9688"/><text fill="#000000" font-family="sans-serif" font-size="12" lengthAdjust="spacingAndGlyphs" textLength="52" x="511" y="95.1074">Kubuntu</text><path d="M451,117.9375 L461,117.9375 C476,117.9375 476,90.9531 491,90.9531 L501,90.9531 " fill="none" style="stroke: #A80036; stroke-width: 1.0;"/><rect fill="#FEFECE" filter="url(#fo26eg3tzz11)" height="33.9688" rx="12.5" ry="12.5" style="stroke: #A80036; stroke-width: 1.5;" width="71" x="501" y="127.9375"/><text fill="#000000" font-family="sans-serif" font-size="12" lengthAdjust="spacingAndGlyphs" textLength="51" x="511" y="149.0762">Lubuntu</text><path d="M451,117.9375 L461,117.9375 C476,117.9375 476,144.9219 491,144.9219 L501,144.9219 " fill="none" style="stroke: #A80036; stroke-width: 1.0;"/><rect fill="#FEFECE" filter="url(#fo26eg3tzz11)" height="33.9688" rx="12.5" ry="12.5" style="stroke: #A80036; stroke-width: 1.5;" width="81" x="501" y="181.9063"/><text fill="#000000" font-family="sans-serif" font-size="12" lengthAdjust="spacingAndGlyphs" textLength="61" x="511" y="203.0449">KDE Neon</text><path d="M451,117.9375 L461,117.9375 C476,117.9375 476,198.8906 491,198.8906 L501,198.8906 " fill="none" style="stroke: #A80036; stroke-width: 1.0;"/><path d="M335,185.3984 L345,185.3984 C360,185.3984 360,117.9375 375,117.9375 L385,117.9375 " fill="none" style="stroke: #A80036; stroke-width: 1.0;"/><rect fill="#FEFECE" filter="url(#fo26eg3tzz11)" height="33.9688" rx="12.5" ry="12.5" style="stroke: #A80036; stroke-width: 1.5;" width="53" x="385" y="154.9219"/><text fill="#000000" font-family="sans-serif" font-size="12" lengthAdjust="spacingAndGlyphs" textLength="33" x="395" y="176.0605">LMDE</text><path d="M335,185.3984 L345,185.3984 C360,185.3984 360,171.9063 375,171.9063 L385,171.9063 " fill="none" style="stroke: #A80036; stroke-width: 1.0;"/><rect fill="#FEFECE" filter="url(#fo26eg3tzz11)" height="33.9688" rx="12.5" ry="12.5" style="stroke: #A80036; stroke-width: 1.5;" width="67" x="385" y="208.8906"/><text fill="#000000" font-family="sans-serif" font-size="12" lengthAdjust="spacingAndGlyphs" textLength="47" x="395" y="230.0293">SolydXK</text><path d="M335,185.3984 L345,185.3984 C360,185.3984 360,225.875 375,225.875 L385,225.875 " fill="none" style="stroke: #A80036; stroke-width: 1.0;"/><rect fill="#FEFECE" filter="url(#fo26eg3tzz11)" height="33.9688" rx="12.5" ry="12.5" style="stroke: #A80036; stroke-width: 1.5;" width="77" x="385" y="262.8594"/><text fill="#000000" font-family="sans-serif" font-size="12" lengthAdjust="spacingAndGlyphs" textLength="57" x="395" y="283.998">SteamOS</text><path d="M335,185.3984 L345,185.3984 C360,185.3984 360,279.8438 375,279.8438 L385,279.8438 " fill="none" style="stroke: #A80036; stroke-width: 1.0;"/><rect fill="#FEFECE" filter="url(#fo26eg3tzz11)" height="33.9688" rx="12.5" ry="12.5" style="stroke: #A80036; stroke-width: 1.5;" width="78" x="385" y="316.8281"/><text fill="#000000" font-family="sans-serif" font-size="12" lengthAdjust="spacingAndGlyphs" textLength="58" x="395" y="337.9668">Raspbian</text><path d="M335,185.3984 L345,185.3984 C360,185.3984 360,333.8125 375,333.8125 L385,333.8125 " fill="none" style="stroke: #A80036; stroke-width: 1.0;"/><rect fill="#FEFECE" filter="url(#fo26eg3tzz11)" height="33.9688" rx="12.5" ry="12.5" style="stroke: #A80036; stroke-width: 1.5;" width="94" x="154" y="100.9531"/><text fill="#000000" font-family="sans-serif" font-size="12" lengthAdjust="spacingAndGlyphs" textLength="74" x="164" y="122.0918">Windows 95</text><path d="M298,185.3984 L288,185.3984 C273,185.3984 273,117.9375 258,117.9375 L248,117.9375 " fill="none" style="stroke: #A80036; stroke-width: 1.0;"/><rect fill="#FEFECE" filter="url(#fo26eg3tzz11)" height="33.9688" rx="12.5" ry="12.5" style="stroke: #A80036; stroke-width: 1.5;" width="94" x="154" y="154.9219"/><text fill="#000000" font-family="sans-serif" font-size="12" lengthAdjust="spacingAndGlyphs" textLength="74" x="164" y="176.0605">Windows 98</text><path d="M298,185.3984 L288,185.3984 C273,185.3984 273,171.9063 258,171.9063 L248,171.9063 " fill="none" style="stroke: #A80036; stroke-width: 1.0;"/><rect fill="#FEFECE" filter="url(#fo26eg3tzz11)" height="33.9688" rx="12.5" ry="12.5" style="stroke: #A80036; stroke-width: 1.5;" width="94" x="154" y="208.8906"/><text fill="#000000" font-family="sans-serif" font-size="12" lengthAdjust="spacingAndGlyphs" textLength="74" x="164" y="230.0293">Windows NT</text><rect fill="#FEFECE" filter="url(#fo26eg3tzz11)" height="33.9688" rx="12.5" ry="12.5" style="stroke: #A80036; stroke-width: 1.5;" width="86" x="18" y="181.9063"/><text fill="#000000" font-family="sans-serif" font-size="12" lengthAdjust="spacingAndGlyphs" textLength="66" x="28" y="203.0449">Windows 8</text><path d="M154,225.875 L144,225.875 C129,225.875 129,198.8906 114,198.8906 L104,198.8906 " fill="none" style="stroke: #A80036; stroke-width: 1.0;"/><rect fill="#FEFECE" filter="url(#fo26eg3tzz11)" height="33.9688" rx="12.5" ry="12.5" style="stroke: #A80036; stroke-width: 1.5;" width="94" x="10" y="235.875"/><text fill="#000000" font-family="sans-serif" font-size="12" lengthAdjust="spacingAndGlyphs" textLength="74" x="20" y="257.0137">Windows 10</text><path d="M154,225.875 L144,225.875 C129,225.875 129,252.8594 114,252.8594 L104,252.8594 " fill="none" style="stroke: #A80036; stroke-width: 1.0;"/><path d="M298,185.3984 L288,185.3984 C273,185.3984 273,225.875 258,225.875 L248,225.875 " fill="none" style="stroke: #A80036; stroke-width: 1.0;"/><!--
@startmindmap
+ OS
++ Ubuntu
+++ Linux Mint
+++ Kubuntu
+++ Lubuntu
+++ KDE Neon
++ LMDE
++ SolydXK
++ SteamOS
++ Raspbian
- - Windows 95
- - Windows 98
- - Windows NT
- - - Windows 8
- - - Windows 10
@endmindmap

PlantUML version 1.2019.08(Sat Jul 13 15:25:14 EDT 2019)
(GPL source distribution)
Java Runtime: OpenJDK Runtime Environment
JVM: OpenJDK 64-Bit Server VM
Java Version: 1.8.0_222-ga
Operating System: Linux
OS Version: 4.14.154
Default Encoding: UTF-8
Language: en
Country: GB
--></g></svg>