<?xml version="1.0" encoding="UTF-8" standalone="no"?><svg xmlns="http://www.w3.org/2000/svg" xmlns:xlink="http://www.w3.org/1999/xlink" contentScriptType="application/ecmascript" contentStyleType="text/css" height="277px" preserveAspectRatio="none" style="width:660px;height:277px;" version="1.1" viewBox="0 0 660 277" width="660px" zoomAndPan="magnify"><defs/><g><text fill="#888888" font-family="sans-serif" font-size="10" lengthAdjust="spacingAndGlyphs" textLength="81" x="567" y="19.2822">Test MY-MODEL</text><text fill="#000000" font-family="sans-serif" font-size="18" lengthAdjust="spacingAndGlyphs" textLength="385" x="136.5" y="38.3486">Power of a street light as a function of time</text><line style="stroke: #000000; stroke-width: 1.7;" x1="10" x2="10" y1="42.5938" y2="218.4688"/><line style="stroke: #000000; stroke-width: 1.7;" x1="648" x2="648" y1="42.5938" y2="218.4688"/><line style="stroke: #AAAAAA; stroke-width: 0.5; stroke-dasharray: 3.0,5.0;" x1="43" x2="43" y1="42.5938" y2="218.4688"/><line style="stroke: #AAAAAA; stroke-width: 0.5; stroke-dasharray: 3.0,5.0;" x1="143" x2="143" y1="42.5938" y2="218.4688"/><line style="stroke: #AAAAAA; stroke-width: 0.5; stroke-dasharray: 3.0,5.0;" x1="243" x2="243" y1="42.5938" y2="218.4688"/><line style="stroke: #AAAAAA; stroke-width: 0.5; stroke-dasharray: 3.0,5.0;" x1="343" x2="343" y1="42.5938" y2="218.4688"/><line style="stroke: #AAAAAA; stroke-width: 0.5; stroke-dasharray: 3.0,5.0;" x1="443" x2="443" y1="42.5938" y2="218.4688"/><line style="stroke: #AAAAAA; stroke-width: 0.5; stroke-dasharray: 3.0,5.0;" x1="543" x2="543" y1="42.5938" y2="218.4688"/><line style="stroke: #AAAAAA; stroke-width: 0.5; stroke-dasharray: 3.0,5.0;" x1="643" x2="643" y1="42.5938" y2="218.4688"/><text fill="#000000" font-family="sans-serif" font-size="12" lengthAdjust="spacingAndGlyphs" textLength="227" x="15" y="53.7324">Street light power 80000 (kWh) as P</text><line style="stroke: #000000; stroke-width: 1.0;" x1="10" x2="243" y1="57.5625" y2="57.5625"/><line style="stroke: #000000; stroke-width: 1.0;" x1="243" x2="253" y1="57.5625" y2="42.5938"/><line style="stroke: #038048; stroke-width: 1.5;" x1="43" x2="143" y1="110.5313" y2="110.5313"/><line style="stroke: #038048; stroke-width: 1.5;" x1="143" x2="243" y1="110.5313" y2="110.5313"/><line style="stroke: #038048; stroke-width: 1.5;" x1="243" x2="343" y1="110.5313" y2="110.5313"/><line style="stroke: #038048; stroke-width: 1.5;" x1="343" x2="443" y1="90.5313" y2="90.5313"/><line style="stroke: #038048; stroke-width: 1.5;" x1="443" x2="543" y1="70.5313" y2="70.5313"/><line style="stroke: #038048; stroke-width: 1.5;" x1="543" x2="643" y1="90.5313" y2="90.5313"/><line style="stroke: #038048; stroke-width: 1.5;" x1="143" x2="143" y1="110.5313" y2="110.5313"/><line style="stroke: #038048; stroke-width: 1.5;" x1="243" x2="243" y1="110.5313" y2="110.5313"/><line style="stroke: #038048; stroke-width: 1.5;" x1="343" x2="343" y1="90.5313" y2="110.5313"/><line style="stroke: #038048; stroke-width: 1.5;" x1="443" x2="443" y1="70.5313" y2="90.5313"/><line style="stroke: #038048; stroke-width: 1.5;" x1="543" x2="543" y1="70.5313" y2="90.5313"/><text fill="#000000" font-family="sans-serif" font-size="12" lengthAdjust="spacingAndGlyphs" textLength="36" x="45" y="107.7012">15:00</text><text fill="#000000" font-family="sans-serif" font-size="12" lengthAdjust="spacingAndGlyphs" textLength="36" x="245" y="107.7012">17:00</text><text fill="#000000" font-family="sans-serif" font-size="12" lengthAdjust="spacingAndGlyphs" textLength="48" x="345" y="87.7012">Sun set</text><text fill="#000000" font-family="sans-serif" font-size="12" lengthAdjust="spacingAndGlyphs" textLength="28" x="15" y="107.7012">0.00</text><text fill="#000000" font-family="sans-serif" font-size="12" lengthAdjust="spacingAndGlyphs" textLength="28" x="15" y="87.7012">0.08</text><text fill="#000000" font-family="sans-serif" font-size="12" lengthAdjust="spacingAndGlyphs" textLength="28" x="15" y="67.7012">0.04</text><line style="stroke: #000000; stroke-width: 1.7;" x1="10" x2="648" y1="42.5938" y2="42.5938"/><text fill="#000000" font-family="sans-serif" font-size="12" lengthAdjust="spacingAndGlyphs" textLength="93" x="15" y="151.6699">Requested (%)</text><line style="stroke: #000000; stroke-width: 1.0;" x1="10" x2="109" y1="155.5" y2="155.5"/><line style="stroke: #000000; stroke-width: 1.0;" x1="109" x2="119" y1="155.5" y2="140.5313"/><line style="stroke: #038048; stroke-width: 1.5;" x1="43" x2="143" y1="188.4688" y2="188.4688"/><line style="stroke: #038048; stroke-width: 1.5;" x1="143" x2="243" y1="188.4688" y2="188.4688"/><line style="stroke: #038048; stroke-width: 1.5;" x1="243" x2="343" y1="168.4688" y2="168.4688"/><line style="stroke: #038048; stroke-width: 1.5;" x1="343" x2="443" y1="168.4688" y2="168.4688"/><line style="stroke: #038048; stroke-width: 1.5;" x1="443" x2="543" y1="168.4688" y2="168.4688"/><line style="stroke: #038048; stroke-width: 1.5;" x1="543" x2="643" y1="168.4688" y2="168.4688"/><line style="stroke: #038048; stroke-width: 1.5;" x1="143" x2="143" y1="188.4688" y2="188.4688"/><line style="stroke: #038048; stroke-width: 1.5;" x1="243" x2="243" y1="168.4688" y2="188.4688"/><line style="stroke: #038048; stroke-width: 1.5;" x1="343" x2="343" y1="168.4688" y2="168.4688"/><line style="stroke: #038048; stroke-width: 1.5;" x1="443" x2="443" y1="168.4688" y2="168.4688"/><line style="stroke: #038048; stroke-width: 1.5;" x1="543" x2="543" y1="168.4688" y2="168.4688"/><text fill="#000000" font-family="sans-serif" font-size="12" lengthAdjust="spacingAndGlyphs" textLength="8" x="15" y="185.6387">0</text><text fill="#000000" font-family="sans-serif" font-size="12" lengthAdjust="spacingAndGlyphs" textLength="16" x="15" y="165.6387">70</text><line style="stroke: #000000; stroke-width: 1.7;" x1="10" x2="648" y1="140.5313" y2="140.5313"/><line style="stroke: #000000; stroke-width: 2.0;" x1="43" x2="43" y1="218.4688" y2="223.4688"/><line style="stroke: #000000; stroke-width: 2.0;" x1="143" x2="143" y1="218.4688" y2="223.4688"/><line style="stroke: #000000; stroke-width: 2.0;" x1="243" x2="243" y1="218.4688" y2="223.4688"/><line style="stroke: #000000; stroke-width: 2.0;" x1="343" x2="343" y1="218.4688" y2="223.4688"/><line style="stroke: #000000; stroke-width: 2.0;" x1="443" x2="443" y1="218.4688" y2="223.4688"/><line style="stroke: #000000; stroke-width: 2.0;" x1="543" x2="543" y1="218.4688" y2="223.4688"/><line style="stroke: #000000; stroke-width: 2.0;" x1="643" x2="643" y1="218.4688" y2="223.4688"/><line style="stroke: #000000; stroke-width: 2.0;" x1="43" x2="643" y1="218.4688" y2="218.4688"/><text fill="#000000" font-family="sans-serif" font-size="12" lengthAdjust="spacingAndGlyphs" textLength="8" x="39" y="235.6074">0</text><text fill="#000000" font-family="sans-serif" font-size="12" lengthAdjust="spacingAndGlyphs" textLength="8" x="139" y="235.6074">1</text><text fill="#000000" font-family="sans-serif" font-size="12" lengthAdjust="spacingAndGlyphs" textLength="8" x="239" y="235.6074">2</text><text fill="#000000" font-family="sans-serif" font-size="12" lengthAdjust="spacingAndGlyphs" textLength="8" x="339" y="235.6074">3</text><text fill="#000000" font-family="sans-serif" font-size="12" lengthAdjust="spacingAndGlyphs" textLength="8" x="439" y="235.6074">4</text><text fill="#000000" font-family="sans-serif" font-size="12" lengthAdjust="spacingAndGlyphs" textLength="8" x="539" y="235.6074">5</text><text fill="#000000" font-family="sans-serif" font-size="12" lengthAdjust="spacingAndGlyphs" textLength="8" x="639" y="235.6074">6</text><rect fill="#DDDDDD" height="26.2969" rx="5" ry="5" style="stroke: #000000; stroke-width: 1.0;" width="130" x="263.5" y="240.4375"/><text fill="#000000" font-family="sans-serif" font-size="14" lengthAdjust="spacingAndGlyphs" textLength="118" x="269.5" y="258.4326">february 18 2017</text><!--
@startuml
scale 1 as 100 pixels
Title Power of a street light as a function of time
legend
february 18 2017
end legend
header: Test MY-MODEL

robust "Street light power 80000 (kWh) as P" as P
robust "Requested (%)" as R
@0
P is 0.00: 15:00
R is 0
@1
P is 0.00
R is 0
@2
P is 0.00 : 17:00
R is 70
@3
P is 0.08 : Sun set
R is 70
@4
P is 0.04
R is 70
@5
P is 0.08
R is 70
@enduml

PlantUML version 1.2019.08(Sat Jul 13 15:25:14 EDT 2019)
(GPL source distribution)
Java Runtime: OpenJDK Runtime Environment
JVM: OpenJDK 64-Bit Server VM
Java Version: 1.8.0_222-ga
Operating System: Linux
OS Version: 4.14.154
Default Encoding: UTF-8
Language: en
Country: GB
--></g></svg>