<?xml version="1.0" encoding="UTF-8" standalone="no"?><svg xmlns="http://www.w3.org/2000/svg" xmlns:xlink="http://www.w3.org/1999/xlink" contentScriptType="application/ecmascript" contentStyleType="text/css" height="548px" preserveAspectRatio="none" style="width:488px;height:548px;" version="1.1" viewBox="0 0 488 548" width="488px" zoomAndPan="magnify"><defs><filter height="300%" id="f1nn67vzz8opij" width="300%" x="-1" y="-1"><feGaussianBlur result="blurOut" stdDeviation="2.0"/><feColorMatrix in="blurOut" result="blurOut2" type="matrix" values="0 0 0 0 0 0 0 0 0 0 0 0 0 0 0 0 0 0 .4 0"/><feOffset dx="4.0" dy="4.0" in="blurOut2" result="blurOut3"/><feBlend in="SourceGraphic" in2="blurOut3" mode="normal"/></filter></defs><g><!--cluster Some Group--><polygon fill="#FFFFFF" filter="url(#f1nn67vzz8opij)" points="22,24,126,24,133,46.2969,440,46.2969,440,112,22,112,22,24" style="stroke: #000000; stroke-width: 1.5;"/><line style="stroke: #000000; stroke-width: 1.5;" x1="22" x2="133" y1="46.2969" y2="46.2969"/><text fill="#000000" font-family="sans-serif" font-size="14" font-weight="bold" lengthAdjust="spacingAndGlyphs" textLength="98" x="26" y="38.9951">Some Group</text><!--cluster Other Groups--><polygon fill="#FFFFFF" filter="url(#f1nn67vzz8opij)" points="49,146,59,136,292,136,292,219,282,229,49,229,49,146" style="stroke: #000000; stroke-width: 1.5;"/><line style="stroke: #000000; stroke-width: 1.5;" x1="282" x2="291" y1="146" y2="137"/><line style="stroke: #000000; stroke-width: 1.5;" x1="49" x2="282" y1="146" y2="146"/><line style="stroke: #000000; stroke-width: 1.5;" x1="282" x2="282" y1="146" y2="229"/><text fill="#000000" font-family="sans-serif" font-size="14" font-weight="bold" lengthAdjust="spacingAndGlyphs" textLength="108" x="112.5" y="161.9951">Other Groups</text><path d="M324.0481,170.8457 C327.9356,163.7351 333.2812,162.8656 339.3338,168.1827 C343.6317,161.9278 347.5722,160.6603 352.4956,167.5566 C356.7092,162.4089 362.1246,161.6775 365.6872,168.2869 C368.1034,160.0713 375.1595,159.3845 380.1521,165.7269 C384.7233,159.4716 389.834,160.05 393.6982,166.4818 C397.271,160.7671 403.1372,160.9171 405.9555,167.2495 C411.2702,160.2001 416.7692,161.207 420.4248,168.8801 C424.852,163.3152 431.1759,163.223 433.6695,170.8252 C439.2416,174.2831 440.142,178.9328 433.7966,182.5203 C440.7739,186.6967 441.1859,191.3416 434.995,196.636 C439.5775,200.9389 440.546,204.5685 434.1175,208.023 C439.9702,212.6013 440.8186,217.9222 433.7438,222.1588 C430.5835,229.506 425.2928,231.8534 419.3331,224.9996 C416.2217,232.6894 410.6012,232.7575 405.8141,226.6405 C401.3842,231.8848 397.2666,232.5793 392.8115,226.6699 C390.1967,234.2119 385.3162,236.0276 379.2794,230.1105 C374.8349,235.2233 367.8127,235.4179 365.4536,227.8387 C359.8646,234.0367 355.4544,233.7918 351.6906,226.0382 C347.4433,230.9807 342.9539,231.5854 339.6375,225.0597 C333.6589,230.3854 329.6339,229.3895 326.1453,222.344 C318.4732,220.0791 315.7095,214.8642 321.2031,208.0478 C315.1096,206.1029 313.9837,200.1271 318.9365,196.0886 C312.342,191.2618 314.2639,185.5405 321.0306,182.8228 C316.7841,177.8586 317.4534,173.0785 324.0481,170.8457 " fill="#FFFFFF" style="stroke: #000000; stroke-width: 1.5;"/><!--cluster MySql--><path d="M280,263 C280,253 378,253 378,253 C378,253 476,253 476,263 L476,526 C476,536 378,536 378,536 C378,536 280,536 280,526 L280,263 " fill="#FFFFFF" filter="url(#f1nn67vzz8opij)" style="stroke: #000000; stroke-width: 1.5;"/><path d="M280,263 C280,273 378,273 378,273 C378,273 476,273 476,263 " fill="none" style="stroke: #000000; stroke-width: 1.5;"/><text fill="#000000" font-family="sans-serif" font-size="14" font-weight="bold" lengthAdjust="spacingAndGlyphs" textLength="46" x="355" y="287.9951">MySql</text><!--cluster This is my folder--><polygon fill="#FFFFFF" filter="url(#f1nn67vzz8opij)" points="304,312,441,312,448,334.2969,452,334.2969,452,400,304,400,304,312" style="stroke: #000000; stroke-width: 1.5;"/><line style="stroke: #000000; stroke-width: 1.5;" x1="304" x2="448" y1="334.2969" y2="334.2969"/><text fill="#000000" font-family="sans-serif" font-size="14" font-weight="bold" lengthAdjust="spacingAndGlyphs" textLength="131" x="308" y="326.9951">This is my folder</text><!--cluster Foo--><rect fill="#FFFFFF" filter="url(#f1nn67vzz8opij)" height="88" style="stroke: #000000; stroke-width: 1.5;" width="108" x="324" y="424"/><path d="M363,425 L363,433.2969 L353,443.2969 L324,443.2969 " fill="none" style="stroke: #000000; stroke-width: 1.5;"/><text fill="#000000" font-family="sans-serif" font-size="14" font-weight="bold" lengthAdjust="spacingAndGlyphs" textLength="29" x="327" y="437.9951">Foo</text><!--entity HTTP--><ellipse cx="218" cy="78" fill="#FEFECE" filter="url(#f1nn67vzz8opij)" rx="8" ry="8" style="stroke: #A80036; stroke-width: 2.0;"/><text fill="#000000" font-family="sans-serif" font-size="14" lengthAdjust="spacingAndGlyphs" textLength="37" x="199.5" y="107.9951">HTTP</text><!--entity First Component--><rect fill="#FEFECE" filter="url(#f1nn67vzz8opij)" height="36.2969" style="stroke: #A80036; stroke-width: 1.5;" width="135" x="38.75" y="60"/><rect fill="#FEFECE" height="5" style="stroke: #A80036; stroke-width: 1.5;" width="10" x="33.75" y="65"/><rect fill="#FEFECE" height="5" style="stroke: #A80036; stroke-width: 1.5;" width="10" x="33.75" y="86.2969"/><text fill="#000000" font-family="sans-serif" font-size="14" lengthAdjust="spacingAndGlyphs" textLength="115" x="48.75" y="82.9951">First Component</text><!--entity Another Component--><rect fill="#FEFECE" filter="url(#f1nn67vzz8opij)" height="36.2969" style="stroke: #A80036; stroke-width: 1.5;" width="161" x="262.75" y="60"/><rect fill="#FEFECE" height="5" style="stroke: #A80036; stroke-width: 1.5;" width="10" x="257.75" y="65"/><rect fill="#FEFECE" height="5" style="stroke: #A80036; stroke-width: 1.5;" width="10" x="257.75" y="86.2969"/><text fill="#000000" font-family="sans-serif" font-size="14" lengthAdjust="spacingAndGlyphs" textLength="141" x="272.75" y="82.9951">Another Component</text><!--entity FTP--><ellipse cx="74" cy="195" fill="#FEFECE" filter="url(#f1nn67vzz8opij)" rx="8" ry="8" style="stroke: #A80036; stroke-width: 2.0;"/><text fill="#000000" font-family="sans-serif" font-size="14" lengthAdjust="spacingAndGlyphs" textLength="26" x="61" y="224.9951">FTP</text><!--entity Second Component--><rect fill="#FEFECE" filter="url(#f1nn67vzz8opij)" height="36.2969" style="stroke: #A80036; stroke-width: 1.5;" width="159" x="117.75" y="177"/><rect fill="#FEFECE" height="5" style="stroke: #A80036; stroke-width: 1.5;" width="10" x="112.75" y="182"/><rect fill="#FEFECE" height="5" style="stroke: #A80036; stroke-width: 1.5;" width="10" x="112.75" y="203.2969"/><text fill="#000000" font-family="sans-serif" font-size="14" lengthAdjust="spacingAndGlyphs" textLength="139" x="127.75" y="199.9951">Second Component</text><!--entity Example 1--><rect fill="#FEFECE" filter="url(#f1nn67vzz8opij)" height="36.2969" style="stroke: #A80036; stroke-width: 1.5;" width="91" x="332.75" y="177"/><rect fill="#FEFECE" height="5" style="stroke: #A80036; stroke-width: 1.5;" width="10" x="327.75" y="182"/><rect fill="#FEFECE" height="5" style="stroke: #A80036; stroke-width: 1.5;" width="10" x="327.75" y="203.2969"/><text fill="#000000" font-family="sans-serif" font-size="14" lengthAdjust="spacingAndGlyphs" textLength="71" x="342.75" y="199.9951">Example 1</text><!--entity Folder 3--><rect fill="#FEFECE" filter="url(#f1nn67vzz8opij)" height="36.2969" style="stroke: #A80036; stroke-width: 1.5;" width="76" x="340" y="348"/><rect fill="#FEFECE" height="5" style="stroke: #A80036; stroke-width: 1.5;" width="10" x="335" y="353"/><rect fill="#FEFECE" height="5" style="stroke: #A80036; stroke-width: 1.5;" width="10" x="335" y="374.2969"/><text fill="#000000" font-family="sans-serif" font-size="14" lengthAdjust="spacingAndGlyphs" textLength="56" x="350" y="370.9951">Folder 3</text><!--entity Frame 4--><rect fill="#FEFECE" filter="url(#f1nn67vzz8opij)" height="36.2969" style="stroke: #A80036; stroke-width: 1.5;" width="76" x="340" y="460"/><rect fill="#FEFECE" height="5" style="stroke: #A80036; stroke-width: 1.5;" width="10" x="335" y="465"/><rect fill="#FEFECE" height="5" style="stroke: #A80036; stroke-width: 1.5;" width="10" x="335" y="486.2969"/><text fill="#000000" font-family="sans-serif" font-size="14" lengthAdjust="spacingAndGlyphs" textLength="56" x="350" y="482.9951">Frame 4</text><!--link HTTP to First Component--><path d="M208.936,78 C197.082,78 185.229,78 173.375,78 " fill="none" id="HTTP-First Component" style="stroke: #A80036; stroke-width: 1.0;"/><!--link FTP to Second Component--><path d="M83.1289,195 C94.5457,195 105.9624,195 117.379,195 " fill="none" id="FTP-Second Component" style="stroke: #A80036; stroke-width: 1.0;"/><!--link First Component to FTP--><path d="M101.1399,96.466 C94.6878,119.653 83.4378,160.083 77.6578,180.855 " fill="none" id="First Component-FTP" style="stroke: #A80036; stroke-width: 1.0;"/><polygon fill="#A80036" points="76.2466,185.926,82.5123,178.3273,77.5866,181.1089,74.805,176.1832,76.2466,185.926" style="stroke: #A80036; stroke-width: 1.0;"/><!--link Another Component to Example 1--><path d="M348.316,96.466 C354.441,116.593 364.521,149.712 371.209,171.688 " fill="none" id="Another Component-Example 1" style="stroke: #A80036; stroke-width: 1.0;"/><polygon fill="#A80036" points="372.749,176.746,373.9525,166.9709,371.2918,171.963,366.2997,169.3024,372.749,176.746" style="stroke: #A80036; stroke-width: 1.0;"/><!--link Example 1 to Folder 3--><path d="M378,213.135 C378,243.881 378,308.394 378,342.6 " fill="none" id="Example 1-Folder 3" style="stroke: #A80036; stroke-width: 1.0;"/><polygon fill="#A80036" points="378,347.82,382,338.82,378,342.82,374,338.82,378,347.82" style="stroke: #A80036; stroke-width: 1.0;"/><!--link Folder 3 to Frame 4--><path d="M378,384.188 C378,403.238 378,434.02 378,454.8619 " fill="none" id="Folder 3-Frame 4" style="stroke: #A80036; stroke-width: 1.0;"/><polygon fill="#A80036" points="378,459.9332,382,450.9332,378,454.9332,374,450.9332,378,459.9332" style="stroke: #A80036; stroke-width: 1.0;"/><!--
@startuml

package "Some Group" {
  HTTP - [First Component]
  [Another Component]
}
 
node "Other Groups" {
  FTP - [Second Component]
  [First Component] - -> FTP
} 

cloud {
  [Example 1]
}


database "MySql" {
  folder "This is my folder" {
    [Folder 3]
  }
  frame "Foo" {
    [Frame 4]
  }
}


[Another Component] - -> [Example 1]
[Example 1] - -> [Folder 3]
[Folder 3] - -> [Frame 4]

@enduml

PlantUML version 1.2019.08(Sat Jul 13 15:25:14 EDT 2019)
(GPL source distribution)
Java Runtime: OpenJDK Runtime Environment
JVM: OpenJDK 64-Bit Server VM
Java Version: 1.8.0_222-ga
Operating System: Linux
OS Version: 4.19.84
Default Encoding: UTF-8
Language: en
Country: GB
--></g></svg>