<?xml version="1.0" encoding="UTF-8" standalone="no"?><svg xmlns="http://www.w3.org/2000/svg" xmlns:xlink="http://www.w3.org/1999/xlink" contentScriptType="application/ecmascript" contentStyleType="text/css" height="373px" preserveAspectRatio="none" style="width:288px;height:373px;" version="1.1" viewBox="0 0 288 373" width="288px" zoomAndPan="magnify"><defs><filter height="300%" id="flkr5h8rctnfg" width="300%" x="-1" y="-1"><feGaussianBlur result="blurOut" stdDeviation="2.0"/><feColorMatrix in="blurOut" result="blurOut2" type="matrix" values="0 0 0 0 0 0 0 0 0 0 0 0 0 0 0 0 0 0 .4 0"/><feOffset dx="4.0" dy="4.0" in="blurOut2" result="blurOut3"/><feBlend in="SourceGraphic" in2="blurOut3" mode="normal"/></filter></defs><g><rect fill="#FFFFFF" filter="url(#flkr5h8rctnfg)" height="246.0938" style="stroke: #A80036; stroke-width: 1.0;" width="10" x="107.5" y="69.4297"/><rect fill="#FFFFFF" filter="url(#flkr5h8rctnfg)" height="143.6953" style="stroke: #A80036; stroke-width: 1.0;" width="10" x="112.5" y="106.5625"/><rect fill="#005500" filter="url(#flkr5h8rctnfg)" height="74.4297" style="stroke: #A80036; stroke-width: 1.0;" width="10" x="178.5" y="140.6953"/><rect fill="#FEFECE" filter="url(#flkr5h8rctnfg)" height="30.2969" style="stroke: #A80036; stroke-width: 1.5;" width="64" x="213" y="148.6953"/><text fill="#000000" font-family="sans-serif" font-size="14" lengthAdjust="spacingAndGlyphs" textLength="50" x="220" y="168.6904">george</text><line style="stroke: #A80036; stroke-width: 1.0; stroke-dasharray: 5.0,5.0;" x1="32" x2="32" y1="38.2969" y2="333.5234"/><line style="stroke: #A80036; stroke-width: 1.0; stroke-dasharray: 5.0,5.0;" x1="112" x2="112" y1="38.2969" y2="333.5234"/><line style="stroke: #A80036; stroke-width: 1.0; stroke-dasharray: 5.0,5.0;" x1="183" x2="183" y1="38.2969" y2="333.5234"/><line style="stroke: #A80036; stroke-width: 1.0; stroke-dasharray: 5.0,5.0;" x1="247" x2="247" y1="181.3438" y2="333.5234"/><rect fill="#FEFECE" filter="url(#flkr5h8rctnfg)" height="30.2969" style="stroke: #A80036; stroke-width: 1.5;" width="45" x="8" y="3"/><text fill="#000000" font-family="sans-serif" font-size="14" lengthAdjust="spacingAndGlyphs" textLength="31" x="15" y="22.9951">alice</text><rect fill="#FEFECE" filter="url(#flkr5h8rctnfg)" height="30.2969" style="stroke: #A80036; stroke-width: 1.5;" width="45" x="8" y="332.5234"/><text fill="#000000" font-family="sans-serif" font-size="14" lengthAdjust="spacingAndGlyphs" textLength="31" x="15" y="352.5186">alice</text><rect fill="#FEFECE" filter="url(#flkr5h8rctnfg)" height="30.2969" style="stroke: #A80036; stroke-width: 1.5;" width="41" x="90" y="3"/><text fill="#000000" font-family="sans-serif" font-size="14" lengthAdjust="spacingAndGlyphs" textLength="27" x="97" y="22.9951">bob</text><rect fill="#FEFECE" filter="url(#flkr5h8rctnfg)" height="30.2969" style="stroke: #A80036; stroke-width: 1.5;" width="41" x="90" y="332.5234"/><text fill="#000000" font-family="sans-serif" font-size="14" lengthAdjust="spacingAndGlyphs" textLength="27" x="97" y="352.5186">bob</text><rect fill="#FEFECE" filter="url(#flkr5h8rctnfg)" height="30.2969" style="stroke: #A80036; stroke-width: 1.5;" width="35" x="164" y="3"/><text fill="#000000" font-family="sans-serif" font-size="14" lengthAdjust="spacingAndGlyphs" textLength="21" x="171" y="22.9951">bib</text><rect fill="#FEFECE" filter="url(#flkr5h8rctnfg)" height="30.2969" style="stroke: #A80036; stroke-width: 1.5;" width="35" x="164" y="332.5234"/><text fill="#000000" font-family="sans-serif" font-size="14" lengthAdjust="spacingAndGlyphs" textLength="21" x="171" y="352.5186">bib</text><rect fill="#FEFECE" filter="url(#flkr5h8rctnfg)" height="30.2969" style="stroke: #A80036; stroke-width: 1.5;" width="64" x="213" y="332.5234"/><text fill="#000000" font-family="sans-serif" font-size="14" lengthAdjust="spacingAndGlyphs" textLength="50" x="220" y="352.5186">george</text><rect fill="#FFFFFF" filter="url(#flkr5h8rctnfg)" height="246.0938" style="stroke: #A80036; stroke-width: 1.0;" width="10" x="107.5" y="69.4297"/><rect fill="#FFFFFF" filter="url(#flkr5h8rctnfg)" height="143.6953" style="stroke: #A80036; stroke-width: 1.0;" width="10" x="112.5" y="106.5625"/><rect fill="#005500" filter="url(#flkr5h8rctnfg)" height="74.4297" style="stroke: #A80036; stroke-width: 1.0;" width="10" x="178.5" y="140.6953"/><polygon fill="#A80036" points="95.5,65.4297,105.5,69.4297,95.5,73.4297,99.5,69.4297" style="stroke: #A80036; stroke-width: 1.0;"/><line style="stroke: #A80036; stroke-width: 1.0;" x1="32.5" x2="101.5" y1="69.4297" y2="69.4297"/><text fill="#000000" font-family="sans-serif" font-size="13" lengthAdjust="spacingAndGlyphs" textLength="30" x="39.5" y="64.3638">hello</text><line style="stroke: #A80036; stroke-width: 1.0;" x1="117.5" x2="164.5" y1="93.5625" y2="93.5625"/><line style="stroke: #A80036; stroke-width: 1.0;" x1="164.5" x2="164.5" y1="93.5625" y2="106.5625"/><line style="stroke: #A80036; stroke-width: 1.0;" x1="123.5" x2="164.5" y1="106.5625" y2="106.5625"/><polygon fill="#A80036" points="133.5,102.5625,123.5,106.5625,133.5,110.5625,129.5,106.5625" style="stroke: #A80036; stroke-width: 1.0;"/><text fill="#000000" font-family="sans-serif" font-size="13" lengthAdjust="spacingAndGlyphs" textLength="47" x="129.5" y="88.4966">self call</text><polygon fill="#A80036" points="166.5,136.6953,176.5,140.6953,166.5,144.6953,170.5,140.6953" style="stroke: #A80036; stroke-width: 1.0;"/><line style="stroke: #A80036; stroke-width: 1.0;" x1="122.5" x2="172.5" y1="140.6953" y2="140.6953"/><text fill="#000000" font-family="sans-serif" font-size="13" lengthAdjust="spacingAndGlyphs" textLength="30" x="129.5" y="135.6294">hello</text><polygon fill="#A80036" points="201,165.8281,211,169.8281,201,173.8281,205,169.8281" style="stroke: #A80036; stroke-width: 1.0;"/><line style="stroke: #A80036; stroke-width: 1.0;" x1="122.5" x2="207" y1="169.8281" y2="169.8281"/><text fill="#000000" font-family="sans-serif" font-size="13" lengthAdjust="spacingAndGlyphs" textLength="41" x="129.5" y="164.7622">create</text><rect fill="#FEFECE" filter="url(#flkr5h8rctnfg)" height="30.2969" style="stroke: #A80036; stroke-width: 1.5;" width="64" x="213" y="148.6953"/><text fill="#000000" font-family="sans-serif" font-size="14" lengthAdjust="spacingAndGlyphs" textLength="50" x="220" y="168.6904">george</text><polygon fill="#A80036" points="133.5,211.125,123.5,215.125,133.5,219.125,129.5,215.125" style="stroke: #A80036; stroke-width: 1.0;"/><line style="stroke: #A80036; stroke-width: 1.0; stroke-dasharray: 2.0,2.0;" x1="127.5" x2="182.5" y1="215.125" y2="215.125"/><text fill="#000000" font-family="sans-serif" font-size="13" lengthAdjust="spacingAndGlyphs" textLength="32" x="139.5" y="210.0591">done</text><line style="stroke: #A80036; stroke-width: 1.0; stroke-dasharray: 2.0,2.0;" x1="122.5" x2="164.5" y1="249.2578" y2="249.2578"/><line style="stroke: #A80036; stroke-width: 1.0; stroke-dasharray: 2.0,2.0;" x1="164.5" x2="164.5" y1="249.2578" y2="262.2578"/><line style="stroke: #A80036; stroke-width: 1.0; stroke-dasharray: 2.0,2.0;" x1="117.5" x2="164.5" y1="262.2578" y2="262.2578"/><polygon fill="#A80036" points="127.5,258.2578,117.5,262.2578,127.5,266.2578,123.5,262.2578" style="stroke: #A80036; stroke-width: 1.0;"/><text fill="#000000" font-family="sans-serif" font-size="13" lengthAdjust="spacingAndGlyphs" textLength="12" x="129.5" y="244.1919">rc</text><polygon fill="#A80036" points="235,282.3906,245,286.3906,235,290.3906,239,286.3906" style="stroke: #A80036; stroke-width: 1.0;"/><line style="stroke: #A80036; stroke-width: 1.0;" x1="117.5" x2="241" y1="286.3906" y2="286.3906"/><text fill="#000000" font-family="sans-serif" font-size="13" lengthAdjust="spacingAndGlyphs" textLength="40" x="124.5" y="281.3247">delete</text><line style="stroke: #A80036; stroke-width: 2.0;" x1="238" x2="256" y1="277.3906" y2="295.3906"/><line style="stroke: #A80036; stroke-width: 2.0;" x1="238" x2="256" y1="295.3906" y2="277.3906"/><polygon fill="#A80036" points="43.5,311.5234,33.5,315.5234,43.5,319.5234,39.5,315.5234" style="stroke: #A80036; stroke-width: 1.0;"/><line style="stroke: #A80036; stroke-width: 1.0; stroke-dasharray: 2.0,2.0;" x1="37.5" x2="111.5" y1="315.5234" y2="315.5234"/><text fill="#000000" font-family="sans-serif" font-size="13" lengthAdjust="spacingAndGlyphs" textLength="51" x="49.5" y="310.4575">success</text><!--
@startuml
alice -> bob ++ : hello
bob -> bob ++ : self call
bob -> bib ++  #005500 : hello
bob -> george ** : create
return done
return rc
bob -> george !! : delete
return success
@enduml

PlantUML version 1.2019.08(Sat Jul 13 15:25:14 EDT 2019)
(GPL source distribution)
Java Runtime: OpenJDK Runtime Environment
JVM: OpenJDK 64-Bit Server VM
Java Version: 1.8.0_222-ga
Operating System: Linux
OS Version: 4.14.154
Default Encoding: UTF-8
Language: en
Country: GB
--></g></svg>