<?xml version="1.0" encoding="UTF-8" standalone="no"?><svg xmlns="http://www.w3.org/2000/svg" xmlns:xlink="http://www.w3.org/1999/xlink" contentScriptType="application/ecmascript" contentStyleType="text/css" height="138px" preserveAspectRatio="none" style="width:274px;height:138px;" version="1.1" viewBox="0 0 274 138" width="274px" zoomAndPan="magnify"><defs/><g><line style="stroke: #000000; stroke-width: 1.7;" x1="10" x2="10" y1="10" y2="107.9375"/><line style="stroke: #000000; stroke-width: 1.7;" x1="262" x2="262" y1="10" y2="107.9375"/><line style="stroke: #AAAAAA; stroke-width: 0.5; stroke-dasharray: 3.0,5.0;" x1="57" x2="57" y1="10" y2="107.9375"/><line style="stroke: #AAAAAA; stroke-width: 0.5; stroke-dasharray: 3.0,5.0;" x1="107" x2="107" y1="10" y2="107.9375"/><line style="stroke: #AAAAAA; stroke-width: 0.5; stroke-dasharray: 3.0,5.0;" x1="157" x2="157" y1="10" y2="107.9375"/><line style="stroke: #AAAAAA; stroke-width: 0.5; stroke-dasharray: 3.0,5.0;" x1="207" x2="207" y1="10" y2="107.9375"/><line style="stroke: #AAAAAA; stroke-width: 0.5; stroke-dasharray: 3.0,5.0;" x1="257" x2="257" y1="10" y2="107.9375"/><text fill="#000000" font-family="sans-serif" font-size="12" lengthAdjust="spacingAndGlyphs" textLength="51" x="15" y="21.1387">MyEntity</text><line style="stroke: #000000; stroke-width: 1.0;" x1="10" x2="67" y1="24.9688" y2="24.9688"/><line style="stroke: #000000; stroke-width: 1.0;" x1="67" x2="77" y1="24.9688" y2="10"/><line style="stroke: #038048; stroke-width: 1.5;" x1="107" x2="157" y1="77.9375" y2="77.9375"/><line style="stroke: #038048; stroke-width: 1.5;" x1="157" x2="207" y1="57.9375" y2="57.9375"/><line style="stroke: #038048; stroke-width: 1.5;" x1="207" x2="257" y1="37.9375" y2="37.9375"/><line style="stroke: #038048; stroke-width: 1.5;" x1="157" x2="157" y1="57.9375" y2="77.9375"/><line style="stroke: #038048; stroke-width: 1.5;" x1="207" x2="207" y1="37.9375" y2="57.9375"/><text fill="#000000" font-family="sans-serif" font-size="12" lengthAdjust="spacingAndGlyphs" textLength="42" x="15" y="75.1074">StateB</text><text fill="#000000" font-family="sans-serif" font-size="12" lengthAdjust="spacingAndGlyphs" textLength="42" x="15" y="55.1074">StateA</text><text fill="#000000" font-family="sans-serif" font-size="12" lengthAdjust="spacingAndGlyphs" textLength="42" x="15" y="35.1074">StateC</text><line style="stroke: #000000; stroke-width: 1.7;" x1="10" x2="262" y1="10" y2="10"/><line style="stroke: #000000; stroke-width: 2.0;" x1="57" x2="57" y1="107.9375" y2="112.9375"/><line style="stroke: #000000; stroke-width: 2.0;" x1="107" x2="107" y1="107.9375" y2="112.9375"/><line style="stroke: #000000; stroke-width: 2.0;" x1="157" x2="157" y1="107.9375" y2="112.9375"/><line style="stroke: #000000; stroke-width: 2.0;" x1="207" x2="207" y1="107.9375" y2="112.9375"/><line style="stroke: #000000; stroke-width: 2.0;" x1="257" x2="257" y1="107.9375" y2="112.9375"/><line style="stroke: #000000; stroke-width: 2.0;" x1="57" x2="257" y1="107.9375" y2="107.9375"/><text fill="#000000" font-family="sans-serif" font-size="12" lengthAdjust="spacingAndGlyphs" textLength="8" x="53" y="125.0762">0</text><text fill="#000000" font-family="sans-serif" font-size="12" lengthAdjust="spacingAndGlyphs" textLength="16" x="99" y="125.0762">10</text><text fill="#000000" font-family="sans-serif" font-size="12" lengthAdjust="spacingAndGlyphs" textLength="16" x="149" y="125.0762">20</text><text fill="#000000" font-family="sans-serif" font-size="12" lengthAdjust="spacingAndGlyphs" textLength="16" x="199" y="125.0762">30</text><!--
@startuml

robust "MyEntity" as myEntity

@20
myEntity is StateA
@10
myEntity is StateB
@30
myEntity is StateC

@enduml

PlantUML version 1.2019.08(Sat Jul 13 15:25:14 EDT 2019)
(GPL source distribution)
Java Runtime: OpenJDK Runtime Environment
JVM: OpenJDK 64-Bit Server VM
Java Version: 1.8.0_222-ga
Operating System: Linux
OS Version: 4.14.154
Default Encoding: UTF-8
Language: en
Country: GB
--></g></svg>