<?xml version="1.0" encoding="UTF-8" standalone="no"?><svg xmlns="http://www.w3.org/2000/svg" xmlns:xlink="http://www.w3.org/1999/xlink" contentScriptType="application/ecmascript" contentStyleType="text/css" height="755px" preserveAspectRatio="none" style="width:692px;height:755px;" version="1.1" viewBox="0 0 692 755" width="692px" zoomAndPan="magnify"><defs><filter height="300%" id="f15w3rzwxfrkrw" width="300%" x="-1" y="-1"><feGaussianBlur result="blurOut" stdDeviation="2.0"/><feColorMatrix in="blurOut" result="blurOut2" type="matrix" values="0 0 0 0 0 0 0 0 0 0 0 0 0 0 0 0 0 0 .4 0"/><feOffset dx="4.0" dy="4.0" in="blurOut2" result="blurOut3"/><feBlend in="SourceGraphic" in2="blurOut3" mode="normal"/></filter></defs><g><rect fill="#FFFFFF" filter="url(#f15w3rzwxfrkrw)" height="93.5625" style="stroke: #A80036; stroke-width: 1.0;" width="10" x="192.5" y="302.2578"/><rect fill="#FFFFFF" filter="url(#f15w3rzwxfrkrw)" height="309.1953" style="stroke: #A80036; stroke-width: 1.0;" width="10" x="192.5" y="424.9531"/><rect fill="#FFFFFF" filter="url(#f15w3rzwxfrkrw)" height="40.1328" style="stroke: #A80036; stroke-width: 1.0;" width="10" x="197.5" y="648.8828"/><rect fill="#FFFFFF" filter="url(#f15w3rzwxfrkrw)" height="35.2969" style="stroke: #A80036; stroke-width: 1.0;" width="10" x="383.5" y="227.8281"/><rect fill="#FFFFFF" filter="url(#f15w3rzwxfrkrw)" height="29.1328" style="stroke: #A80036; stroke-width: 1.0;" width="10" x="383.5" y="337.5547"/><rect fill="#FFFFFF" filter="url(#f15w3rzwxfrkrw)" height="280.0625" style="stroke: #A80036; stroke-width: 1.0;" width="10" x="383.5" y="454.0859"/><rect fill="#FFFFFF" filter="url(#f15w3rzwxfrkrw)" height="40.1328" style="stroke: #A80036; stroke-width: 1.0;" width="10" x="388.5" y="564.6172"/><rect fill="#FFFFFF" filter="url(#f15w3rzwxfrkrw)" height="616.7188" style="stroke: #A80036; stroke-width: 1.0;" width="10" x="555.5" y="117.4297"/><rect fill="#FFFFFF" filter="url(#f15w3rzwxfrkrw)" height="579.5859" style="stroke: #A80036; stroke-width: 1.0;" width="10" x="560.5" y="154.5625"/><rect fill="#FFFFFF" filter="url(#f15w3rzwxfrkrw)" height="29.1328" style="stroke: #A80036; stroke-width: 1.0;" width="10" x="565.5" y="498.3516"/><rect fill="#FFFFFF" filter="url(#f15w3rzwxfrkrw)" height="545.4531" style="stroke: #A80036; stroke-width: 1.0;" width="10" x="662.5" y="188.6953"/><rect fill="#FEFECE" filter="url(#f15w3rzwxfrkrw)" height="30.2969" style="stroke: #A80036; stroke-width: 1.5;" width="86" x="343.5" y="196.6953"/><text fill="#000000" font-family="sans-serif" font-size="14" lengthAdjust="spacingAndGlyphs" textLength="72" x="350.5" y="216.6904">webserver</text><rect fill="#FEFECE" filter="url(#f15w3rzwxfrkrw)" height="30.2969" style="stroke: #A80036; stroke-width: 1.5;" width="102" x="144.5" y="271.125"/><text fill="#000000" font-family="sans-serif" font-size="14" lengthAdjust="spacingAndGlyphs" textLength="88" x="151.5" y="291.1201">webfrontend</text><line style="stroke: #A80036; stroke-width: 1.0; stroke-dasharray: 5.0,5.0;" x1="26" x2="26" y1="86.2969" y2="743.1484"/><line style="stroke: #A80036; stroke-width: 1.0; stroke-dasharray: 5.0,5.0;" x1="197.5" x2="197.5" y1="303.7734" y2="743.1484"/><line style="stroke: #A80036; stroke-width: 1.0; stroke-dasharray: 5.0,5.0;" x1="388.5" x2="388.5" y1="229.3438" y2="743.1484"/><line style="stroke: #A80036; stroke-width: 1.0; stroke-dasharray: 5.0,5.0;" x1="560" x2="560" y1="86.2969" y2="743.1484"/><line style="stroke: #A80036; stroke-width: 1.0; stroke-dasharray: 5.0,5.0;" x1="667" x2="667" y1="86.2969" y2="743.1484"/><text fill="#000000" font-family="sans-serif" font-size="14" lengthAdjust="spacingAndGlyphs" textLength="31" x="8" y="82.9951">user</text><ellipse cx="26.5" cy="13" fill="#FEFECE" filter="url(#f15w3rzwxfrkrw)" rx="8" ry="8" style="stroke: #A80036; stroke-width: 2.0;"/><path d="M26.5,21 L26.5,48 M13.5,29 L39.5,29 M26.5,48 L13.5,63 M26.5,48 L39.5,63 " fill="none" filter="url(#f15w3rzwxfrkrw)" style="stroke: #A80036; stroke-width: 2.0;"/><rect fill="#FEFECE" filter="url(#f15w3rzwxfrkrw)" height="30.2969" style="stroke: #A80036; stroke-width: 1.5;" width="79" x="519" y="51"/><text fill="#000000" font-family="sans-serif" font-size="14" lengthAdjust="spacingAndGlyphs" textLength="65" x="526" y="70.9951">hwdevice</text><rect fill="#FEFECE" filter="url(#f15w3rzwxfrkrw)" height="30.2969" style="stroke: #A80036; stroke-width: 1.5;" width="31" x="650" y="51"/><text fill="#000000" font-family="sans-serif" font-size="14" lengthAdjust="spacingAndGlyphs" textLength="17" x="657" y="70.9951">os</text><rect fill="#FFFFFF" filter="url(#f15w3rzwxfrkrw)" height="93.5625" style="stroke: #A80036; stroke-width: 1.0;" width="10" x="192.5" y="302.2578"/><rect fill="#FFFFFF" filter="url(#f15w3rzwxfrkrw)" height="309.1953" style="stroke: #A80036; stroke-width: 1.0;" width="10" x="192.5" y="424.9531"/><rect fill="#FFFFFF" filter="url(#f15w3rzwxfrkrw)" height="40.1328" style="stroke: #A80036; stroke-width: 1.0;" width="10" x="197.5" y="648.8828"/><rect fill="#FFFFFF" filter="url(#f15w3rzwxfrkrw)" height="35.2969" style="stroke: #A80036; stroke-width: 1.0;" width="10" x="383.5" y="227.8281"/><rect fill="#FFFFFF" filter="url(#f15w3rzwxfrkrw)" height="29.1328" style="stroke: #A80036; stroke-width: 1.0;" width="10" x="383.5" y="337.5547"/><rect fill="#FFFFFF" filter="url(#f15w3rzwxfrkrw)" height="280.0625" style="stroke: #A80036; stroke-width: 1.0;" width="10" x="383.5" y="454.0859"/><rect fill="#FFFFFF" filter="url(#f15w3rzwxfrkrw)" height="40.1328" style="stroke: #A80036; stroke-width: 1.0;" width="10" x="388.5" y="564.6172"/><rect fill="#FFFFFF" filter="url(#f15w3rzwxfrkrw)" height="616.7188" style="stroke: #A80036; stroke-width: 1.0;" width="10" x="555.5" y="117.4297"/><rect fill="#FFFFFF" filter="url(#f15w3rzwxfrkrw)" height="579.5859" style="stroke: #A80036; stroke-width: 1.0;" width="10" x="560.5" y="154.5625"/><rect fill="#FFFFFF" filter="url(#f15w3rzwxfrkrw)" height="29.1328" style="stroke: #A80036; stroke-width: 1.0;" width="10" x="565.5" y="498.3516"/><rect fill="#FFFFFF" filter="url(#f15w3rzwxfrkrw)" height="545.4531" style="stroke: #A80036; stroke-width: 1.0;" width="10" x="662.5" y="188.6953"/><polygon fill="#A80036" points="543.5,113.4297,553.5,117.4297,543.5,121.4297,547.5,117.4297" style="stroke: #A80036; stroke-width: 1.0;"/><line style="stroke: #A80036; stroke-width: 1.0;" x1="26.5" x2="549.5" y1="117.4297" y2="117.4297"/><text fill="#000000" font-family="sans-serif" font-size="13" lengthAdjust="spacingAndGlyphs" textLength="58" x="33.5" y="112.3638">power on</text><line style="stroke: #A80036; stroke-width: 1.0;" x1="565.5" x2="612.5" y1="141.5625" y2="141.5625"/><line style="stroke: #A80036; stroke-width: 1.0;" x1="612.5" x2="612.5" y1="141.5625" y2="154.5625"/><line style="stroke: #A80036; stroke-width: 1.0;" x1="571.5" x2="612.5" y1="154.5625" y2="154.5625"/><polygon fill="#A80036" points="581.5,150.5625,571.5,154.5625,581.5,158.5625,577.5,154.5625" style="stroke: #A80036; stroke-width: 1.0;"/><text fill="#000000" font-family="sans-serif" font-size="13" lengthAdjust="spacingAndGlyphs" textLength="83" x="577.5" y="136.4966">boot process</text><polygon fill="#A80036" points="650.5,184.6953,660.5,188.6953,650.5,192.6953,654.5,188.6953" style="stroke: #A80036; stroke-width: 1.0;"/><line style="stroke: #A80036; stroke-width: 1.0;" x1="570.5" x2="656.5" y1="188.6953" y2="188.6953"/><text fill="#000000" font-family="sans-serif" font-size="13" lengthAdjust="spacingAndGlyphs" textLength="73" x="577.5" y="183.6294">boot loader</text><polygon fill="#A80036" points="444.5,213.8281,434.5,217.8281,444.5,221.8281,440.5,217.8281" style="stroke: #A80036; stroke-width: 1.0;"/><line style="stroke: #A80036; stroke-width: 1.0;" x1="438.5" x2="661.5" y1="217.8281" y2="217.8281"/><text fill="#000000" font-family="sans-serif" font-size="13" lengthAdjust="spacingAndGlyphs" textLength="42" x="450.5" y="212.7622">launch</text><rect fill="#FEFECE" filter="url(#f15w3rzwxfrkrw)" height="30.2969" style="stroke: #A80036; stroke-width: 1.5;" width="86" x="343.5" y="196.6953"/><text fill="#000000" font-family="sans-serif" font-size="14" lengthAdjust="spacingAndGlyphs" textLength="72" x="350.5" y="216.6904">webserver</text><polygon fill="#A80036" points="650.5,259.125,660.5,263.125,650.5,267.125,654.5,263.125" style="stroke: #A80036; stroke-width: 1.0;"/><line style="stroke: #A80036; stroke-width: 1.0; stroke-dasharray: 2.0,2.0;" x1="388.5" x2="656.5" y1="263.125" y2="263.125"/><text fill="#000000" font-family="sans-serif" font-size="13" lengthAdjust="spacingAndGlyphs" textLength="51" x="395.5" y="258.0591">success</text><polygon fill="#A80036" points="261.5,288.2578,251.5,292.2578,261.5,296.2578,257.5,292.2578" style="stroke: #A80036; stroke-width: 1.0;"/><line style="stroke: #A80036; stroke-width: 1.0;" x1="255.5" x2="661.5" y1="292.2578" y2="292.2578"/><text fill="#000000" font-family="sans-serif" font-size="13" lengthAdjust="spacingAndGlyphs" textLength="42" x="267.5" y="287.1919">launch</text><rect fill="#FEFECE" filter="url(#f15w3rzwxfrkrw)" height="30.2969" style="stroke: #A80036; stroke-width: 1.5;" width="102" x="144.5" y="271.125"/><text fill="#000000" font-family="sans-serif" font-size="14" lengthAdjust="spacingAndGlyphs" textLength="88" x="151.5" y="291.1201">webfrontend</text><polygon fill="#A80036" points="371.5,333.5547,381.5,337.5547,371.5,341.5547,375.5,337.5547" style="stroke: #A80036; stroke-width: 1.0;"/><line style="stroke: #A80036; stroke-width: 1.0;" x1="202.5" x2="377.5" y1="337.5547" y2="337.5547"/><text fill="#000000" font-family="sans-serif" font-size="13" lengthAdjust="spacingAndGlyphs" textLength="97" x="209.5" y="332.4888">request html ui</text><polygon fill="#A80036" points="213.5,362.6875,203.5,366.6875,213.5,370.6875,209.5,366.6875" style="stroke: #A80036; stroke-width: 1.0;"/><line style="stroke: #A80036; stroke-width: 1.0; stroke-dasharray: 2.0,2.0;" x1="207.5" x2="387.5" y1="366.6875" y2="366.6875"/><text fill="#000000" font-family="sans-serif" font-size="13" lengthAdjust="spacingAndGlyphs" textLength="44" x="219.5" y="361.6216">html ui</text><polygon fill="#A80036" points="650.5,391.8203,660.5,395.8203,650.5,399.8203,654.5,395.8203" style="stroke: #A80036; stroke-width: 1.0;"/><line style="stroke: #A80036; stroke-width: 1.0; stroke-dasharray: 2.0,2.0;" x1="197.5" x2="656.5" y1="395.8203" y2="395.8203"/><text fill="#000000" font-family="sans-serif" font-size="13" lengthAdjust="spacingAndGlyphs" textLength="51" x="204.5" y="390.7544">success</text><line style="stroke: #A80036; stroke-width: 1.0;" x1="190.5" x2="180.5" y1="424.9531" y2="420.9531"/><line style="stroke: #A80036; stroke-width: 1.0;" x1="190.5" x2="180.5" y1="424.9531" y2="428.9531"/><line style="stroke: #A80036; stroke-width: 1.0;" x1="26.5" x2="191.5" y1="424.9531" y2="424.9531"/><text fill="#000000" font-family="sans-serif" font-size="13" lengthAdjust="spacingAndGlyphs" textLength="147" x="33.5" y="419.8872">click on process button</text><polygon fill="#A80036" points="371.5,450.0859,381.5,454.0859,371.5,458.0859,375.5,454.0859" style="stroke: #A80036; stroke-width: 1.0;"/><line style="stroke: #A80036; stroke-width: 1.0;" x1="202.5" x2="377.5" y1="454.0859" y2="454.0859"/><text fill="#000000" font-family="sans-serif" font-size="13" lengthAdjust="spacingAndGlyphs" textLength="162" x="209.5" y="449.02">request processing result</text><polygon fill="#A80036" points="553.5,494.3516,563.5,498.3516,553.5,502.3516,557.5,498.3516" style="stroke: #A80036; stroke-width: 1.0;"/><line style="stroke: #A80036; stroke-width: 1.0;" x1="393.5" x2="559.5" y1="498.3516" y2="498.3516"/><text fill="#000000" font-family="sans-serif" font-size="13" lengthAdjust="spacingAndGlyphs" textLength="133" x="400.5" y="478.1528">request sensor state</text><text fill="#000000" font-family="sans-serif" font-size="13" lengthAdjust="spacingAndGlyphs" textLength="138" x="400.5" y="493.2856">sample (camera, etc)</text><polygon fill="#A80036" points="404.5,523.4844,394.5,527.4844,404.5,531.4844,400.5,527.4844" style="stroke: #A80036; stroke-width: 1.0;"/><line style="stroke: #A80036; stroke-width: 1.0; stroke-dasharray: 2.0,2.0;" x1="398.5" x2="559.5" y1="527.4844" y2="527.4844"/><text fill="#000000" font-family="sans-serif" font-size="13" lengthAdjust="spacingAndGlyphs" textLength="94" x="410.5" y="522.4185">sensors states</text><line style="stroke: #A80036; stroke-width: 1.0;" x1="393.5" x2="440.5" y1="551.6172" y2="551.6172"/><line style="stroke: #A80036; stroke-width: 1.0;" x1="440.5" x2="440.5" y1="551.6172" y2="564.6172"/><line style="stroke: #A80036; stroke-width: 1.0;" x1="399.5" x2="440.5" y1="564.6172" y2="564.6172"/><polygon fill="#A80036" points="409.5,560.6172,399.5,564.6172,409.5,568.6172,405.5,564.6172" style="stroke: #A80036; stroke-width: 1.0;"/><text fill="#000000" font-family="sans-serif" font-size="13" lengthAdjust="spacingAndGlyphs" textLength="141" x="405.5" y="546.5513">process sensor states</text><line style="stroke: #A80036; stroke-width: 1.0; stroke-dasharray: 2.0,2.0;" x1="398.5" x2="440.5" y1="603.75" y2="603.75"/><line style="stroke: #A80036; stroke-width: 1.0; stroke-dasharray: 2.0,2.0;" x1="440.5" x2="440.5" y1="603.75" y2="616.75"/><line style="stroke: #A80036; stroke-width: 1.0; stroke-dasharray: 2.0,2.0;" x1="393.5" x2="440.5" y1="616.75" y2="616.75"/><polygon fill="#A80036" points="403.5,612.75,393.5,616.75,403.5,620.75,399.5,616.75" style="stroke: #A80036; stroke-width: 1.0;"/><text fill="#000000" font-family="sans-serif" font-size="13" lengthAdjust="spacingAndGlyphs" textLength="36" x="405.5" y="598.6841">result</text><line style="stroke: #A80036; stroke-width: 1.0;" x1="202.5" x2="249.5" y1="635.8828" y2="635.8828"/><line style="stroke: #A80036; stroke-width: 1.0;" x1="249.5" x2="249.5" y1="635.8828" y2="648.8828"/><line style="stroke: #A80036; stroke-width: 1.0;" x1="208.5" x2="249.5" y1="648.8828" y2="648.8828"/><polygon fill="#A80036" points="218.5,644.8828,208.5,648.8828,218.5,652.8828,214.5,648.8828" style="stroke: #A80036; stroke-width: 1.0;"/><text fill="#000000" font-family="sans-serif" font-size="13" lengthAdjust="spacingAndGlyphs" textLength="121" x="214.5" y="630.8169">render into images</text><line style="stroke: #A80036; stroke-width: 1.0; stroke-dasharray: 2.0,2.0;" x1="207.5" x2="249.5" y1="688.0156" y2="688.0156"/><line style="stroke: #A80036; stroke-width: 1.0; stroke-dasharray: 2.0,2.0;" x1="249.5" x2="249.5" y1="688.0156" y2="701.0156"/><line style="stroke: #A80036; stroke-width: 1.0; stroke-dasharray: 2.0,2.0;" x1="202.5" x2="249.5" y1="701.0156" y2="701.0156"/><polygon fill="#A80036" points="212.5,697.0156,202.5,701.0156,212.5,705.0156,208.5,701.0156" style="stroke: #A80036; stroke-width: 1.0;"/><text fill="#000000" font-family="sans-serif" font-size="13" lengthAdjust="spacingAndGlyphs" textLength="47" x="214.5" y="682.9497">images</text><line style="stroke: #A80036; stroke-width: 1.0;" x1="26.5" x2="36.5" y1="725.1484" y2="721.1484"/><line style="stroke: #A80036; stroke-width: 1.0;" x1="26.5" x2="36.5" y1="725.1484" y2="729.1484"/><line style="stroke: #A80036; stroke-width: 1.0;" x1="26.5" x2="191.5" y1="725.1484" y2="725.1484"/><text fill="#000000" font-family="sans-serif" font-size="13" lengthAdjust="spacingAndGlyphs" textLength="97" x="43.5" y="720.0825">images as light</text><!--
@startuml
hide footbox
actor user
participant webfrontend
participant webserver
participant hwdevice
participant os

user -> hwdevice ++ : power on
hwdevice -> hwdevice ++: boot process
hwdevice -> os ++: boot loader
os -> webserver **: launch
activate webserver
return success
os -> webfrontend **: launch
activate webfrontend
webfrontend -> webserver ++: request html ui
return html ui
webfrontend - -> os : success
deactivate webfrontend

user ->> webfrontend ++: click on process button
webfrontend -> webserver ++: request processing result
webserver -> hwdevice ++: request sensor state\nsample (camera, etc)
return sensors states
webserver -> webserver ++: process sensor states
return result
webfrontend -> webfrontend ++: render into images
return images
webfrontend ->> user: images as light
@enduml

PlantUML version 1.2019.08(Sat Jul 13 15:25:14 EDT 2019)
(GPL source distribution)
Java Runtime: OpenJDK Runtime Environment
JVM: OpenJDK 64-Bit Server VM
Java Version: 1.8.0_222-ga
Operating System: Linux
OS Version: 4.14.154
Default Encoding: UTF-8
Language: en
Country: GB
--></g></svg>