<?xml version="1.0" encoding="UTF-8" standalone="no"?><svg xmlns="http://www.w3.org/2000/svg" xmlns:xlink="http://www.w3.org/1999/xlink" contentScriptType="application/ecmascript" contentStyleType="text/css" height="359px" preserveAspectRatio="none" style="width:427px;height:359px;" version="1.1" viewBox="0 0 427 359" width="427px" zoomAndPan="magnify"><defs><filter height="300%" id="f1png5iaz3je27" width="300%" x="-1" y="-1"><feGaussianBlur result="blurOut" stdDeviation="2.0"/><feColorMatrix in="blurOut" result="blurOut2" type="matrix" values="0 0 0 0 0 0 0 0 0 0 0 0 0 0 0 0 0 0 .4 0"/><feOffset dx="4.0" dy="4.0" in="blurOut2" result="blurOut3"/><feBlend in="SourceGraphic" in2="blurOut3" mode="normal"/></filter></defs><g><!--class Animal--><rect fill="#FEFECE" filter="url(#f1png5iaz3je27)" height="73.6094" id="Animal" style="stroke: #A80036; stroke-width: 1.5;" width="118" x="184.0696" y="8"/><ellipse cx="219.3196" cy="24" fill="#B4A7E5" rx="11" ry="11" style="stroke: #A80036; stroke-width: 1.0;"/><path d="M215.8196,20 L215.8196,18 L222.8196,18 L222.8196,20 L220.8196,20 L220.8196,28 L222.8196,28 L222.8196,30 L215.8196,30 L215.8196,28 L217.8196,28 L217.8196,20 L215.8196,20 Z "/><text fill="#000000" font-family="sans-serif" font-size="12" font-style="italic" lengthAdjust="spacingAndGlyphs" textLength="41" x="237.8196" y="28.1543">Animal</text><line style="stroke: #A80036; stroke-width: 1.5;" x1="185.0696" x2="301.0696" y1="40" y2="40"/><line style="stroke: #A80036; stroke-width: 1.5;" x1="185.0696" x2="301.0696" y1="48" y2="48"/><ellipse cx="195.0696" cy="59.9023" fill="#84BE84" rx="3" ry="3" style="stroke: #038048; stroke-width: 1.0;"/><text fill="#000000" font-family="sans-serif" font-size="11" lengthAdjust="spacingAndGlyphs" textLength="88" x="204.0696" y="62.2104">get_name(): str</text><ellipse cx="195.0696" cy="72.707" fill="#84BE84" rx="3" ry="3" style="stroke: #038048; stroke-width: 1.0;"/><text fill="#000000" font-family="sans-serif" font-size="11" lengthAdjust="spacingAndGlyphs" textLength="92" x="204.0696" y="75.0151">get_legs(): Leg[]</text><!--class Leg--><rect fill="#FEFECE" filter="url(#f1png5iaz3je27)" height="48" id="Leg" style="stroke: #A80036; stroke-width: 1.5;" width="54" x="193.0696" y="300"/><ellipse cx="208.0696" cy="316" fill="#ADD1B2" rx="11" ry="11" style="stroke: #A80036; stroke-width: 1.0;"/><path d="M211.0696,321 Q210.4602,321.5 209.804,321.75 Q209.1477,322 208.4134,322 Q205.804,322 204.4368,320.4609 Q203.0696,318.9219 203.0696,316 Q203.0696,313.0781 204.4368,311.5391 Q205.804,310 208.4134,310 Q209.1477,310 209.8196,310.25 Q210.4915,310.5 211.0696,311 L211.0696,314 Q210.4602,312.9688 209.8821,312.4844 Q209.304,312 208.6946,312 Q207.3977,312 206.7337,313.0078 Q206.0696,314.0156 206.0696,316 Q206.0696,317.9844 206.7337,318.9922 Q207.3977,320 208.6946,320 Q209.304,320 209.8821,319.5156 Q210.4602,319.0313 211.0696,318 L211.0696,321 Z "/><text fill="#000000" font-family="sans-serif" font-size="12" lengthAdjust="spacingAndGlyphs" textLength="22" x="222.0696" y="320.1543">Leg</text><line style="stroke: #A80036; stroke-width: 1.5;" x1="194.0696" x2="246.0696" y1="332" y2="332"/><line style="stroke: #A80036; stroke-width: 1.5;" x1="194.0696" x2="246.0696" y1="340" y2="340"/><!--class Fin--><rect fill="#FEFECE" filter="url(#f1png5iaz3je27)" height="48" id="Fin" style="stroke: #A80036; stroke-width: 1.5;" width="50" x="285.0696" y="300"/><ellipse cx="300.0696" cy="316" fill="#ADD1B2" rx="11" ry="11" style="stroke: #A80036; stroke-width: 1.0;"/><path d="M303.0696,321 Q302.4602,321.5 301.804,321.75 Q301.1477,322 300.4134,322 Q297.804,322 296.4368,320.4609 Q295.0696,318.9219 295.0696,316 Q295.0696,313.0781 296.4368,311.5391 Q297.804,310 300.4134,310 Q301.1477,310 301.8196,310.25 Q302.4915,310.5 303.0696,311 L303.0696,314 Q302.4602,312.9688 301.8821,312.4844 Q301.304,312 300.6946,312 Q299.3977,312 298.7337,313.0078 Q298.0696,314.0156 298.0696,316 Q298.0696,317.9844 298.7337,318.9922 Q299.3977,320 300.6946,320 Q301.304,320 301.8821,319.5156 Q302.4602,319.0313 303.0696,318 L303.0696,321 Z "/><text fill="#000000" font-family="sans-serif" font-size="12" lengthAdjust="spacingAndGlyphs" textLength="18" x="314.0696" y="320.1543">Fin</text><line style="stroke: #A80036; stroke-width: 1.5;" x1="286.0696" x2="334.0696" y1="332" y2="332"/><line style="stroke: #A80036; stroke-width: 1.5;" x1="286.0696" x2="334.0696" y1="340" y2="340"/><!--class Dog--><rect fill="#FEFECE" filter="url(#f1png5iaz3je27)" height="60.8047" id="Dog" style="stroke: #A80036; stroke-width: 1.5;" width="66" x="166.0696" y="160.5"/><ellipse cx="185.1196" cy="176.5" fill="#ADD1B2" rx="11" ry="11" style="stroke: #A80036; stroke-width: 1.0;"/><path d="M188.1196,181.5 Q187.5102,182 186.854,182.25 Q186.1977,182.5 185.4634,182.5 Q182.854,182.5 181.4868,180.9609 Q180.1196,179.4219 180.1196,176.5 Q180.1196,173.5781 181.4868,172.0391 Q182.854,170.5 185.4634,170.5 Q186.1977,170.5 186.8696,170.75 Q187.5415,171 188.1196,171.5 L188.1196,174.5 Q187.5102,173.4688 186.9321,172.9844 Q186.354,172.5 185.7446,172.5 Q184.4477,172.5 183.7837,173.5078 Q183.1196,174.5156 183.1196,176.5 Q183.1196,178.4844 183.7837,179.4922 Q184.4477,180.5 185.7446,180.5 Q186.354,180.5 186.9321,180.0156 Q187.5102,179.5313 188.1196,178.5 L188.1196,181.5 Z "/><text fill="#000000" font-family="sans-serif" font-size="12" lengthAdjust="spacingAndGlyphs" textLength="25" x="200.0196" y="180.6543">Dog</text><line style="stroke: #A80036; stroke-width: 1.5;" x1="167.0696" x2="231.0696" y1="192.5" y2="192.5"/><line style="stroke: #A80036; stroke-width: 1.5;" x1="167.0696" x2="231.0696" y1="200.5" y2="200.5"/><ellipse cx="177.0696" cy="212.4023" fill="#84BE84" rx="3" ry="3" style="stroke: #038048; stroke-width: 1.0;"/><text fill="#000000" font-family="sans-serif" font-size="11" lengthAdjust="spacingAndGlyphs" textLength="40" x="186.0696" y="214.7104">barks()</text><!--class Master:--><rect fill="#FEFECE" filter="url(#f1png5iaz3je27)" height="60.8047" id="Master:" style="stroke: #A80036; stroke-width: 1.5;" width="79" x="337.8196" y="14.5"/><ellipse cx="352.8196" cy="30.5" fill="#ADD1B2" rx="11" ry="11" style="stroke: #A80036; stroke-width: 1.0;"/><path d="M355.8196,35.5 Q355.2102,36 354.554,36.25 Q353.8977,36.5 353.1634,36.5 Q350.554,36.5 349.1868,34.9609 Q347.8196,33.4219 347.8196,30.5 Q347.8196,27.5781 349.1868,26.0391 Q350.554,24.5 353.1634,24.5 Q353.8977,24.5 354.5696,24.75 Q355.2415,25 355.8196,25.5 L355.8196,28.5 Q355.2102,27.4688 354.6321,26.9844 Q354.054,26.5 353.4446,26.5 Q352.1477,26.5 351.4837,27.5078 Q350.8196,28.5156 350.8196,30.5 Q350.8196,32.4844 351.4837,33.4922 Q352.1477,34.5 353.4446,34.5 Q354.054,34.5 354.6321,34.0156 Q355.2102,33.5313 355.8196,32.5 L355.8196,35.5 Z "/><text fill="#000000" font-family="sans-serif" font-size="12" lengthAdjust="spacingAndGlyphs" textLength="47" x="366.8196" y="34.6543">Master:</text><line style="stroke: #A80036; stroke-width: 1.5;" x1="338.8196" x2="415.8196" y1="46.5" y2="46.5"/><line style="stroke: #A80036; stroke-width: 1.5;" x1="338.8196" x2="415.8196" y1="54.5" y2="54.5"/><ellipse cx="348.8196" cy="66.4023" fill="#84BE84" rx="3" ry="3" style="stroke: #038048; stroke-width: 1.0;"/><text fill="#000000" font-family="sans-serif" font-size="11" lengthAdjust="spacingAndGlyphs" textLength="27" x="357.8196" y="68.7104">run()</text><!--class Dolphin--><rect fill="#FEFECE" filter="url(#f1png5iaz3je27)" height="48" id="Dolphin" style="stroke: #A80036; stroke-width: 1.5;" width="79" x="270.8196" y="167"/><ellipse cx="285.8196" cy="183" fill="#ADD1B2" rx="11" ry="11" style="stroke: #A80036; stroke-width: 1.0;"/><path d="M288.8196,188 Q288.2102,188.5 287.554,188.75 Q286.8977,189 286.1634,189 Q283.554,189 282.1868,187.4609 Q280.8196,185.9219 280.8196,183 Q280.8196,180.0781 282.1868,178.5391 Q283.554,177 286.1634,177 Q286.8977,177 287.5696,177.25 Q288.2415,177.5 288.8196,178 L288.8196,181 Q288.2102,179.9688 287.6321,179.4844 Q287.054,179 286.4446,179 Q285.1477,179 284.4837,180.0078 Q283.8196,181.0156 283.8196,183 Q283.8196,184.9844 284.4837,185.9922 Q285.1477,187 286.4446,187 Q287.054,187 287.6321,186.5156 Q288.2102,186.0313 288.8196,185 L288.8196,188 Z "/><text fill="#000000" font-family="sans-serif" font-size="12" lengthAdjust="spacingAndGlyphs" textLength="47" x="299.8196" y="187.1543">Dolphin</text><line style="stroke: #A80036; stroke-width: 1.5;" x1="271.8196" x2="348.8196" y1="199" y2="199"/><line style="stroke: #A80036; stroke-width: 1.5;" x1="271.8196" x2="348.8196" y1="207" y2="207"/><!--class Lion--><rect fill="#FEFECE" filter="url(#f1png5iaz3je27)" height="48" id="Lion" style="stroke: #A80036; stroke-width: 1.5;" width="57" x="24.8196" y="21"/><ellipse cx="39.8196" cy="37" fill="#ADD1B2" rx="11" ry="11" style="stroke: #A80036; stroke-width: 1.0;"/><path d="M42.8196,42 Q42.2102,42.5 41.554,42.75 Q40.8977,43 40.1634,43 Q37.554,43 36.1868,41.4609 Q34.8196,39.9219 34.8196,37 Q34.8196,34.0781 36.1868,32.5391 Q37.554,31 40.1634,31 Q40.8977,31 41.5696,31.25 Q42.2415,31.5 42.8196,32 L42.8196,35 Q42.2102,33.9688 41.6321,33.4844 Q41.054,33 40.4446,33 Q39.1477,33 38.4837,34.0078 Q37.8196,35.0156 37.8196,37 Q37.8196,38.9844 38.4837,39.9922 Q39.1477,41 40.4446,41 Q41.054,41 41.6321,40.5156 Q42.2102,40.0313 42.8196,39 L42.8196,42 Z "/><text fill="#000000" font-family="sans-serif" font-size="12" lengthAdjust="spacingAndGlyphs" textLength="25" x="53.8196" y="41.1543">Lion</text><line style="stroke: #A80036; stroke-width: 1.5;" x1="25.8196" x2="80.8196" y1="53" y2="53"/><line style="stroke: #A80036; stroke-width: 1.5;" x1="25.8196" x2="80.8196" y1="61" y2="61"/><!--class Master--><rect fill="#FEFECE" filter="url(#f1png5iaz3je27)" height="48" id="Master" style="stroke: #A80036; stroke-width: 1.5;" width="75" x="7.8196" y="300"/><ellipse cx="22.8196" cy="316" fill="#ADD1B2" rx="11" ry="11" style="stroke: #A80036; stroke-width: 1.0;"/><path d="M25.8196,321 Q25.2102,321.5 24.554,321.75 Q23.8977,322 23.1634,322 Q20.554,322 19.1868,320.4609 Q17.8196,318.9219 17.8196,316 Q17.8196,313.0781 19.1868,311.5391 Q20.554,310 23.1634,310 Q23.8977,310 24.5696,310.25 Q25.2415,310.5 25.8196,311 L25.8196,314 Q25.2102,312.9688 24.6321,312.4844 Q24.054,312 23.4446,312 Q22.1477,312 21.4837,313.0078 Q20.8196,314.0156 20.8196,316 Q20.8196,317.9844 21.4837,318.9922 Q22.1477,320 23.4446,320 Q24.054,320 24.6321,319.5156 Q25.2102,319.0313 25.8196,318 L25.8196,321 Z "/><text fill="#000000" font-family="sans-serif" font-size="12" lengthAdjust="spacingAndGlyphs" textLength="43" x="36.8196" y="320.1543">Master</text><line style="stroke: #A80036; stroke-width: 1.5;" x1="8.8196" x2="81.8196" y1="332" y2="332"/><line style="stroke: #A80036; stroke-width: 1.5;" x1="8.8196" x2="81.8196" y1="340" y2="340"/><!--link Animal to Dog--><path d="M223.4736,101.293 C222.2936,104.907 221.1496,108.5 220.0696,112 C215.1926,127.813 210.3496,145.621 206.5456,160.224 " fill="none" id="Animal-Dog" style="stroke: #A80036; stroke-width: 1.0;"/><polygon fill="none" points="216.9066,98.861,229.9416,82.155,230.1696,103.343,216.9066,98.861" style="stroke: #A80036; stroke-width: 1.0;"/><text fill="#000000" font-family="sans-serif" font-size="13" lengthAdjust="spacingAndGlyphs" textLength="47" x="221.0696" y="125.0669">inherits</text><!--link Animal to Dolphin--><path d="M268.6746,100.438 C270.5036,104.35 272.3166,108.234 274.0696,112 C282.6316,130.388 292.2566,151.252 299.3986,166.773 " fill="none" id="Animal-Dolphin" style="stroke: #A80036; stroke-width: 1.0;"/><polygon fill="none" points="262.3176,103.371,260.1686,82.29,274.9946,97.429,262.3176,103.371" style="stroke: #A80036; stroke-width: 1.0;"/><text fill="#000000" font-family="sans-serif" font-size="13" lengthAdjust="spacingAndGlyphs" textLength="47" x="283.0696" y="125.0669">inherits</text><!--link Lion to Animal--><path d="M81.5145,45 C103.2786,45 134.4086,45 163.5426,45 " fill="none" id="Lion-Animal" style="stroke: #A80036; stroke-width: 1.0;"/><polygon fill="none" points="163.7466,38,183.7466,45,163.7466,52,163.7466,38" style="stroke: #A80036; stroke-width: 1.0;"/><text fill="#000000" font-family="sans-serif" font-size="13" lengthAdjust="spacingAndGlyphs" textLength="47" x="108.5696" y="37.0669">inherits</text><!--link Lion to Dog--><path d="M65.8122,80.2337 C65.8122,80.2337 83.9032,116.169 97.0696,130 C113.1406,146.882 135.0006,160.585 154.3616,170.611 " fill="none" id="Lion-Dog" style="stroke: #A80036; stroke-width: 1.0;"/><polygon fill="#A80036" points="166.0196,176.374,159.7243,168.7998,161.5374,174.1582,156.179,175.9713,166.0196,176.374" style="stroke: #A80036; stroke-width: 1.0;"/><line style="stroke: #A80036; stroke-width: 1.0;" x1="161.5374" x2="154.3661" y1="174.1582" y2="170.613"/><polygon fill="#FFFFFF" points="61.1321,69.184,59.7889,76.2689,65.8122,80.2337,67.1554,73.1488,61.1321,69.184" style="stroke: #A80036; stroke-width: 1.0;"/><text fill="#000000" font-family="sans-serif" font-size="13" lengthAdjust="spacingAndGlyphs" textLength="107" x="98.0696" y="125.0669">hold in its mouth</text><text fill="#000000" font-family="sans-serif" font-size="13" lengthAdjust="spacingAndGlyphs" textLength="21" x="137.1979" y="168.9248">0-1</text><!--link Lion to Master--><path d="M47.2766,80.9113 C47.2766,80.9113 39.7878,133.772 38.0696,160 C36.2684,187.497 37.1164,194.461 38.0696,222 C38.8133,243.486 40.4442,267.4964 41.9449,286.7145 " fill="none" id="Lion-Master" style="stroke: #A80036; stroke-width: 1.0;"/><polygon fill="#A80036" points="43,299.7567,46.2612,290.4635,42.5968,294.773,38.2873,291.1086,43,299.7567" style="stroke: #A80036; stroke-width: 1.0;"/><line style="stroke: #A80036; stroke-width: 1.0;" x1="42.5968" x2="41.9517" y1="294.773" y2="286.799"/><polygon fill="#FFFFFF" points="49.1346,69.056,44.2538,74.3643,47.2766,80.9113,52.1574,75.603,49.1346,69.056" style="stroke: #A80036; stroke-width: 1.0;"/><text fill="#000000" font-family="sans-serif" font-size="13" lengthAdjust="spacingAndGlyphs" textLength="107" x="39.0696" y="195.0669">hold in its mouth</text><text fill="#000000" font-family="sans-serif" font-size="13" lengthAdjust="spacingAndGlyphs" textLength="21" x="18.1497" y="289.084">0-1</text><!--link Dog to Leg--><path d="M205.7334,233.5748 C205.7334,233.5748 211.6556,270.5154 214.2406,286.6374 " fill="none" id="Dog-Leg" style="stroke: #A80036; stroke-width: 1.0;"/><polygon fill="#A80036" points="216.3686,299.9119,218.8937,290.3922,215.5772,294.9749,210.9946,291.6584,216.3686,299.9119" style="stroke: #A80036; stroke-width: 1.0;"/><line style="stroke: #A80036; stroke-width: 1.0;" x1="215.5772" x2="214.3106" y1="294.9749" y2="287.0758"/><polygon fill="#A80036" points="203.8346,221.726,200.8344,228.2833,205.7334,233.5748,208.7336,227.0175,203.8346,221.726" style="stroke: #A80036; stroke-width: 1.0;"/><text fill="#000000" font-family="sans-serif" font-size="13" lengthAdjust="spacingAndGlyphs" textLength="23" x="213.0696" y="265.0669">has</text><text fill="#000000" font-family="sans-serif" font-size="13" lengthAdjust="spacingAndGlyphs" textLength="8" x="205.4653" y="288.8647">4</text><!--link Dolphin to Leg--><path d="M287.3918,225.0099 C287.3918,225.0099 256.8546,269.4577 243.5166,288.8709 " fill="none" id="Dolphin-Leg" style="stroke: #A80036; stroke-width: 1.0;"/><polygon fill="#A80036" points="236.0966,299.6719,244.4897,294.5186,238.9278,295.5507,237.8957,289.9888,236.0966,299.6719" style="stroke: #A80036; stroke-width: 1.0;"/><line style="stroke: #A80036; stroke-width: 1.0;" x1="238.9278" x2="243.4581" y1="295.5507" y2="288.9569"/><polygon fill="#A80036" points="294.1866,215.119,287.4922,217.7995,287.3918,225.0099,294.0862,222.3294,294.1866,215.119" style="stroke: #A80036; stroke-width: 1.0;"/><text fill="#000000" font-family="sans-serif" font-size="13" lengthAdjust="spacingAndGlyphs" textLength="8" x="229.3709" y="288.9817">0</text><!--link Dolphin to Fin--><path d="M310.0696,227.119 C310.0696,227.119 310.0696,268.4884 310.0696,286.6439 " fill="none" id="Dolphin-Fin" style="stroke: #A80036; stroke-width: 1.0;"/><polygon fill="#A80036" points="310.0696,299.6719,314.0696,290.6719,310.0696,294.6719,306.0696,290.6719,310.0696,299.6719" style="stroke: #A80036; stroke-width: 1.0;"/><line style="stroke: #A80036; stroke-width: 1.0;" x1="310.0696" x2="310.0696" y1="294.6719" y2="286.6719"/><polygon fill="#A80036" points="310.0696,215.119,306.0696,221.119,310.0696,227.119,314.0696,221.119,310.0696,215.119" style="stroke: #A80036; stroke-width: 1.0;"/><text fill="#000000" font-family="sans-serif" font-size="13" lengthAdjust="spacingAndGlyphs" textLength="8" x="300.0384" y="288.9817">1</text><!--link Dog to Master--><path d="M165.6436,209.646 C146.5856,220.529 122.8356,235.529 104.0696,252 C89.3332,264.9347 75.2068,281.7222 64.4731,295.7258 " fill="none" id="Dog-Master" style="stroke: #A80036; stroke-width: 1.0; stroke-dasharray: 7.0,7.0;"/><polygon fill="#A80036" points="61.2539,299.975,69.877,295.2166,64.2732,295.9895,63.5003,290.3857,61.2539,299.975" style="stroke: #A80036; stroke-width: 1.0;"/><text fill="#000000" font-family="sans-serif" font-size="13" lengthAdjust="spacingAndGlyphs" textLength="94" x="105.0696" y="265.0669">depends on its</text><!--
@startuml
interface Animal {
    +get_name(): str
    +get_legs(): Leg[]
}

class Leg
class Fin
class Dog {
    +barks()
}
class Master: {
    +run()
}

Animal <|- - Dog: inherits
Animal <|- - Dolphin: inherits
Lion -|> Animal: inherits

Lion o- -> "0-1" Dog: hold in its mouth
Lion o- -> "0-1" Master: hold in its mouth
Dog *- -> "4" Leg: has
Dolphin *- -> "0" Leg
Dolphin *- -> "1" Fin

Dog ..> Master: depends on its
@enduml

PlantUML version 1.2019.08(Sat Jul 13 15:25:14 EDT 2019)
(GPL source distribution)
Java Runtime: OpenJDK Runtime Environment
JVM: OpenJDK 64-Bit Server VM
Java Version: 1.8.0_222-ga
Operating System: Linux
OS Version: 4.14.154
Default Encoding: UTF-8
Language: en
Country: GB
--></g></svg>