<?xml version="1.0" encoding="UTF-8" standalone="no"?><svg xmlns="http://www.w3.org/2000/svg" xmlns:xlink="http://www.w3.org/1999/xlink" contentScriptType="application/ecmascript" contentStyleType="text/css" height="214px" preserveAspectRatio="none" style="width:149px;height:214px;" version="1.1" viewBox="0 0 149 214" width="149px" zoomAndPan="magnify"><defs><filter height="300%" id="fhd48812i10fw" width="300%" x="-1" y="-1"><feGaussianBlur result="blurOut" stdDeviation="2.0"/><feColorMatrix in="blurOut" result="blurOut2" type="matrix" values="0 0 0 0 0 0 0 0 0 0 0 0 0 0 0 0 0 0 .4 0"/><feOffset dx="4.0" dy="4.0" in="blurOut2" result="blurOut3"/><feBlend in="SourceGraphic" in2="blurOut3" mode="normal"/></filter></defs><g><!--class Object--><rect fill="#FEFECE" filter="url(#fhd48812i10fw)" height="60.8047" id="Object" style="stroke: #A80036; stroke-width: 1.5;" width="72" x="36" y="8.5"/><ellipse cx="51" cy="24.5" fill="#ADD1B2" rx="11" ry="11" style="stroke: #A80036; stroke-width: 1.0;"/><path d="M54,29.5 Q53.3906,30 52.7344,30.25 Q52.0781,30.5 51.3438,30.5 Q48.7344,30.5 47.3672,28.9609 Q46,27.4219 46,24.5 Q46,21.5781 47.3672,20.0391 Q48.7344,18.5 51.3438,18.5 Q52.0781,18.5 52.75,18.75 Q53.4219,19 54,19.5 L54,22.5 Q53.3906,21.4688 52.8125,20.9844 Q52.2344,20.5 51.625,20.5 Q50.3281,20.5 49.6641,21.5078 Q49,22.5156 49,24.5 Q49,26.4844 49.6641,27.4922 Q50.3281,28.5 51.625,28.5 Q52.2344,28.5 52.8125,28.0156 Q53.3906,27.5313 54,26.5 L54,29.5 Z "/><text fill="#000000" font-family="sans-serif" font-size="12" lengthAdjust="spacingAndGlyphs" textLength="40" x="65" y="28.6543">Object</text><line style="stroke: #A80036; stroke-width: 1.5;" x1="37" x2="107" y1="40.5" y2="40.5"/><line style="stroke: #A80036; stroke-width: 1.5;" x1="37" x2="107" y1="48.5" y2="48.5"/><text fill="#000000" font-family="sans-serif" font-size="11" lengthAdjust="spacingAndGlyphs" textLength="46" x="42" y="62.7104">equals()</text><!--class ArrayList--><rect fill="#FEFECE" filter="url(#fhd48812i10fw)" height="73.6094" id="ArrayList" style="stroke: #A80036; stroke-width: 1.5;" width="132" x="6" y="130"/><ellipse cx="42.15" cy="146" fill="#ADD1B2" rx="11" ry="11" style="stroke: #A80036; stroke-width: 1.0;"/><path d="M45.15,151 Q44.5406,151.5 43.8844,151.75 Q43.2281,152 42.4938,152 Q39.8844,152 38.5172,150.4609 Q37.15,148.9219 37.15,146 Q37.15,143.0781 38.5172,141.5391 Q39.8844,140 42.4938,140 Q43.2281,140 43.9,140.25 Q44.5719,140.5 45.15,141 L45.15,144 Q44.5406,142.9688 43.9625,142.4844 Q43.3844,142 42.775,142 Q41.4781,142 40.8141,143.0078 Q40.15,144.0156 40.15,146 Q40.15,147.9844 40.8141,148.9922 Q41.4781,150 42.775,150 Q43.3844,150 43.9625,149.5156 Q44.5406,149.0313 45.15,148 L45.15,151 Z "/><text fill="#000000" font-family="sans-serif" font-size="12" lengthAdjust="spacingAndGlyphs" textLength="53" x="60.85" y="150.1543">ArrayList</text><line style="stroke: #A80036; stroke-width: 1.5;" x1="7" x2="137" y1="162" y2="162"/><text fill="#000000" font-family="sans-serif" font-size="11" lengthAdjust="spacingAndGlyphs" textLength="120" x="12" y="176.2104">Object[] elementData</text><line style="stroke: #A80036; stroke-width: 1.5;" x1="7" x2="137" y1="182.8047" y2="182.8047"/><text fill="#000000" font-family="sans-serif" font-size="11" lengthAdjust="spacingAndGlyphs" textLength="30" x="12" y="197.0151">size()</text><!--link Object to ArrayList--><path d="M72,89.597 C72,103.046 72,117.3489 72,129.8987 " fill="none" id="Object-ArrayList" style="stroke: #A80036; stroke-width: 1.0;"/><polygon fill="none" points="65.0001,89.541,72,69.541,79.0001,89.541,65.0001,89.541" style="stroke: #A80036; stroke-width: 1.0;"/><!--
@startuml
Object <|- - ArrayList

Object : equals()
ArrayList : Object[] elementData
ArrayList : size()

@enduml

PlantUML version 1.2019.08(Sat Jul 13 15:25:14 EDT 2019)
(GPL source distribution)
Java Runtime: OpenJDK Runtime Environment
JVM: OpenJDK 64-Bit Server VM
Java Version: 1.8.0_222-ga
Operating System: Linux
OS Version: 4.19.84
Default Encoding: UTF-8
Language: en
Country: GB
--></g></svg>