<?xml version="1.0" encoding="UTF-8" standalone="no"?><svg xmlns="http://www.w3.org/2000/svg" xmlns:xlink="http://www.w3.org/1999/xlink" contentScriptType="application/ecmascript" contentStyleType="text/css" height="945px" preserveAspectRatio="none" style="width:661px;height:945px;" version="1.1" viewBox="0 0 661 945" width="661px" zoomAndPan="magnify"><defs><filter height="300%" id="f1d2nmuyl2ztfo" width="300%" x="-1" y="-1"><feGaussianBlur result="blurOut" stdDeviation="2.0"/><feColorMatrix in="blurOut" result="blurOut2" type="matrix" values="0 0 0 0 0 0 0 0 0 0 0 0 0 0 0 0 0 0 .4 0"/><feOffset dx="4.0" dy="4.0" in="blurOut2" result="blurOut3"/><feBlend in="SourceGraphic" in2="blurOut3" mode="normal"/></filter></defs><g><rect fill="#FEFECE" filter="url(#f1d2nmuyl2ztfo)" height="50" rx="12.5" ry="12.5" style="stroke: #A80036; stroke-width: 1.5;" width="116" x="336.872" y="8"/><line style="stroke: #A80036; stroke-width: 1.5;" x1="336.872" x2="452.872" y1="34.2969" y2="34.2969"/><text fill="#000000" font-family="sans-serif" font-size="14" lengthAdjust="spacingAndGlyphs" textLength="96" x="346.872" y="25.9951">Awaiting input</text><rect fill="#FEFECE" filter="url(#f1d2nmuyl2ztfo)" height="50" rx="12.5" ry="12.5" style="stroke: #A80036; stroke-width: 1.5;" width="160" x="254.372" y="136"/><line style="stroke: #A80036; stroke-width: 1.5;" x1="254.372" x2="414.372" y1="162.2969" y2="162.2969"/><text fill="#000000" font-family="sans-serif" font-size="14" lengthAdjust="spacingAndGlyphs" textLength="140" x="264.372" y="153.9951">Looking for matches</text><rect fill="#FEFECE" filter="url(#f1d2nmuyl2ztfo)" height="50" rx="12.5" ry="12.5" style="stroke: #A80036; stroke-width: 1.5;" width="164" x="51.3725" y="786"/><line style="stroke: #A80036; stroke-width: 1.5;" x1="51.3725" x2="215.3725" y1="812.2969" y2="812.2969"/><text fill="#000000" font-family="sans-serif" font-size="14" lengthAdjust="spacingAndGlyphs" textLength="144" x="61.3725" y="803.9951">Processing selection</text><ellipse cx="291.372" cy="33" fill="#000000" filter="url(#f1d2nmuyl2ztfo)" rx="10" ry="10" style="stroke: none; stroke-width: 1.0;"/><ellipse cx="395.372" cy="924" fill="none" filter="url(#f1d2nmuyl2ztfo)" rx="10" ry="10" style="stroke: #000000; stroke-width: 1.0;"/><ellipse cx="395.872" cy="924.5" fill="#000000" rx="6" ry="6" style="stroke: none; stroke-width: 1.0;"/><rect fill="#FEFECE" filter="url(#f1d2nmuyl2ztfo)" height="444.2969" rx="12.5" ry="12.5" style="stroke: #A80036; stroke-width: 1.5;" width="346" x="175.372" y="264"/><rect fill="#FFFFFF" height="412" rx="12.5" ry="12.5" style="stroke: #FFFFFF; stroke-width: 1.0;" width="340" x="178.372" y="293.2969"/><line style="stroke: #A80036; stroke-width: 1.5;" x1="175.372" x2="521.372" y1="290.2969" y2="290.2969"/><text fill="#000000" font-family="sans-serif" font-size="14" lengthAdjust="spacingAndGlyphs" textLength="45" x="325.872" y="281.9951">State3</text><rect fill="#FEFECE" filter="url(#f1d2nmuyl2ztfo)" height="50.2656" rx="12.5" ry="12.5" style="stroke: #A80036; stroke-width: 1.5;" width="254" x="206.2162" y="361.2969"/><line style="stroke: #A80036; stroke-width: 1.5;" x1="206.2162" x2="460.2162" y1="387.5938" y2="387.5938"/><text fill="#000000" font-family="sans-serif" font-size="14" lengthAdjust="spacingAndGlyphs" textLength="234" x="216.2162" y="379.292">Awaiting interactive user selection</text><text fill="#000000" font-family="sans-serif" font-size="12" lengthAdjust="spacingAndGlyphs" textLength="66" x="211.2162" y="403.7324">2 matches</text><ellipse cx="333.216" cy="313.2969" fill="#000000" filter="url(#f1d2nmuyl2ztfo)" rx="10" ry="10" style="stroke: none; stroke-width: 1.0;"/><rect fill="#FEFECE" filter="url(#f1d2nmuyl2ztfo)" height="50" rx="12.5" ry="12.5" style="stroke: #A80036; stroke-width: 1.5;" width="137" x="264.9662" y="465.2969"/><line style="stroke: #A80036; stroke-width: 1.5;" x1="264.9662" x2="401.9662" y1="491.5938" y2="491.5938"/><text fill="#000000" font-family="sans-serif" font-size="14" lengthAdjust="spacingAndGlyphs" textLength="117" x="274.9662" y="483.292">CursorOnMatch1</text><rect fill="#FEFECE" filter="url(#f1d2nmuyl2ztfo)" height="50" rx="12.5" ry="12.5" style="stroke: #A80036; stroke-width: 1.5;" width="137" x="264.9662" y="569.2969"/><line style="stroke: #A80036; stroke-width: 1.5;" x1="264.9662" x2="401.9662" y1="595.5938" y2="595.5938"/><text fill="#000000" font-family="sans-serif" font-size="14" lengthAdjust="spacingAndGlyphs" textLength="117" x="274.9662" y="587.292">CursorOnMatch2</text><ellipse cx="333.216" cy="683.2969" fill="none" filter="url(#f1d2nmuyl2ztfo)" rx="10" ry="10" style="stroke: #000000; stroke-width: 1.0;"/><ellipse cx="333.716" cy="683.7969" fill="#000000" rx="6" ry="6" style="stroke: none; stroke-width: 1.0;"/><!--link *start*State3 to State3A--><path d="M333.216,323.5789 C333.216,331.7929 333.216,344.2389 333.216,355.8079 " fill="none" id="*start*State3-State3A" style="stroke: #A80036; stroke-width: 1.0;"/><polygon fill="#A80036" points="333.216,361.0429,337.216,352.0429,333.216,356.0429,329.216,352.0429,333.216,361.0429" style="stroke: #A80036; stroke-width: 1.0;"/><!--link State3A to State3B--><path d="M333.216,411.4699 C333.216,425.9719 333.216,444.5199 333.216,459.8709 " fill="none" id="State3A-State3B" style="stroke: #A80036; stroke-width: 1.0;"/><polygon fill="#A80036" points="333.216,464.9439,337.216,455.9439,333.216,459.9439,329.216,455.9439,333.216,464.9439" style="stroke: #A80036; stroke-width: 1.0;"/><text fill="#000000" font-family="sans-serif" font-size="13" lengthAdjust="spacingAndGlyphs" textLength="73" x="334.216" y="442.3638">Arrow down</text><!--link State3B to State3C--><path d="M333.216,515.4699 C333.216,529.9719 333.216,548.5199 333.216,563.8709 " fill="none" id="State3B-State3C" style="stroke: #A80036; stroke-width: 1.0;"/><polygon fill="#A80036" points="333.216,568.9439,337.216,559.9439,333.216,563.9439,329.216,559.9439,333.216,568.9439" style="stroke: #A80036; stroke-width: 1.0;"/><text fill="#000000" font-family="sans-serif" font-size="13" lengthAdjust="spacingAndGlyphs" textLength="73" x="334.216" y="546.3638">Arrow down</text><!--link State3C to *end*State3--><path d="M264.7492,602.441 C217.9656,610.0908 168.5526,625.4223 193.2162,655.2969 C208.9329,674.3342 285.1476,680.0967 318.046,681.7134 " fill="none" id="State3C-*end*State3" style="stroke: #A80036; stroke-width: 1.0;"/><polygon fill="#A80036" points="323.301,681.9542,314.4933,677.5469,318.3062,681.7256,314.1276,685.5386,323.301,681.9542" style="stroke: #A80036; stroke-width: 1.0;"/><text fill="#000000" font-family="sans-serif" font-size="13" lengthAdjust="spacingAndGlyphs" textLength="115" x="194.2162" y="650.3638">Enter key pressed</text><!--link State3C to *end*State3--><path d="M333.216,619.5313 C333.216,635.017 333.216,654.585 333.216,667.7197 " fill="none" id="State3C-*end*State3-1" style="stroke: #A80036; stroke-width: 1.0;"/><polygon fill="#A80036" points="333.216,672.9244,337.216,663.9244,333.216,667.9244,329.216,663.9244,333.216,672.9244" style="stroke: #A80036; stroke-width: 1.0;"/><text fill="#000000" font-family="sans-serif" font-size="13" lengthAdjust="spacingAndGlyphs" textLength="103" x="334.216" y="650.3638">Esc key pressed</text><!--link State3C to *end*State3--><path d="M401.809,609.9692 C431.65,619.6164 456.511,634.3793 440.216,655.2969 C429.004,669.6894 375.253,677.6108 348.463,680.7238 " fill="none" id="State3C-*end*State3-2" style="stroke: #A80036; stroke-width: 1.0;"/><polygon fill="#A80036" points="343.181,681.3156,352.5698,684.2905,348.15,680.7598,351.6807,676.34,343.181,681.3156" style="stroke: #A80036; stroke-width: 1.0;"/><text fill="#000000" font-family="sans-serif" font-size="13" lengthAdjust="spacingAndGlyphs" textLength="40" x="446.216" y="650.3638">Ctrl+c</text><!--link *start to State1--><path d="M301.431,33 C311.427,33 321.424,33 331.42,33 " fill="none" id="*start-State1" style="stroke: #A80036; stroke-width: 1.0;"/><polygon fill="#A80036" points="336.647,33,327.647,29,331.647,33,327.647,37,336.647,33" style="stroke: #A80036; stroke-width: 1.0;"/><!--link State1 to State2--><path d="M336.803,52.585 C330.598,54.467 324.364,56.307 318.372,58 C265.47,72.951 232.205,44.669 198.372,88 C177.603,114.602 210.449,132.482 249.053,143.771 " fill="none" id="State1-State2" style="stroke: #A80036; stroke-width: 1.0;"/><polygon fill="#A80036" points="254.284,145.251,246.7131,138.9517,249.4729,143.8897,244.5349,146.6495,254.284,145.251" style="stroke: #A80036; stroke-width: 1.0;"/><text fill="#000000" font-family="sans-serif" font-size="13" lengthAdjust="spacingAndGlyphs" textLength="90" x="199.372" y="101.0669">Input received</text><!--link State2 to State1--><path d="M328.027,135.915 C325.47,121.394 324.524,102.89 331.372,88 C335.976,77.99 343.453,69.141 351.674,61.653 " fill="none" id="State2-State1" style="stroke: #A80036; stroke-width: 1.0;"/><polygon fill="#A80036" points="355.761,58.088,346.3498,60.9913,351.9936,61.3754,351.6096,67.0192,355.761,58.088" style="stroke: #A80036; stroke-width: 1.0;"/><text fill="#000000" font-family="sans-serif" font-size="13" lengthAdjust="spacingAndGlyphs" textLength="78" x="332.372" y="101.0669">No matches</text><!--link State2 to State1--><path d="M387.758,135.837 C399.209,128.024 409.823,118.155 416.372,106 C423.614,92.561 419.668,76.398 413.236,62.793 " fill="none" id="State2-State1-1" style="stroke: #A80036; stroke-width: 1.0;"/><polygon fill="#A80036" points="410.972,58.285,411.4381,68.1228,413.2166,62.7528,418.5866,64.5314,410.972,58.285" style="stroke: #A80036; stroke-width: 1.0;"/><text fill="#000000" font-family="sans-serif" font-size="13" lengthAdjust="spacingAndGlyphs" textLength="115" x="420.372" y="101.0669">To many matches</text><!--link State1 to *end--><path d="M451.987,44.394 C511.693,58.876 596.372,91.491 596.372,160 C596.372,160 596.372,160 596.372,812 C596.372,896.8481 457.424,917.3374 410.581,921.8341 " fill="none" id="State1-*end" style="stroke: #A80036; stroke-width: 1.0;"/><polygon fill="#A80036" points="405.34,922.3064,414.6626,925.4828,410.3198,921.8578,413.9449,917.5151,405.34,922.3064" style="stroke: #A80036; stroke-width: 1.0;"/><text fill="#000000" font-family="sans-serif" font-size="13" lengthAdjust="spacingAndGlyphs" textLength="52" x="597.372" y="490.0669">Timeout</text><!--link State2 to State4--><path d="M254.076,169.277 C192.479,179.556 111.288,204.328 70.3725,264 C-41.2213,426.749 16.4745,518.17 70.3725,708 C78.0889,735.177 95.3335,762.21 109.833,781.611 " fill="none" id="State2-State4" style="stroke: #A80036; stroke-width: 1.0;"/><polygon fill="#A80036" points="113.071,785.879,110.8178,776.2913,110.0489,781.8957,104.4445,781.1267,113.071,785.879" style="stroke: #A80036; stroke-width: 1.0;"/><text fill="#000000" font-family="sans-serif" font-size="13" lengthAdjust="spacingAndGlyphs" textLength="84" x="71.3725" y="490.0669">Single match</text><!--link State2 to State3--><path d="M335.413,186.014 C336.177,203.635 337.299,229.529 338.569,258.823 " fill="none" id="State2-State3" style="stroke: #A80036; stroke-width: 1.0;"/><polygon fill="#A80036" points="338.791,263.941,342.399,254.7768,338.5753,258.9457,334.4065,255.1219,338.791,263.941" style="stroke: #A80036; stroke-width: 1.0;"/><text fill="#000000" font-family="sans-serif" font-size="13" lengthAdjust="spacingAndGlyphs" textLength="144" x="339.372" y="229.0669">Multiple maches found</text><!--link State3 to *end--><path d="M310.359,708.298 C309.973,751.467 314.682,795.784 328.372,836 C339.473,868.6086 368.281,898.5269 384.271,913.308 " fill="none" id="State3-*end" style="stroke: #A80036; stroke-width: 1.0;"/><polygon fill="#A80036" points="388.041,916.7322,384.0677,907.7204,384.3396,913.3707,378.6893,913.6426,388.041,916.7322" style="stroke: #A80036; stroke-width: 1.0;"/><text fill="#000000" font-family="sans-serif" font-size="13" lengthAdjust="spacingAndGlyphs" textLength="115" x="329.372" y="815.0669">Selection rejected</text><!--link State3 to *end--><path d="M432.772,708.204 C439.982,734.12 446.132,760.434 450.372,786 C454.009,807.923 456.554,814.655 450.372,836 C441.558,866.4368 418.565,896.4512 405.265,912.0244 " fill="none" id="State3-*end-1" style="stroke: #A80036; stroke-width: 1.0;"/><polygon fill="#A80036" points="401.791,916.0222,410.7137,911.8526,405.0707,912.2481,404.6752,906.6051,401.791,916.0222" style="stroke: #A80036; stroke-width: 1.0;"/><text fill="#000000" font-family="sans-serif" font-size="13" lengthAdjust="spacingAndGlyphs" textLength="51" x="454.372" y="815.0669">Aborted</text><!--link State3 to State4--><path d="M175.182,677.893 C151.427,705.977 133.87,728.64 130.372,738 C125.347,751.45 125.43,767.311 127.052,780.718 " fill="none" id="State3-State4" style="stroke: #A80036; stroke-width: 1.0;"/><polygon fill="#A80036" points="127.771,785.916,130.4989,776.4525,127.0853,780.9632,122.5745,777.5496,127.771,785.916" style="stroke: #A80036; stroke-width: 1.0;"/><text fill="#000000" font-family="sans-serif" font-size="13" lengthAdjust="spacingAndGlyphs" textLength="142" x="131.372" y="751.0669">Single match selected</text><!--link State4 to *end--><path d="M162.439,836.1644 C182.622,851.8419 210.751,871.5895 238.372,884 C287.608,906.1216 351.403,917.0088 380.148,921.0619 " fill="none" id="State4-*end" style="stroke: #A80036; stroke-width: 1.0;"/><polygon fill="#A80036" points="385.415,921.7827,377.0411,916.5983,380.4613,921.1041,375.9554,924.5243,385.415,921.7827" style="stroke: #A80036; stroke-width: 1.0;"/><text fill="#000000" font-family="sans-serif" font-size="13" lengthAdjust="spacingAndGlyphs" textLength="34" x="239.372" y="879.0669">Done</text><!--
@startuml
state "Awaiting input" as State1
state "Looking for matches" as State2
state "Processing selection" as State4

[*] -> State1
State1 - -> State2 : Input received
State1 - -> [*] : Timeout
State2 - -> State1 : No matches
State2 - -> State1 : To many matches
State2 - -> State4 : Single match
State2 - -> State3 : Multiple maches found
state State3 {
  state "Awaiting interactive user selection" as State3A
  State3A: 2 matches
  [*] - -> State3A
  state "CursorOnMatch1" as State3B
  state "CursorOnMatch2" as State3C

  State3A - -> State3B: Arrow down
  State3B - -> State3C: Arrow down
  State3C - -> [*]: Enter key pressed
  State3C - -> [*]: Esc key pressed
  State3C - -> [*]: Ctrl+c
}

State3 - -> [*] : Selection rejected
State3 - -> [*] : Aborted
State3 - -> State4 : Single match selected
State4 - -> [*]: Done

@enduml

PlantUML version 1.2019.08(Sat Jul 13 15:25:14 EDT 2019)
(GPL source distribution)
Java Runtime: OpenJDK Runtime Environment
JVM: OpenJDK 64-Bit Server VM
Java Version: 1.8.0_222-ga
Operating System: Linux
OS Version: 4.14.154
Default Encoding: UTF-8
Language: en
Country: GB
--></g></svg>