<?xml version="1.0" encoding="UTF-8" standalone="no"?><svg xmlns="http://www.w3.org/2000/svg" xmlns:xlink="http://www.w3.org/1999/xlink" contentScriptType="application/ecmascript" contentStyleType="text/css" height="425px" preserveAspectRatio="none" style="width:462px;height:425px;" version="1.1" viewBox="0 0 462 425" width="462px" zoomAndPan="magnify"><defs><filter height="300%" id="f18ntpe2ju4d1b" width="300%" x="-1" y="-1"><feGaussianBlur result="blurOut" stdDeviation="2.0"/><feColorMatrix in="blurOut" result="blurOut2" type="matrix" values="0 0 0 0 0 0 0 0 0 0 0 0 0 0 0 0 0 0 .4 0"/><feOffset dx="4.0" dy="4.0" in="blurOut2" result="blurOut3"/><feBlend in="SourceGraphic" in2="blurOut3" mode="normal"/></filter></defs><g><rect fill="#FFFFFF" filter="url(#f18ntpe2ju4d1b)" height="93.5625" style="stroke: #A80036; stroke-width: 1.0;" width="10" x="103" y="302.2578"/><rect fill="#FFFFFF" filter="url(#f18ntpe2ju4d1b)" height="35.2969" style="stroke: #A80036; stroke-width: 1.0;" width="10" x="229" y="227.8281"/><rect fill="#FFFFFF" filter="url(#f18ntpe2ju4d1b)" height="29.1328" style="stroke: #A80036; stroke-width: 1.0;" width="10" x="229" y="337.5547"/><rect fill="#FFFFFF" filter="url(#f18ntpe2ju4d1b)" height="287.3906" style="stroke: #A80036; stroke-width: 1.0;" width="10" x="325.5" y="117.4297"/><rect fill="#FFFFFF" filter="url(#f18ntpe2ju4d1b)" height="250.2578" style="stroke: #A80036; stroke-width: 1.0;" width="10" x="330.5" y="154.5625"/><rect fill="#FFFFFF" filter="url(#f18ntpe2ju4d1b)" height="216.125" style="stroke: #A80036; stroke-width: 1.0;" width="10" x="432.5" y="188.6953"/><rect fill="#FEFECE" filter="url(#f18ntpe2ju4d1b)" height="30.2969" style="stroke: #A80036; stroke-width: 1.5;" width="86" x="189" y="196.6953"/><text fill="#000000" font-family="sans-serif" font-size="14" lengthAdjust="spacingAndGlyphs" textLength="72" x="196" y="216.6904">webserver</text><rect fill="#FEFECE" filter="url(#f18ntpe2ju4d1b)" height="30.2969" style="stroke: #A80036; stroke-width: 1.5;" width="102" x="55" y="271.125"/><text fill="#000000" font-family="sans-serif" font-size="14" lengthAdjust="spacingAndGlyphs" textLength="88" x="62" y="291.1201">webfrontend</text><line style="stroke: #A80036; stroke-width: 1.0; stroke-dasharray: 5.0,5.0;" x1="26" x2="26" y1="86.2969" y2="413.8203"/><line style="stroke: #A80036; stroke-width: 1.0; stroke-dasharray: 5.0,5.0;" x1="108" x2="108" y1="303.7734" y2="413.8203"/><line style="stroke: #A80036; stroke-width: 1.0; stroke-dasharray: 5.0,5.0;" x1="234" x2="234" y1="229.3438" y2="413.8203"/><line style="stroke: #A80036; stroke-width: 1.0; stroke-dasharray: 5.0,5.0;" x1="330" x2="330" y1="86.2969" y2="413.8203"/><line style="stroke: #A80036; stroke-width: 1.0; stroke-dasharray: 5.0,5.0;" x1="437" x2="437" y1="86.2969" y2="413.8203"/><text fill="#000000" font-family="sans-serif" font-size="14" lengthAdjust="spacingAndGlyphs" textLength="31" x="8" y="82.9951">user</text><ellipse cx="26.5" cy="13" fill="#FEFECE" filter="url(#f18ntpe2ju4d1b)" rx="8" ry="8" style="stroke: #A80036; stroke-width: 2.0;"/><path d="M26.5,21 L26.5,48 M13.5,29 L39.5,29 M26.5,48 L13.5,63 M26.5,48 L39.5,63 " fill="none" filter="url(#f18ntpe2ju4d1b)" style="stroke: #A80036; stroke-width: 2.0;"/><rect fill="#FEFECE" filter="url(#f18ntpe2ju4d1b)" height="30.2969" style="stroke: #A80036; stroke-width: 1.5;" width="79" x="289" y="51"/><text fill="#000000" font-family="sans-serif" font-size="14" lengthAdjust="spacingAndGlyphs" textLength="65" x="296" y="70.9951">hwdevice</text><rect fill="#FEFECE" filter="url(#f18ntpe2ju4d1b)" height="30.2969" style="stroke: #A80036; stroke-width: 1.5;" width="31" x="420" y="51"/><text fill="#000000" font-family="sans-serif" font-size="14" lengthAdjust="spacingAndGlyphs" textLength="17" x="427" y="70.9951">os</text><rect fill="#FFFFFF" filter="url(#f18ntpe2ju4d1b)" height="93.5625" style="stroke: #A80036; stroke-width: 1.0;" width="10" x="103" y="302.2578"/><rect fill="#FFFFFF" filter="url(#f18ntpe2ju4d1b)" height="35.2969" style="stroke: #A80036; stroke-width: 1.0;" width="10" x="229" y="227.8281"/><rect fill="#FFFFFF" filter="url(#f18ntpe2ju4d1b)" height="29.1328" style="stroke: #A80036; stroke-width: 1.0;" width="10" x="229" y="337.5547"/><rect fill="#FFFFFF" filter="url(#f18ntpe2ju4d1b)" height="287.3906" style="stroke: #A80036; stroke-width: 1.0;" width="10" x="325.5" y="117.4297"/><rect fill="#FFFFFF" filter="url(#f18ntpe2ju4d1b)" height="250.2578" style="stroke: #A80036; stroke-width: 1.0;" width="10" x="330.5" y="154.5625"/><rect fill="#FFFFFF" filter="url(#f18ntpe2ju4d1b)" height="216.125" style="stroke: #A80036; stroke-width: 1.0;" width="10" x="432.5" y="188.6953"/><polygon fill="#A80036" points="313.5,113.4297,323.5,117.4297,313.5,121.4297,317.5,117.4297" style="stroke: #A80036; stroke-width: 1.0;"/><line style="stroke: #A80036; stroke-width: 1.0;" x1="26.5" x2="319.5" y1="117.4297" y2="117.4297"/><text fill="#000000" font-family="sans-serif" font-size="13" lengthAdjust="spacingAndGlyphs" textLength="58" x="33.5" y="112.3638">power on</text><line style="stroke: #A80036; stroke-width: 1.0;" x1="335.5" x2="382.5" y1="141.5625" y2="141.5625"/><line style="stroke: #A80036; stroke-width: 1.0;" x1="382.5" x2="382.5" y1="141.5625" y2="154.5625"/><line style="stroke: #A80036; stroke-width: 1.0;" x1="341.5" x2="382.5" y1="154.5625" y2="154.5625"/><polygon fill="#A80036" points="351.5,150.5625,341.5,154.5625,351.5,158.5625,347.5,154.5625" style="stroke: #A80036; stroke-width: 1.0;"/><text fill="#000000" font-family="sans-serif" font-size="13" lengthAdjust="spacingAndGlyphs" textLength="83" x="347.5" y="136.4966">boot process</text><polygon fill="#A80036" points="420.5,184.6953,430.5,188.6953,420.5,192.6953,424.5,188.6953" style="stroke: #A80036; stroke-width: 1.0;"/><line style="stroke: #A80036; stroke-width: 1.0;" x1="340.5" x2="426.5" y1="188.6953" y2="188.6953"/><text fill="#000000" font-family="sans-serif" font-size="13" lengthAdjust="spacingAndGlyphs" textLength="73" x="347.5" y="183.6294">boot loader</text><polygon fill="#A80036" points="290,213.8281,280,217.8281,290,221.8281,286,217.8281" style="stroke: #A80036; stroke-width: 1.0;"/><line style="stroke: #A80036; stroke-width: 1.0;" x1="284" x2="431.5" y1="217.8281" y2="217.8281"/><text fill="#000000" font-family="sans-serif" font-size="13" lengthAdjust="spacingAndGlyphs" textLength="42" x="296" y="212.7622">launch</text><rect fill="#FEFECE" filter="url(#f18ntpe2ju4d1b)" height="30.2969" style="stroke: #A80036; stroke-width: 1.5;" width="86" x="189" y="196.6953"/><text fill="#000000" font-family="sans-serif" font-size="14" lengthAdjust="spacingAndGlyphs" textLength="72" x="196" y="216.6904">webserver</text><polygon fill="#A80036" points="420.5,259.125,430.5,263.125,420.5,267.125,424.5,263.125" style="stroke: #A80036; stroke-width: 1.0;"/><line style="stroke: #A80036; stroke-width: 1.0; stroke-dasharray: 2.0,2.0;" x1="234" x2="426.5" y1="263.125" y2="263.125"/><text fill="#000000" font-family="sans-serif" font-size="13" lengthAdjust="spacingAndGlyphs" textLength="51" x="241" y="258.0591">success</text><polygon fill="#A80036" points="172,288.2578,162,292.2578,172,296.2578,168,292.2578" style="stroke: #A80036; stroke-width: 1.0;"/><line style="stroke: #A80036; stroke-width: 1.0;" x1="166" x2="431.5" y1="292.2578" y2="292.2578"/><text fill="#000000" font-family="sans-serif" font-size="13" lengthAdjust="spacingAndGlyphs" textLength="42" x="178" y="287.1919">launch</text><rect fill="#FEFECE" filter="url(#f18ntpe2ju4d1b)" height="30.2969" style="stroke: #A80036; stroke-width: 1.5;" width="102" x="55" y="271.125"/><text fill="#000000" font-family="sans-serif" font-size="14" lengthAdjust="spacingAndGlyphs" textLength="88" x="62" y="291.1201">webfrontend</text><polygon fill="#A80036" points="217,333.5547,227,337.5547,217,341.5547,221,337.5547" style="stroke: #A80036; stroke-width: 1.0;"/><line style="stroke: #A80036; stroke-width: 1.0;" x1="113" x2="223" y1="337.5547" y2="337.5547"/><text fill="#000000" font-family="sans-serif" font-size="13" lengthAdjust="spacingAndGlyphs" textLength="97" x="120" y="332.4888">request html ui</text><polygon fill="#A80036" points="124,362.6875,114,366.6875,124,370.6875,120,366.6875" style="stroke: #A80036; stroke-width: 1.0;"/><line style="stroke: #A80036; stroke-width: 1.0; stroke-dasharray: 2.0,2.0;" x1="118" x2="233" y1="366.6875" y2="366.6875"/><text fill="#000000" font-family="sans-serif" font-size="13" lengthAdjust="spacingAndGlyphs" textLength="44" x="130" y="361.6216">html ui</text><polygon fill="#A80036" points="420.5,391.8203,430.5,395.8203,420.5,399.8203,424.5,395.8203" style="stroke: #A80036; stroke-width: 1.0;"/><line style="stroke: #A80036; stroke-width: 1.0; stroke-dasharray: 2.0,2.0;" x1="108" x2="426.5" y1="395.8203" y2="395.8203"/><text fill="#000000" font-family="sans-serif" font-size="13" lengthAdjust="spacingAndGlyphs" textLength="51" x="115" y="390.7544">success</text><!--
@startuml
hide footbox
actor user
participant webfrontend
participant webserver
participant hwdevice
participant os

user -> hwdevice ++ : power on
hwdevice -> hwdevice ++: boot process
hwdevice -> os ++: boot loader
os -> webserver **: launch
activate webserver
return success
os -> webfrontend **: launch
activate webfrontend
webfrontend -> webserver ++: request html ui
return html ui
webfrontend - -> os : success
deactivate webfrontend
@enduml

PlantUML version 1.2019.08(Sat Jul 13 15:25:14 EDT 2019)
(GPL source distribution)
Java Runtime: OpenJDK Runtime Environment
JVM: OpenJDK 64-Bit Server VM
Java Version: 1.8.0_222-ga
Operating System: Linux
OS Version: 4.14.154
Default Encoding: UTF-8
Language: en
Country: GB
--></g></svg>