<?xml version="1.0" encoding="UTF-8" standalone="no"?><svg xmlns="http://www.w3.org/2000/svg" xmlns:xlink="http://www.w3.org/1999/xlink" contentScriptType="application/ecmascript" contentStyleType="text/css" height="447px" preserveAspectRatio="none" style="width:649px;height:447px;" version="1.1" viewBox="0 0 649 447" width="649px" zoomAndPan="magnify"><defs><filter height="300%" id="f1h9p7wkbxqama" width="300%" x="-1" y="-1"><feGaussianBlur result="blurOut" stdDeviation="2.0"/><feColorMatrix in="blurOut" result="blurOut2" type="matrix" values="0 0 0 0 0 0 0 0 0 0 0 0 0 0 0 0 0 0 .4 0"/><feOffset dx="4.0" dy="4.0" in="blurOut2" result="blurOut3"/><feBlend in="SourceGraphic" in2="blurOut3" mode="normal"/></filter></defs><g><rect fill="#FFFFFF" filter="url(#f1h9p7wkbxqama)" height="309.1953" style="stroke: #A80036; stroke-width: 1.0;" width="10" x="192.5" y="117.4297"/><rect fill="#FFFFFF" filter="url(#f1h9p7wkbxqama)" height="40.1328" style="stroke: #A80036; stroke-width: 1.0;" width="10" x="197.5" y="341.3594"/><rect fill="#FFFFFF" filter="url(#f1h9p7wkbxqama)" height="280.0625" style="stroke: #A80036; stroke-width: 1.0;" width="10" x="383.5" y="146.5625"/><rect fill="#FFFFFF" filter="url(#f1h9p7wkbxqama)" height="40.1328" style="stroke: #A80036; stroke-width: 1.0;" width="10" x="388.5" y="257.0938"/><rect fill="#FFFFFF" filter="url(#f1h9p7wkbxqama)" height="29.1328" style="stroke: #A80036; stroke-width: 1.0;" width="10" x="550.5" y="190.8281"/><line style="stroke: #A80036; stroke-width: 1.0; stroke-dasharray: 5.0,5.0;" x1="26" x2="26" y1="86.2969" y2="435.625"/><line style="stroke: #A80036; stroke-width: 1.0; stroke-dasharray: 5.0,5.0;" x1="197.5" x2="197.5" y1="86.2969" y2="435.625"/><line style="stroke: #A80036; stroke-width: 1.0; stroke-dasharray: 5.0,5.0;" x1="388.5" x2="388.5" y1="86.2969" y2="435.625"/><line style="stroke: #A80036; stroke-width: 1.0; stroke-dasharray: 5.0,5.0;" x1="555" x2="555" y1="86.2969" y2="435.625"/><line style="stroke: #A80036; stroke-width: 1.0; stroke-dasharray: 5.0,5.0;" x1="624" x2="624" y1="86.2969" y2="435.625"/><text fill="#000000" font-family="sans-serif" font-size="14" lengthAdjust="spacingAndGlyphs" textLength="31" x="8" y="82.9951">user</text><ellipse cx="26.5" cy="13" fill="#FEFECE" filter="url(#f1h9p7wkbxqama)" rx="8" ry="8" style="stroke: #A80036; stroke-width: 2.0;"/><path d="M26.5,21 L26.5,48 M13.5,29 L39.5,29 M26.5,48 L13.5,63 M26.5,48 L39.5,63 " fill="none" filter="url(#f1h9p7wkbxqama)" style="stroke: #A80036; stroke-width: 2.0;"/><rect fill="#FEFECE" filter="url(#f1h9p7wkbxqama)" height="30.2969" style="stroke: #A80036; stroke-width: 1.5;" width="102" x="144.5" y="51"/><text fill="#000000" font-family="sans-serif" font-size="14" lengthAdjust="spacingAndGlyphs" textLength="88" x="151.5" y="70.9951">webfrontend</text><rect fill="#FEFECE" filter="url(#f1h9p7wkbxqama)" height="30.2969" style="stroke: #A80036; stroke-width: 1.5;" width="86" x="343.5" y="51"/><text fill="#000000" font-family="sans-serif" font-size="14" lengthAdjust="spacingAndGlyphs" textLength="72" x="350.5" y="70.9951">webserver</text><rect fill="#FEFECE" filter="url(#f1h9p7wkbxqama)" height="30.2969" style="stroke: #A80036; stroke-width: 1.5;" width="79" x="514" y="51"/><text fill="#000000" font-family="sans-serif" font-size="14" lengthAdjust="spacingAndGlyphs" textLength="65" x="521" y="70.9951">hwdevice</text><rect fill="#FEFECE" filter="url(#f1h9p7wkbxqama)" height="30.2969" style="stroke: #A80036; stroke-width: 1.5;" width="31" x="607" y="51"/><text fill="#000000" font-family="sans-serif" font-size="14" lengthAdjust="spacingAndGlyphs" textLength="17" x="614" y="70.9951">os</text><rect fill="#FFFFFF" filter="url(#f1h9p7wkbxqama)" height="309.1953" style="stroke: #A80036; stroke-width: 1.0;" width="10" x="192.5" y="117.4297"/><rect fill="#FFFFFF" filter="url(#f1h9p7wkbxqama)" height="40.1328" style="stroke: #A80036; stroke-width: 1.0;" width="10" x="197.5" y="341.3594"/><rect fill="#FFFFFF" filter="url(#f1h9p7wkbxqama)" height="280.0625" style="stroke: #A80036; stroke-width: 1.0;" width="10" x="383.5" y="146.5625"/><rect fill="#FFFFFF" filter="url(#f1h9p7wkbxqama)" height="40.1328" style="stroke: #A80036; stroke-width: 1.0;" width="10" x="388.5" y="257.0938"/><rect fill="#FFFFFF" filter="url(#f1h9p7wkbxqama)" height="29.1328" style="stroke: #A80036; stroke-width: 1.0;" width="10" x="550.5" y="190.8281"/><line style="stroke: #A80036; stroke-width: 1.0;" x1="190.5" x2="180.5" y1="117.4297" y2="113.4297"/><line style="stroke: #A80036; stroke-width: 1.0;" x1="190.5" x2="180.5" y1="117.4297" y2="121.4297"/><line style="stroke: #A80036; stroke-width: 1.0;" x1="26.5" x2="191.5" y1="117.4297" y2="117.4297"/><text fill="#000000" font-family="sans-serif" font-size="13" lengthAdjust="spacingAndGlyphs" textLength="147" x="33.5" y="112.3638">click on process button</text><polygon fill="#A80036" points="371.5,142.5625,381.5,146.5625,371.5,150.5625,375.5,146.5625" style="stroke: #A80036; stroke-width: 1.0;"/><line style="stroke: #A80036; stroke-width: 1.0;" x1="202.5" x2="377.5" y1="146.5625" y2="146.5625"/><text fill="#000000" font-family="sans-serif" font-size="13" lengthAdjust="spacingAndGlyphs" textLength="162" x="209.5" y="141.4966">request processing result</text><polygon fill="#A80036" points="538.5,186.8281,548.5,190.8281,538.5,194.8281,542.5,190.8281" style="stroke: #A80036; stroke-width: 1.0;"/><line style="stroke: #A80036; stroke-width: 1.0;" x1="393.5" x2="544.5" y1="190.8281" y2="190.8281"/><text fill="#000000" font-family="sans-serif" font-size="13" lengthAdjust="spacingAndGlyphs" textLength="133" x="400.5" y="170.6294">request sensor state</text><text fill="#000000" font-family="sans-serif" font-size="13" lengthAdjust="spacingAndGlyphs" textLength="138" x="400.5" y="185.7622">sample (camera, etc)</text><polygon fill="#A80036" points="404.5,215.9609,394.5,219.9609,404.5,223.9609,400.5,219.9609" style="stroke: #A80036; stroke-width: 1.0;"/><line style="stroke: #A80036; stroke-width: 1.0; stroke-dasharray: 2.0,2.0;" x1="398.5" x2="554.5" y1="219.9609" y2="219.9609"/><text fill="#000000" font-family="sans-serif" font-size="13" lengthAdjust="spacingAndGlyphs" textLength="94" x="410.5" y="214.895">sensors states</text><line style="stroke: #A80036; stroke-width: 1.0;" x1="393.5" x2="440.5" y1="244.0938" y2="244.0938"/><line style="stroke: #A80036; stroke-width: 1.0;" x1="440.5" x2="440.5" y1="244.0938" y2="257.0938"/><line style="stroke: #A80036; stroke-width: 1.0;" x1="399.5" x2="440.5" y1="257.0938" y2="257.0938"/><polygon fill="#A80036" points="409.5,253.0938,399.5,257.0938,409.5,261.0938,405.5,257.0938" style="stroke: #A80036; stroke-width: 1.0;"/><text fill="#000000" font-family="sans-serif" font-size="13" lengthAdjust="spacingAndGlyphs" textLength="141" x="405.5" y="239.0278">process sensor states</text><line style="stroke: #A80036; stroke-width: 1.0; stroke-dasharray: 2.0,2.0;" x1="398.5" x2="440.5" y1="296.2266" y2="296.2266"/><line style="stroke: #A80036; stroke-width: 1.0; stroke-dasharray: 2.0,2.0;" x1="440.5" x2="440.5" y1="296.2266" y2="309.2266"/><line style="stroke: #A80036; stroke-width: 1.0; stroke-dasharray: 2.0,2.0;" x1="393.5" x2="440.5" y1="309.2266" y2="309.2266"/><polygon fill="#A80036" points="403.5,305.2266,393.5,309.2266,403.5,313.2266,399.5,309.2266" style="stroke: #A80036; stroke-width: 1.0;"/><text fill="#000000" font-family="sans-serif" font-size="13" lengthAdjust="spacingAndGlyphs" textLength="36" x="405.5" y="291.1606">result</text><line style="stroke: #A80036; stroke-width: 1.0;" x1="202.5" x2="249.5" y1="328.3594" y2="328.3594"/><line style="stroke: #A80036; stroke-width: 1.0;" x1="249.5" x2="249.5" y1="328.3594" y2="341.3594"/><line style="stroke: #A80036; stroke-width: 1.0;" x1="208.5" x2="249.5" y1="341.3594" y2="341.3594"/><polygon fill="#A80036" points="218.5,337.3594,208.5,341.3594,218.5,345.3594,214.5,341.3594" style="stroke: #A80036; stroke-width: 1.0;"/><text fill="#000000" font-family="sans-serif" font-size="13" lengthAdjust="spacingAndGlyphs" textLength="121" x="214.5" y="323.2935">render into images</text><line style="stroke: #A80036; stroke-width: 1.0; stroke-dasharray: 2.0,2.0;" x1="207.5" x2="249.5" y1="380.4922" y2="380.4922"/><line style="stroke: #A80036; stroke-width: 1.0; stroke-dasharray: 2.0,2.0;" x1="249.5" x2="249.5" y1="380.4922" y2="393.4922"/><line style="stroke: #A80036; stroke-width: 1.0; stroke-dasharray: 2.0,2.0;" x1="202.5" x2="249.5" y1="393.4922" y2="393.4922"/><polygon fill="#A80036" points="212.5,389.4922,202.5,393.4922,212.5,397.4922,208.5,393.4922" style="stroke: #A80036; stroke-width: 1.0;"/><text fill="#000000" font-family="sans-serif" font-size="13" lengthAdjust="spacingAndGlyphs" textLength="47" x="214.5" y="375.4263">images</text><line style="stroke: #A80036; stroke-width: 1.0;" x1="26.5" x2="36.5" y1="417.625" y2="413.625"/><line style="stroke: #A80036; stroke-width: 1.0;" x1="26.5" x2="36.5" y1="417.625" y2="421.625"/><line style="stroke: #A80036; stroke-width: 1.0;" x1="26.5" x2="191.5" y1="417.625" y2="417.625"/><text fill="#000000" font-family="sans-serif" font-size="13" lengthAdjust="spacingAndGlyphs" textLength="97" x="43.5" y="412.5591">images as light</text><!--
@startuml
hide footbox
actor user
participant webfrontend
participant webserver
participant hwdevice
participant os

user ->> webfrontend ++: click on process button
webfrontend -> webserver ++: request processing result
webserver -> hwdevice ++: request sensor state\nsample (camera, etc)
return sensors states
webserver -> webserver ++: process sensor states
return result
webfrontend -> webfrontend ++: render into images
return images
webfrontend ->> user: images as light
@enduml

PlantUML version 1.2019.08(Sat Jul 13 15:25:14 EDT 2019)
(GPL source distribution)
Java Runtime: OpenJDK Runtime Environment
JVM: OpenJDK 64-Bit Server VM
Java Version: 1.8.0_222-ga
Operating System: Linux
OS Version: 4.14.154
Default Encoding: UTF-8
Language: en
Country: GB
--></g></svg>