<?xml version="1.0" encoding="UTF-8" standalone="no"?><svg xmlns="http://www.w3.org/2000/svg" xmlns:xlink="http://www.w3.org/1999/xlink" contentScriptType="application/ecmascript" contentStyleType="text/css" height="349px" preserveAspectRatio="none" style="width:296px;height:349px;" version="1.1" viewBox="0 0 296 349" width="296px" zoomAndPan="magnify"><defs><filter height="300%" id="fzov74okleqi8" width="300%" x="-1" y="-1"><feGaussianBlur result="blurOut" stdDeviation="2.0"/><feColorMatrix in="blurOut" result="blurOut2" type="matrix" values="0 0 0 0 0 0 0 0 0 0 0 0 0 0 0 0 0 0 .4 0"/><feOffset dx="4.0" dy="4.0" in="blurOut2" result="blurOut3"/><feBlend in="SourceGraphic" in2="blurOut3" mode="normal"/></filter></defs><g><rect fill="#FEFECE" filter="url(#fzov74okleqi8)" height="33.9688" rx="12.5" ry="12.5" style="stroke: #A80036; stroke-width: 1.5;" width="48" x="102.5" y="10"/><text fill="#000000" font-family="sans-serif" font-size="12" lengthAdjust="spacingAndGlyphs" textLength="28" x="112.5" y="31.1387">foo1</text><polygon fill="#FEFECE" filter="url(#fzov74okleqi8)" points="114.5,85.3677,138.5,85.3677,150.5,97.3677,138.5,109.3677,114.5,109.3677,102.5,97.3677,114.5,85.3677" style="stroke: #A80036; stroke-width: 1.5;"/><text fill="#000000" font-family="sans-serif" font-size="11" lengthAdjust="spacingAndGlyphs" textLength="22" x="115.5" y="101.1758">test</text><rect fill="#FEFECE" filter="url(#fzov74okleqi8)" height="33.9688" rx="12.5" ry="12.5" style="stroke: #A80036; stroke-width: 1.5;" width="48" x="10" y="119.3677"/><text fill="#000000" font-family="sans-serif" font-size="12" lengthAdjust="spacingAndGlyphs" textLength="28" x="20" y="140.5063">foo2</text><rect fill="#FEFECE" filter="url(#fzov74okleqi8)" height="33.9688" rx="12.5" ry="12.5" style="stroke: #A80036; stroke-width: 1.5;" width="48" x="10" y="220.3447"/><text fill="#000000" font-family="sans-serif" font-size="12" lengthAdjust="spacingAndGlyphs" textLength="28" x="20" y="241.4834">foo3</text><rect fill="#FEFECE" filter="url(#fzov74okleqi8)" height="33.9688" rx="12.5" ry="12.5" style="stroke: #A80036; stroke-width: 1.5;" width="48" x="195" y="119.3677"/><text fill="#000000" font-family="sans-serif" font-size="12" lengthAdjust="spacingAndGlyphs" textLength="28" x="205" y="140.5063">foo4</text><polygon fill="#FEFECE" filter="url(#fzov74okleqi8)" points="126.5,260.3135,138.5,272.3135,126.5,284.3135,114.5,272.3135,126.5,260.3135" style="stroke: #A80036; stroke-width: 1.5;"/><rect fill="#FEFECE" filter="url(#fzov74okleqi8)" height="33.9688" rx="12.5" ry="12.5" style="stroke: #A80036; stroke-width: 1.5;" width="48" x="102.5" y="304.3135"/><text fill="#000000" font-family="sans-serif" font-size="12" lengthAdjust="spacingAndGlyphs" textLength="28" x="112.5" y="325.4521">foo5</text><line style="stroke: #008000; stroke-width: 1.5; stroke-dasharray: 7.0,7.0;" x1="34" x2="34" y1="153.3364" y2="220.3447"/><polygon fill="#008000" points="30,210.3447,34,220.3447,38,210.3447,34,214.3447" style="stroke: #008000; stroke-width: 1.0;"/><text fill="#000000" font-family="sans-serif" font-size="11" lengthAdjust="spacingAndGlyphs" textLength="70" x="38" y="174.6411">The text can</text><text fill="#000000" font-family="sans-serif" font-size="11" lengthAdjust="spacingAndGlyphs" textLength="137" x="38" y="187.4458">also be on several lines</text><text fill="#000000" font-family="sans-serif" font-size="11" lengthAdjust="spacingAndGlyphs" textLength="21" x="38" y="200.2505">and</text><text fill="#000000" font-family="sans-serif" font-size="11" font-weight="bold" lengthAdjust="spacingAndGlyphs" textLength="27" x="63" y="200.2505">very</text><text fill="#000000" font-family="sans-serif" font-size="11" lengthAdjust="spacingAndGlyphs" textLength="36" x="94" y="200.2505">long...</text><line style="stroke: #0000FF; stroke-width: 1.5;" x1="102.5" x2="34" y1="97.3677" y2="97.3677"/><line style="stroke: #0000FF; stroke-width: 1.5;" x1="34" x2="34" y1="97.3677" y2="119.3677"/><polygon fill="#0000FF" points="30,109.3677,34,119.3677,38,109.3677,34,113.3677" style="stroke: #0000FF; stroke-width: 1.0;"/><line style="stroke: #000000; stroke-width: 1.5; stroke-dasharray: 1.0,3.0;" x1="150.5" x2="219" y1="97.3677" y2="97.3677"/><line style="stroke: #000000; stroke-width: 1.5; stroke-dasharray: 1.0,3.0;" x1="219" x2="219" y1="97.3677" y2="119.3677"/><polygon fill="#000000" points="215,109.3677,219,119.3677,223,109.3677,219,113.3677" style="stroke: #000000; stroke-width: 1.0;"/><line style="stroke: #A80036; stroke-width: 1.5;" x1="34" x2="34" y1="254.3135" y2="272.3135"/><line style="stroke: #A80036; stroke-width: 1.5;" x1="34" x2="114.5" y1="272.3135" y2="272.3135"/><polygon fill="#A80036" points="104.5,268.3135,114.5,272.3135,104.5,276.3135,108.5,272.3135" style="stroke: #A80036; stroke-width: 1.0;"/><line style="stroke: #A80036; stroke-width: 1.5;" x1="219" x2="219" y1="153.3364" y2="272.3135"/><line style="stroke: #A80036; stroke-width: 1.5;" x1="219" x2="138.5" y1="272.3135" y2="272.3135"/><polygon fill="#A80036" points="148.5,268.3135,138.5,272.3135,148.5,276.3135,144.5,272.3135" style="stroke: #A80036; stroke-width: 1.0;"/><line style="stroke: #A80036; stroke-width: 1.5;" x1="126.5" x2="126.5" y1="43.9688" y2="85.3677"/><polygon fill="#A80036" points="122.5,75.3677,126.5,85.3677,130.5,75.3677,126.5,79.3677" style="stroke: #A80036; stroke-width: 1.0;"/><text fill="#000000" font-family="sans-serif" font-size="11" lengthAdjust="spacingAndGlyphs" textLength="154" x="130.5" y="65.2734">You can put text on arrows</text><line style="stroke: #808080; stroke-width: 2.0;" x1="126.5" x2="126.5" y1="284.3135" y2="304.3135"/><polygon fill="#808080" points="122.5,294.3135,126.5,304.3135,130.5,294.3135,126.5,298.3135" style="stroke: #808080; stroke-width: 1.0;"/><!--
@startuml
:foo1;
-> You can put text on arrows;
if (test) then
  -[#blue]->
  :foo2;
  -[#green,dashed]-> The text can
  also be on several lines
  and **very** long...;
  :foo3;
else
  -[#black,dotted]->
  :foo4;
endif
-[#gray,bold]->
:foo5;
@enduml

PlantUML version 1.2019.08(Sat Jul 13 15:25:14 EDT 2019)
(GPL source distribution)
Java Runtime: OpenJDK Runtime Environment
JVM: OpenJDK 64-Bit Server VM
Java Version: 1.8.0_222-ga
Operating System: Linux
OS Version: 4.14.154
Default Encoding: UTF-8
Language: en
Country: GB
--></g></svg>