<?xml version="1.0" encoding="UTF-8" standalone="no"?><svg xmlns="http://www.w3.org/2000/svg" xmlns:xlink="http://www.w3.org/1999/xlink" contentScriptType="application/ecmascript" contentStyleType="text/css" height="841px" preserveAspectRatio="none" style="width:661px;height:841px;" version="1.1" viewBox="0 0 661 841" width="661px" zoomAndPan="magnify"><defs><filter height="300%" id="f1peame0l3a53u" width="300%" x="-1" y="-1"><feGaussianBlur result="blurOut" stdDeviation="2.0"/><feColorMatrix in="blurOut" result="blurOut2" type="matrix" values="0 0 0 0 0 0 0 0 0 0 0 0 0 0 0 0 0 0 .4 0"/><feOffset dx="4.0" dy="4.0" in="blurOut2" result="blurOut3"/><feBlend in="SourceGraphic" in2="blurOut3" mode="normal"/></filter></defs><g><rect fill="#FEFECE" filter="url(#f1peame0l3a53u)" height="50" rx="12.5" ry="12.5" style="stroke: #A80036; stroke-width: 1.5;" width="116" x="308.164" y="8"/><line style="stroke: #A80036; stroke-width: 1.5;" x1="308.164" x2="424.164" y1="34.2969" y2="34.2969"/><text fill="#000000" font-family="sans-serif" font-size="14" lengthAdjust="spacingAndGlyphs" textLength="96" x="318.164" y="25.9951">Awaiting input</text><rect fill="#FEFECE" filter="url(#f1peame0l3a53u)" height="50" rx="12.5" ry="12.5" style="stroke: #A80036; stroke-width: 1.5;" width="160" x="209.664" y="136"/><line style="stroke: #A80036; stroke-width: 1.5;" x1="209.664" x2="369.664" y1="162.2969" y2="162.2969"/><text fill="#000000" font-family="sans-serif" font-size="14" lengthAdjust="spacingAndGlyphs" textLength="140" x="219.664" y="153.9951">Looking for matches</text><rect fill="#FEFECE" filter="url(#f1peame0l3a53u)" height="50" rx="12.5" ry="12.5" style="stroke: #A80036; stroke-width: 1.5;" width="164" x="104.6637" y="682"/><line style="stroke: #A80036; stroke-width: 1.5;" x1="104.6637" x2="268.6637" y1="708.2969" y2="708.2969"/><text fill="#000000" font-family="sans-serif" font-size="14" lengthAdjust="spacingAndGlyphs" textLength="144" x="114.6637" y="699.9951">Processing selection</text><ellipse cx="262.664" cy="33" fill="#000000" filter="url(#f1peame0l3a53u)" rx="10" ry="10" style="stroke: none; stroke-width: 1.0;"/><ellipse cx="354.664" cy="820" fill="none" filter="url(#f1peame0l3a53u)" rx="10" ry="10" style="stroke: #000000; stroke-width: 1.0;"/><ellipse cx="355.164" cy="820.5" fill="#000000" rx="6" ry="6" style="stroke: none; stroke-width: 1.0;"/><rect fill="#FEFECE" filter="url(#f1peame0l3a53u)" height="340.2969" rx="12.5" ry="12.5" style="stroke: #A80036; stroke-width: 1.5;" width="361.5" x="166.414" y="264"/><rect fill="#FFFFFF" height="308" rx="12.5" ry="12.5" style="stroke: #FFFFFF; stroke-width: 1.0;" width="355.5" x="169.414" y="293.2969"/><line style="stroke: #A80036; stroke-width: 1.5;" x1="166.414" x2="527.914" y1="290.2969" y2="290.2969"/><text fill="#000000" font-family="sans-serif" font-size="14" lengthAdjust="spacingAndGlyphs" textLength="45" x="324.664" y="281.9951">State3</text><ellipse cx="309.664" cy="313.2969" fill="#000000" filter="url(#f1peame0l3a53u)" rx="10" ry="10" style="stroke: none; stroke-width: 1.0;"/><rect fill="#FEFECE" filter="url(#f1peame0l3a53u)" height="50" rx="12.5" ry="12.5" style="stroke: #A80036; stroke-width: 1.5;" width="137" x="241.414" y="361.2969"/><line style="stroke: #A80036; stroke-width: 1.5;" x1="241.414" x2="378.414" y1="387.5938" y2="387.5938"/><text fill="#000000" font-family="sans-serif" font-size="14" lengthAdjust="spacingAndGlyphs" textLength="117" x="251.414" y="379.292">CursorOnMatch1</text><rect fill="#FEFECE" filter="url(#f1peame0l3a53u)" height="50" rx="12.5" ry="12.5" style="stroke: #A80036; stroke-width: 1.5;" width="137" x="177.414" y="465.2969"/><line style="stroke: #A80036; stroke-width: 1.5;" x1="177.414" x2="314.414" y1="491.5938" y2="491.5938"/><text fill="#000000" font-family="sans-serif" font-size="14" lengthAdjust="spacingAndGlyphs" textLength="117" x="187.414" y="483.292">CursorOnMatch2</text><ellipse cx="314.664" cy="579.2969" fill="none" filter="url(#f1peame0l3a53u)" rx="10" ry="10" style="stroke: #000000; stroke-width: 1.0;"/><ellipse cx="315.164" cy="579.7969" fill="#000000" rx="6" ry="6" style="stroke: none; stroke-width: 1.0;"/><!--link *start*State3 to State3A--><path d="M309.664,323.5789 C309.664,331.7929 309.664,344.2389 309.664,355.8079 " fill="none" id="*start*State3-State3A" style="stroke: #A80036; stroke-width: 1.0;"/><polygon fill="#A80036" points="309.664,361.0429,313.664,352.0429,309.664,356.0429,305.664,352.0429,309.664,361.0429" style="stroke: #A80036; stroke-width: 1.0;"/><!--link State3A to State3B--><path d="M240.935,404.4619 C229.3563,410.4379 218.7969,418.4799 211.664,429.2969 C204.9726,439.4449 208.9358,450.9799 216.1552,461.2069 " fill="none" id="State3A-State3B" style="stroke: #A80036; stroke-width: 1.0;"/><polygon fill="#A80036" points="219.185,465.2039,216.9367,455.6151,216.1649,461.219,210.5609,460.4472,219.185,465.2039" style="stroke: #A80036; stroke-width: 1.0;"/><text fill="#000000" font-family="sans-serif" font-size="13" lengthAdjust="spacingAndGlyphs" textLength="73" x="212.664" y="442.3638">Arrow down</text><!--link State3A to *end*State3--><path d="M345.654,411.4169 C351.173,416.6749 356.182,422.6739 359.664,429.2969 C381.271,470.3989 367.439,486.9149 369.664,533.2969 C370.047,541.2877 373.895,544.5071 369.664,551.2969 C360.924,565.3242 342.533,572.2702 329.425,575.5634 " fill="none" id="State3A-*end*State3" style="stroke: #A80036; stroke-width: 1.0;"/><polygon fill="#A80036" points="324.52,576.6898,334.1873,578.5722,329.393,575.5698,332.3954,570.7755,324.52,576.6898" style="stroke: #A80036; stroke-width: 1.0;"/><text fill="#000000" font-family="sans-serif" font-size="13" lengthAdjust="spacingAndGlyphs" textLength="120" x="372.664" y="494.3638">Enter / Esc / Ctrl+c</text><!--link State3B to State3A--><path d="M273.3719,465.0919 C278.596,459.6139 283.667,453.5539 287.664,447.2969 C293.669,437.8959 298.351,426.6239 301.822,416.4009 " fill="none" id="State3B-State3A" style="stroke: #A80036; stroke-width: 1.0;"/><polygon fill="#A80036" points="303.43,411.4789,296.8347,418.7934,301.8785,416.2321,304.4398,421.2758,303.43,411.4789" style="stroke: #A80036; stroke-width: 1.0;"/><text fill="#000000" font-family="sans-serif" font-size="13" lengthAdjust="spacingAndGlyphs" textLength="56" x="297.664" y="442.3638">Arrow up</text><!--link State3B to *end*State3--><path d="M240.1927,515.3981 C238.8921,527.186 239.5561,541.0124 246.664,551.2969 C258.6026,568.571 283.478,574.7944 299.604,577.0359 " fill="none" id="State3B-*end*State3" style="stroke: #A80036; stroke-width: 1.0;"/><polygon fill="#A80036" points="304.706,577.6536,296.2525,572.6,299.7423,577.0521,295.2902,580.542,304.706,577.6536" style="stroke: #A80036; stroke-width: 1.0;"/><text fill="#000000" font-family="sans-serif" font-size="13" lengthAdjust="spacingAndGlyphs" textLength="120" x="247.664" y="546.3638">Enter / Esc / Ctrl+c</text><!--link *start to State1--><path d="M272.722,33 C282.719,33 292.715,33 302.711,33 " fill="none" id="*start-State1" style="stroke: #A80036; stroke-width: 1.0;"/><polygon fill="#A80036" points="307.938,33,298.938,29,302.938,33,298.938,37,307.938,33" style="stroke: #A80036; stroke-width: 1.0;"/><!--link State1 to State2--><path d="M307.992,53.491 C273.157,65.842 234.551,80.801 229.664,88 C219.132,103.513 230.239,119.649 245.638,132.704 " fill="none" id="State1-State2" style="stroke: #A80036; stroke-width: 1.0;"/><polygon fill="#A80036" points="249.635,135.954,245.1783,127.1712,245.7566,132.7984,240.1294,133.3767,249.635,135.954" style="stroke: #A80036; stroke-width: 1.0;"/><text fill="#000000" font-family="sans-serif" font-size="13" lengthAdjust="spacingAndGlyphs" textLength="90" x="230.664" y="101.0669">Input received</text><!--link State2 to State1--><path d="M306.974,135.893 C313.378,126.68 320.56,115.988 326.664,106 C335.255,91.941 344.061,75.855 351.126,62.458 " fill="none" id="State2-State1" style="stroke: #A80036; stroke-width: 1.0;"/><polygon fill="#A80036" points="353.453,58.025,345.7279,64.1342,351.1288,62.452,352.811,67.8529,353.453,58.025" style="stroke: #A80036; stroke-width: 1.0;"/><text fill="#000000" font-family="sans-serif" font-size="13" lengthAdjust="spacingAndGlyphs" textLength="205" x="338.664" y="101.0669">No matches / To many matches</text><!--link State1 to *end--><path d="M423.359,40.319 C491.779,51.385 596.664,81.198 596.664,160 C596.664,160 596.664,160 596.664,708 C596.664,808.3243 422.708,818.3212 369.768,819.0406 " fill="none" id="State1-*end" style="stroke: #A80036; stroke-width: 1.0;"/><polygon fill="#A80036" points="364.754,819.0852,373.7891,823.0053,369.7538,819.0409,373.7182,815.0056,364.754,819.0852" style="stroke: #A80036; stroke-width: 1.0;"/><text fill="#000000" font-family="sans-serif" font-size="13" lengthAdjust="spacingAndGlyphs" textLength="52" x="597.664" y="438.0669">Timeout</text><!--link State2 to State4--><path d="M209.46,175.099 C157.692,188.16 94.1523,213.874 61.6637,264 C-20.5242,390.806 -3.1359,467.488 61.6637,604 C76.9983,636.305 108.127,661.757 135.482,679.157 " fill="none" id="State2-State4" style="stroke: #A80036; stroke-width: 1.0;"/><polygon fill="#A80036" points="139.837,681.88,134.327,673.7167,135.5977,679.229,130.0854,680.4996,139.837,681.88" style="stroke: #A80036; stroke-width: 1.0;"/><text fill="#000000" font-family="sans-serif" font-size="13" lengthAdjust="spacingAndGlyphs" textLength="84" x="62.6637" y="438.0669">Single match</text><!--link State2 to State3--><path d="M294.722,186.049 C298.482,203.928 303.99,230.112 310.029,258.825 " fill="none" id="State2-State3" style="stroke: #A80036; stroke-width: 1.0;"/><polygon fill="#A80036" points="311.082,263.832,313.1449,254.2016,310.0534,258.9389,305.3161,255.8474,311.082,263.832" style="stroke: #A80036; stroke-width: 1.0;"/><text fill="#000000" font-family="sans-serif" font-size="13" lengthAdjust="spacingAndGlyphs" textLength="144" x="304.664" y="229.0669">Multiple maches found</text><!--link State3 to *end--><path d="M350.19,604.266 C351.869,684.856 353.661,770.8645 354.36,804.4197 " fill="none" id="State3-*end" style="stroke: #A80036; stroke-width: 1.0;"/><polygon fill="#A80036" points="354.47,809.7055,358.2817,800.6241,354.3658,804.7066,350.2834,800.7908,354.47,809.7055" style="stroke: #A80036; stroke-width: 1.0;"/><text fill="#000000" font-family="sans-serif" font-size="13" lengthAdjust="spacingAndGlyphs" textLength="178" x="354.664" y="711.0669">Selection rejected / Aborted</text><!--link State3 to State4--><path d="M196.578,604.212 C191.632,613.957 187.27,623.907 183.664,634 C178.833,647.521 178.936,663.389 180.521,676.783 " fill="none" id="State3-State4" style="stroke: #A80036; stroke-width: 1.0;"/><polygon fill="#A80036" points="181.222,681.974,183.9798,672.5191,180.5519,677.0191,176.0519,673.5913,181.222,681.974" style="stroke: #A80036; stroke-width: 1.0;"/><text fill="#000000" font-family="sans-serif" font-size="13" lengthAdjust="spacingAndGlyphs" textLength="142" x="184.664" y="647.0669">Single match selected</text><!--link State4 to *end--><path d="M220.913,732.0818 C241.302,746.2685 267.778,764.4292 291.664,780 C308.939,791.2615 329.284,803.7126 342.079,811.4471 " fill="none" id="State4-*end" style="stroke: #A80036; stroke-width: 1.0;"/><polygon fill="#A80036" points="346.432,814.0724,340.7918,805.9985,342.1507,811.4897,336.6595,812.8486,346.432,814.0724" style="stroke: #A80036; stroke-width: 1.0;"/><text fill="#000000" font-family="sans-serif" font-size="13" lengthAdjust="spacingAndGlyphs" textLength="34" x="292.664" y="775.0669">Done</text><!--
@startuml
state "Awaiting input" as State1
state "Looking for matches" as State2
state "Processing selection" as State4

[*] -> State1
State1 - -> State2 : Input received
State1 - -> [*] : Timeout
State2 - -> State1 : No matches / To many matches
State2 - -> State4 : Single match
State2 - -> State3 : Multiple maches found
state State3 {
  [*] - -> State3A
  state "CursorOnMatch1" as State3A
  state "CursorOnMatch2" as State3B
  State3A - -> State3B: Arrow down
  State3A - -> [*]: Enter / Esc / Ctrl+c
  State3B - -> State3A: Arrow up
  State3B - -> [*]: Enter / Esc / Ctrl+c
}

State3 - -> [*] : Selection rejected / Aborted
State3 - -> State4 : Single match selected
State4 - -> [*]: Done
@enduml

PlantUML version 1.2019.08(Sat Jul 13 15:25:14 EDT 2019)
(GPL source distribution)
Java Runtime: OpenJDK Runtime Environment
JVM: OpenJDK 64-Bit Server VM
Java Version: 1.8.0_222-ga
Operating System: Linux
OS Version: 4.14.154
Default Encoding: UTF-8
Language: en
Country: GB
--></g></svg>