<?xml version="1.0" encoding="UTF-8" standalone="no"?><svg xmlns="http://www.w3.org/2000/svg" xmlns:xlink="http://www.w3.org/1999/xlink" contentScriptType="application/ecmascript" contentStyleType="text/css" height="421px" preserveAspectRatio="none" style="width:425px;height:421px;" version="1.1" viewBox="0 0 425 421" width="425px" zoomAndPan="magnify"><defs><filter height="300%" id="f103zpixkroz5v" width="300%" x="-1" y="-1"><feGaussianBlur result="blurOut" stdDeviation="2.0"/><feColorMatrix in="blurOut" result="blurOut2" type="matrix" values="0 0 0 0 0 0 0 0 0 0 0 0 0 0 0 0 0 0 .4 0"/><feOffset dx="4.0" dy="4.0" in="blurOut2" result="blurOut3"/><feBlend in="SourceGraphic" in2="blurOut3" mode="normal"/></filter></defs><g><!--class e_class--><rect fill="#FEFECE" filter="url(#f103zpixkroz5v)" height="73.6094" id="e_class" style="stroke: #A80036; stroke-width: 1.5;" width="204" x="121.75" y="8"/><ellipse cx="203" cy="24" fill="#ADD1B2" rx="11" ry="11" style="stroke: #A80036; stroke-width: 1.0;"/><path d="M207,30 L199,30 L199,18 L207,18 L207,20 L202,20 L202,23 L206,23 L206,25 L202,25 L202,28 L207,28 L207,30 Z "/><text fill="#000000" font-family="sans-serif" font-size="12" lengthAdjust="spacingAndGlyphs" textLength="33" x="223.5" y="28.1543">Class</text><line style="stroke: #A80036; stroke-width: 1.5;" x1="122.75" x2="324.75" y1="40" y2="40"/><ellipse cx="132.75" cy="51.9023" fill="#000000" rx="3" ry="3" style="stroke: #000000; stroke-width: 1.0;"/><text fill="#000000" font-family="sans-serif" font-size="11" lengthAdjust="spacingAndGlyphs" textLength="178" x="141.75" y="54.2104">class_id : number «generated»</text><line style="stroke: #A80036; stroke-width: 1.0;" x1="122.75" x2="324.75" y1="60.8047" y2="60.8047"/><ellipse cx="132.75" cy="72.707" fill="#000000" rx="3" ry="3" style="stroke: #000000; stroke-width: 1.0;"/><text fill="#000000" font-family="sans-serif" font-size="11" lengthAdjust="spacingAndGlyphs" textLength="65" x="141.75" y="75.0151">name : text</text><!--class e_student--><rect fill="#FEFECE" filter="url(#f103zpixkroz5v)" height="86.4141" id="e_student" style="stroke: #A80036; stroke-width: 1.5;" width="217" x="6" y="160"/><ellipse cx="85.25" cy="176" fill="#ADD1B2" rx="11" ry="11" style="stroke: #A80036; stroke-width: 1.0;"/><path d="M89.25,182 L81.25,182 L81.25,170 L89.25,170 L89.25,172 L84.25,172 L84.25,175 L88.25,175 L88.25,177 L84.25,177 L84.25,180 L89.25,180 L89.25,182 Z "/><text fill="#000000" font-family="sans-serif" font-size="12" lengthAdjust="spacingAndGlyphs" textLength="50" x="105.75" y="180.1543">Student</text><line style="stroke: #A80036; stroke-width: 1.5;" x1="7" x2="222" y1="192" y2="192"/><ellipse cx="17" cy="203.9023" fill="#000000" rx="3" ry="3" style="stroke: #000000; stroke-width: 1.0;"/><text fill="#000000" font-family="sans-serif" font-size="11" lengthAdjust="spacingAndGlyphs" textLength="191" x="26" y="206.2104">student_id : number «generated»</text><line style="stroke: #A80036; stroke-width: 1.0;" x1="7" x2="222" y1="212.8047" y2="212.8047"/><text fill="#000000" font-family="sans-serif" font-size="11" lengthAdjust="spacingAndGlyphs" textLength="133" x="12" y="227.0151">class_id : number «FK»</text><text fill="#000000" font-family="sans-serif" font-size="11" lengthAdjust="spacingAndGlyphs" textLength="118" x="12" y="239.8198">phone_number : text</text><!--class e_teacher--><rect fill="#FEFECE" filter="url(#f103zpixkroz5v)" height="86.4141" id="e_teacher" style="stroke: #A80036; stroke-width: 1.5;" width="217" x="128" y="324"/><ellipse cx="206.75" cy="340" fill="#ADD1B2" rx="11" ry="11" style="stroke: #A80036; stroke-width: 1.0;"/><path d="M210.75,346 L202.75,346 L202.75,334 L210.75,334 L210.75,336 L205.75,336 L205.75,339 L209.75,339 L209.75,341 L205.75,341 L205.75,344 L210.75,344 L210.75,346 Z "/><text fill="#000000" font-family="sans-serif" font-size="12" lengthAdjust="spacingAndGlyphs" textLength="51" x="227.25" y="344.1543">Teacher</text><line style="stroke: #A80036; stroke-width: 1.5;" x1="129" x2="344" y1="356" y2="356"/><ellipse cx="139" cy="367.9023" fill="#000000" rx="3" ry="3" style="stroke: #000000; stroke-width: 1.0;"/><text fill="#000000" font-family="sans-serif" font-size="11" lengthAdjust="spacingAndGlyphs" textLength="191" x="148" y="370.2104">teacher_id : number «generated»</text><line style="stroke: #A80036; stroke-width: 1.0;" x1="129" x2="344" y1="376.8047" y2="376.8047"/><ellipse cx="139" cy="388.707" fill="#000000" rx="3" ry="3" style="stroke: #000000; stroke-width: 1.0;"/><text fill="#000000" font-family="sans-serif" font-size="11" lengthAdjust="spacingAndGlyphs" textLength="133" x="148" y="391.0151">class_id : number «FK»</text><text fill="#000000" font-family="sans-serif" font-size="11" lengthAdjust="spacingAndGlyphs" textLength="107" x="148" y="403.8198">other_details : text</text><!--link e_class to e_student--><path d="M172.125,90.044 C172.125,90.044 172.125,151.748 172.125,151.748 " fill="none" id="e_class-e_student" style="stroke: #A80036; stroke-width: 1.0; stroke-dasharray: 7.0,7.0;"/><line style="stroke: #A80036; stroke-width: 1.0;" x1="172.125" x2="178.125" y1="151.748" y2="159.748"/><line style="stroke: #A80036; stroke-width: 1.0;" x1="172.125" x2="166.125" y1="151.748" y2="159.748"/><line style="stroke: #A80036; stroke-width: 1.0;" x1="172.125" x2="172.125" y1="151.748" y2="159.748"/><ellipse cx="172.125" cy="145.748" fill="none" rx="4" ry="4" style="stroke: #A80036; stroke-width: 1.0;"/><line style="stroke: #A80036; stroke-width: 1.0;" x1="172.125" x2="166.125" y1="90.044" y2="82.044"/><line style="stroke: #A80036; stroke-width: 1.0;" x1="172.125" x2="178.125" y1="90.044" y2="82.044"/><line style="stroke: #A80036; stroke-width: 1.0;" x1="172.125" x2="172.125" y1="90.044" y2="82.044"/><line style="stroke: #A80036; stroke-width: 1.0;" x1="168.125" x2="176.125" y1="92.044" y2="92.044"/><text fill="#000000" font-family="sans-serif" font-size="13" lengthAdjust="spacingAndGlyphs" textLength="112" x="135.25" y="125.0669">includes / goes to</text><!--link e_class to e_teacher--><path d="M273.625,90.252 C273.625,90.252 273.625,315.9579 273.625,315.9579 " fill="none" id="e_class-e_teacher" style="stroke: #A80036; stroke-width: 1.0; stroke-dasharray: 7.0,7.0;"/><line style="stroke: #A80036; stroke-width: 1.0;" x1="273.625" x2="279.625" y1="315.9579" y2="323.9579"/><line style="stroke: #A80036; stroke-width: 1.0;" x1="273.625" x2="267.625" y1="315.9579" y2="323.9579"/><line style="stroke: #A80036; stroke-width: 1.0;" x1="273.625" x2="273.625" y1="315.9579" y2="323.9579"/><ellipse cx="273.625" cy="309.9579" fill="none" rx="4" ry="4" style="stroke: #A80036; stroke-width: 1.0;"/><line style="stroke: #A80036; stroke-width: 1.0;" x1="269.625" x2="277.625" y1="86.252" y2="86.252"/><line style="stroke: #A80036; stroke-width: 1.0;" x1="269.625" x2="277.625" y1="89.252" y2="89.252"/><line style="stroke: #A80036; stroke-width: 1.0;" x1="273.625" x2="273.625" y1="90.252" y2="82.252"/><text fill="#000000" font-family="sans-serif" font-size="13" lengthAdjust="spacingAndGlyphs" textLength="119" x="294.25" y="207.0669">is taught / teaches</text><!--link e_student to e_teacher--><path d="M175.25,254.089 C175.25,254.089 175.25,315.9143 175.25,315.9143 " fill="none" id="e_student-e_teacher" style="stroke: #A80036; stroke-width: 1.0; stroke-dasharray: 7.0,7.0;"/><line style="stroke: #A80036; stroke-width: 1.0;" x1="175.25" x2="181.25" y1="315.9143" y2="323.9143"/><line style="stroke: #A80036; stroke-width: 1.0;" x1="175.25" x2="169.25" y1="315.9143" y2="323.9143"/><line style="stroke: #A80036; stroke-width: 1.0;" x1="175.25" x2="175.25" y1="315.9143" y2="323.9143"/><line style="stroke: #A80036; stroke-width: 1.0;" x1="179.25" x2="171.25" y1="313.9143" y2="313.9143"/><line style="stroke: #A80036; stroke-width: 1.0;" x1="175.25" x2="169.25" y1="254.089" y2="246.089"/><line style="stroke: #A80036; stroke-width: 1.0;" x1="175.25" x2="181.25" y1="254.089" y2="246.089"/><line style="stroke: #A80036; stroke-width: 1.0;" x1="175.25" x2="175.25" y1="254.089" y2="246.089"/><line style="stroke: #A80036; stroke-width: 1.0;" x1="171.25" x2="179.25" y1="256.089" y2="256.089"/><text fill="#000000" font-family="sans-serif" font-size="13" lengthAdjust="spacingAndGlyphs" textLength="23" x="180.25" y="289.0669">has</text><!--
@startuml
skinparam linetype ortho

entity "Class" as e_class {
  *class_id : number <<generated>>
  - -
  *name : text
}

entity "Student" as e_student {
  *student_id : number <<generated>>
  - -
  class_id : number <<FK>>
  phone_number : text
}

entity "Teacher" as e_teacher {
  *teacher_id : number <<generated>>
  - -
  *class_id : number <<FK>>
  other_details : text
}

e_class }|..o{ e_student: includes / goes to
e_class ||..o{ e_teacher: is taught / teaches
e_student }|..|{ e_teacher: has
@enduml

PlantUML version 1.2019.08(Sat Jul 13 15:25:14 EDT 2019)
(GPL source distribution)
Java Runtime: OpenJDK Runtime Environment
JVM: OpenJDK 64-Bit Server VM
Java Version: 1.8.0_222-ga
Operating System: Linux
OS Version: 4.14.154
Default Encoding: UTF-8
Language: en
Country: GB
--></g></svg>