<?xml version="1.0" encoding="UTF-8" standalone="no"?><svg xmlns="http://www.w3.org/2000/svg" xmlns:xlink="http://www.w3.org/1999/xlink" contentScriptType="application/ecmascript" contentStyleType="text/css" height="767px" preserveAspectRatio="none" style="width:555px;height:767px;" version="1.1" viewBox="0 0 555 767" width="555px" zoomAndPan="magnify"><defs><filter height="300%" id="f1ezinhcopmim5" width="300%" x="-1" y="-1"><feGaussianBlur result="blurOut" stdDeviation="2.0"/><feColorMatrix in="blurOut" result="blurOut2" type="matrix" values="0 0 0 0 0 0 0 0 0 0 0 0 0 0 0 0 0 0 .4 0"/><feOffset dx="4.0" dy="4.0" in="blurOut2" result="blurOut3"/><feBlend in="SourceGraphic" in2="blurOut3" mode="normal"/></filter></defs><g><rect fill="#FEFECE" filter="url(#f1ezinhcopmim5)" height="50" rx="12.5" ry="12.5" style="stroke: #A80036; stroke-width: 1.5;" width="116" x="201.5" y="8"/><line style="stroke: #A80036; stroke-width: 1.5;" x1="201.5" x2="317.5" y1="34.2969" y2="34.2969"/><text fill="#000000" font-family="sans-serif" font-size="14" lengthAdjust="spacingAndGlyphs" textLength="96" x="211.5" y="25.9951">Awaiting input</text><rect fill="#FEFECE" filter="url(#f1ezinhcopmim5)" height="50" rx="12.5" ry="12.5" style="stroke: #A80036; stroke-width: 1.5;" width="160" x="109" y="136"/><line style="stroke: #A80036; stroke-width: 1.5;" x1="109" x2="269" y1="162.2969" y2="162.2969"/><text fill="#000000" font-family="sans-serif" font-size="14" lengthAdjust="spacingAndGlyphs" textLength="140" x="119" y="153.9951">Looking for matches</text><rect fill="#FEFECE" filter="url(#f1ezinhcopmim5)" height="50" rx="12.5" ry="12.5" style="stroke: #A80036; stroke-width: 1.5;" width="164" x="6" y="608"/><line style="stroke: #A80036; stroke-width: 1.5;" x1="6" x2="170" y1="634.2969" y2="634.2969"/><text fill="#000000" font-family="sans-serif" font-size="14" lengthAdjust="spacingAndGlyphs" textLength="144" x="16" y="625.9951">Processing selection</text><ellipse cx="156" cy="33" fill="#000000" filter="url(#f1ezinhcopmim5)" rx="10" ry="10" style="stroke: none; stroke-width: 1.0;"/><ellipse cx="256" cy="746" fill="none" filter="url(#f1ezinhcopmim5)" rx="10" ry="10" style="stroke: #000000; stroke-width: 1.0;"/><ellipse cx="256.5" cy="746.5" fill="#000000" rx="6" ry="6" style="stroke: none; stroke-width: 1.0;"/><rect fill="#FEFECE" filter="url(#f1ezinhcopmim5)" height="266.2969" rx="12.5" ry="12.5" style="stroke: #A80036; stroke-width: 1.5;" width="200.5" x="152" y="264"/><rect fill="#FFFFFF" height="234" rx="12.5" ry="12.5" style="stroke: #FFFFFF; stroke-width: 1.0;" width="194.5" x="155" y="293.2969"/><line style="stroke: #A80036; stroke-width: 1.5;" x1="152" x2="352.5" y1="290.2969" y2="290.2969"/><text fill="#000000" font-family="sans-serif" font-size="14" lengthAdjust="spacingAndGlyphs" textLength="45" x="229.75" y="281.9951">State3</text><ellipse cx="231.25" cy="313.2969" fill="#000000" filter="url(#f1ezinhcopmim5)" rx="10" ry="10" style="stroke: none; stroke-width: 1.0;"/><rect fill="#FEFECE" filter="url(#f1ezinhcopmim5)" height="50" rx="12.5" ry="12.5" style="stroke: #A80036; stroke-width: 1.5;" width="137" x="163" y="361.2969"/><line style="stroke: #A80036; stroke-width: 1.5;" x1="163" x2="300" y1="387.5938" y2="387.5938"/><text fill="#000000" font-family="sans-serif" font-size="14" lengthAdjust="spacingAndGlyphs" textLength="117" x="173" y="379.292">CursorOnMatch1</text><rect fill="#FEFECE" filter="url(#f1ezinhcopmim5)" height="50" rx="12.5" ry="12.5" style="stroke: #A80036; stroke-width: 1.5;" width="137" x="163" y="465.2969"/><line style="stroke: #A80036; stroke-width: 1.5;" x1="163" x2="300" y1="491.5938" y2="491.5938"/><text fill="#000000" font-family="sans-serif" font-size="14" lengthAdjust="spacingAndGlyphs" textLength="117" x="173" y="483.292">CursorOnMatch2</text><!--link *start*State3 to State3A--><path d="M231.25,323.5789 C231.25,331.7929 231.25,344.2389 231.25,355.8079 " fill="none" id="*start*State3-State3A" style="stroke: #A80036; stroke-width: 1.0;"/><polygon fill="#A80036" points="231.25,361.0429,235.25,352.0429,231.25,356.0429,227.25,352.0429,231.25,361.0429" style="stroke: #A80036; stroke-width: 1.0;"/><!--link State3A to State3B--><path d="M196.1667,411.3639 C190.9231,416.6266 186.2699,422.6418 183.25,429.2969 C178.0431,440.7717 183.2141,451.9475 191.8132,461.4827 " fill="none" id="State3A-State3B" style="stroke: #A80036; stroke-width: 1.0;"/><polygon fill="#A80036" points="195.4026,465.19,192.0159,455.9417,191.9246,461.5978,186.2685,461.5065,195.4026,465.19" style="stroke: #A80036; stroke-width: 1.0;"/><text fill="#000000" font-family="sans-serif" font-size="13" lengthAdjust="spacingAndGlyphs" textLength="73" x="184.25" y="442.3638">Arrow down</text><!--link State3B to State3A--><path d="M250.7343,465.2075 C254.2383,459.6315 257.3708,453.5036 259.25,447.2969 C262.4564,436.7067 259.2929,425.5977 254.0964,415.8571 " fill="none" id="State3B-State3A" style="stroke: #A80036; stroke-width: 1.0;"/><polygon fill="#A80036" points="251.5813,411.4849,252.6028,421.2806,254.075,415.8187,259.5369,417.2908,251.5813,411.4849" style="stroke: #A80036; stroke-width: 1.0;"/><text fill="#000000" font-family="sans-serif" font-size="13" lengthAdjust="spacingAndGlyphs" textLength="56" x="261.25" y="442.3638">Arrow up</text><!--link *start to State1--><path d="M166.059,33 C176.055,33 186.051,33 196.047,33 " fill="none" id="*start-State1" style="stroke: #A80036; stroke-width: 1.0;"/><polygon fill="#A80036" points="201.275,33,192.275,29,196.275,33,192.275,37,201.275,33" style="stroke: #A80036; stroke-width: 1.0;"/><!--link State1 to State2--><path d="M201.328,53.491 C166.493,65.842 127.887,80.801 123,88 C112.2,103.908 123.916,119.849 140.32,132.674 " fill="none" id="State1-State2" style="stroke: #A80036; stroke-width: 1.0;"/><polygon fill="#A80036" points="144.581,135.865,139.7756,127.268,140.5791,132.8675,134.9796,133.671,144.581,135.865" style="stroke: #A80036; stroke-width: 1.0;"/><text fill="#000000" font-family="sans-serif" font-size="13" lengthAdjust="spacingAndGlyphs" textLength="90" x="124" y="101.0669">Input received</text><!--link State2 to State1--><path d="M203.016,135.879 C208.381,126.571 214.524,115.818 220,106 C227.894,91.846 236.492,76.021 243.6,62.819 " fill="none" id="State2-State1" style="stroke: #A80036; stroke-width: 1.0;"/><polygon fill="#A80036" points="246.148,58.081,238.3624,64.1129,243.7798,62.4846,245.4081,67.902,246.148,58.081" style="stroke: #A80036; stroke-width: 1.0;"/><text fill="#000000" font-family="sans-serif" font-size="13" lengthAdjust="spacingAndGlyphs" textLength="205" x="230" y="101.0669">No matches / To many matches</text><!--link State1 to *end--><path d="M316.695,40.319 C385.116,51.385 490,81.198 490,160 C490,160 490,160 490,634 C490,731.1783 323.219,743.3873 271.263,744.8329 " fill="none" id="State1-*end" style="stroke: #A80036; stroke-width: 1.0;"/><polygon fill="#A80036" points="266.055,744.9517,275.1441,748.7449,271.0537,744.8374,274.9612,740.747,266.055,744.9517" style="stroke: #A80036; stroke-width: 1.0;"/><text fill="#000000" font-family="sans-serif" font-size="13" lengthAdjust="spacingAndGlyphs" textLength="52" x="491" y="401.0669">Timeout</text><!--link State2 to State4--><path d="M133.114,186.095 C101.6258,202.937 65.0787,228.755 47,264 C-6.9565,369.191 24.5452,413.93 47,530 C51.9668,555.674 63.3618,583.084 72.8811,603.018 " fill="none" id="State2-State4" style="stroke: #A80036; stroke-width: 1.0;"/><polygon fill="#A80036" points="75.1302,607.663,74.809,597.8194,72.9516,603.1626,67.6084,601.3052,75.1302,607.663" style="stroke: #A80036; stroke-width: 1.0;"/><text fill="#000000" font-family="sans-serif" font-size="13" lengthAdjust="spacingAndGlyphs" textLength="84" x="48" y="401.0669">Single match</text><!--link State2 to State3--><path d="M195.505,186.161 C200.394,204.319 207.524,230.804 215.084,258.883 " fill="none" id="State2-State3" style="stroke: #A80036; stroke-width: 1.0;"/><polygon fill="#A80036" points="216.4,263.77,217.9227,254.0396,215.1001,258.9419,210.1978,256.1194,216.4,263.77" style="stroke: #A80036; stroke-width: 1.0;"/><text fill="#000000" font-family="sans-serif" font-size="13" lengthAdjust="spacingAndGlyphs" textLength="144" x="209" y="229.0669">Multiple maches found</text><!--link State3 to *end--><path d="M253.524,530.176 C254.413,607.304 255.435,696.0016 255.831,730.3553 " fill="none" id="State3-*end" style="stroke: #A80036; stroke-width: 1.0;"/><polygon fill="#A80036" points="255.893,735.7591,259.7889,726.7135,255.8353,730.7594,251.7894,726.8059,255.893,735.7591" style="stroke: #A80036; stroke-width: 1.0;"/><text fill="#000000" font-family="sans-serif" font-size="13" lengthAdjust="spacingAndGlyphs" textLength="178" x="255" y="637.0669">Selection rejected / Aborted</text><!--link State3 to State4--><path d="M151.9,505.067 C142.975,513.682 133.933,522.1 125,530 C108.353,544.721 94.9381,540.124 85,560 C78.5294,572.941 78.5173,588.884 80.4489,602.475 " fill="none" id="State3-State4" style="stroke: #A80036; stroke-width: 1.0;"/><polygon fill="#A80036" points="81.3103,607.75,83.8078,598.2231,80.5046,602.8153,75.9123,599.5122,81.3103,607.75" style="stroke: #A80036; stroke-width: 1.0;"/><text fill="#000000" font-family="sans-serif" font-size="13" lengthAdjust="spacingAndGlyphs" textLength="142" x="86" y="573.0669">Single match selected</text><!--link State4 to *end--><path d="M122.249,658.0818 C142.639,672.2685 169.114,690.4292 193,706 C210.276,717.2615 230.62,729.7126 243.415,737.4471 " fill="none" id="State4-*end" style="stroke: #A80036; stroke-width: 1.0;"/><polygon fill="#A80036" points="247.768,740.0724,242.1258,731.9999,243.4861,737.4907,237.9952,738.851,247.768,740.0724" style="stroke: #A80036; stroke-width: 1.0;"/><text fill="#000000" font-family="sans-serif" font-size="13" lengthAdjust="spacingAndGlyphs" textLength="34" x="194" y="701.0669">Done</text><!--
@startuml
state "Awaiting input" as State1
state "Looking for matches" as State2
state "Processing selection" as State4

[*] -> State1
State1 - -> State2 : Input received
State1 - -> [*] : Timeout
State2 - -> State1 : No matches / To many matches
State2 - -> State4 : Single match
State2 - -> State3 : Multiple maches found
state State3 {
  [*] - -> State3A
  state "CursorOnMatch1" as State3A
  state "CursorOnMatch2" as State3B
  State3A - -> State3B: Arrow down
  State3B - -> State3A: Arrow up
}

State3 - -> [*] : Selection rejected / Aborted
State3 - -> State4 : Single match selected
State4 - -> [*]: Done
@enduml

PlantUML version 1.2019.08(Sat Jul 13 15:25:14 EDT 2019)
(GPL source distribution)
Java Runtime: OpenJDK Runtime Environment
JVM: OpenJDK 64-Bit Server VM
Java Version: 1.8.0_222-ga
Operating System: Linux
OS Version: 4.14.154
Default Encoding: UTF-8
Language: en
Country: GB
--></g></svg>