<?xml version="1.0" encoding="UTF-8" standalone="no"?>
<!DOCTYPE svg PUBLIC "-//W3C//DTD SVG 1.1//EN"
 "http://www.w3.org/Graphics/SVG/1.1/DTD/svg11.dtd">
<!-- Generated by graphviz version 2.32.0 (20191109.1321)
 -->
<!-- Title: foo Pages: 1 -->
<svg width="120pt" height="222pt"
 viewBox="0.00 0.00 120.00 222.00" xmlns="http://www.w3.org/2000/svg" xmlns:xlink="http://www.w3.org/1999/xlink">
<g id="graph1" class="graph" transform="scale(1 1) rotate(0) translate(4 218)">
<title>foo</title>
<polygon fill="white" stroke="white" points="-4,5 -4,-218 117,-218 117,5 -4,5"/>
<!-- node1 -->
<g id="node1" class="node"><title>node1</title>
<path fill="none" stroke="black" d="M74.5,-214C74.5,-214 37.5,-214 37.5,-214 31.5,-214 25.5,-208 25.5,-202 25.5,-202 25.5,-190 25.5,-190 25.5,-184 31.5,-178 37.5,-178 37.5,-178 74.5,-178 74.5,-178 80.5,-178 86.5,-184 86.5,-190 86.5,-190 86.5,-202 86.5,-202 86.5,-208 80.5,-214 74.5,-214"/>
<text text-anchor="middle" x="56" y="-192.3" font-family="Times-Roman" font-size="14.00">node1</text>
</g>
<!-- node2 -->
<g id="node2" class="node"><title>node2</title>
<path fill="yellow" stroke="black" d="M44.5666,-138.356C44.5666,-138.356 10.9517,-127.644 10.9517,-127.644 5.23499,-125.822 5.23499,-122.178 10.9517,-120.356 10.9517,-120.356 44.5666,-109.644 44.5666,-109.644 50.2833,-107.822 61.7167,-107.822 67.4334,-109.644 67.4334,-109.644 101.048,-120.356 101.048,-120.356 106.765,-122.178 106.765,-125.822 101.048,-127.644 101.048,-127.644 67.4334,-138.356 67.4334,-138.356 61.7167,-140.178 50.2833,-140.178 44.5666,-138.356"/>
<text text-anchor="middle" x="56" y="-120.3" font-family="Times-Roman" font-size="14.00">node2</text>
</g>
<!-- node1&#45;&gt;node2 -->
<g id="edge2" class="edge"><title>node1&#45;&gt;node2</title>
<path fill="none" stroke="black" d="M56,-177.697C56,-169.983 56,-160.712 56,-152.112"/>
<polygon fill="black" stroke="black" points="59.5001,-152.104 56,-142.104 52.5001,-152.104 59.5001,-152.104"/>
</g>
<!-- node3 -->
<g id="node3" class="node"><title>node3</title>
<path fill="none" stroke="black" d="M41,-0.5C41,-0.5 71,-0.5 71,-0.5 77,-0.5 83,-6.5 83,-12.5 83,-12.5 83,-57.5 83,-57.5 83,-63.5 77,-69.5 71,-69.5 71,-69.5 41,-69.5 41,-69.5 35,-69.5 29,-63.5 29,-57.5 29,-57.5 29,-12.5 29,-12.5 29,-6.5 35,-0.5 41,-0.5"/>
<text text-anchor="middle" x="56" y="-54.3" font-family="Times-Roman" font-size="14.00">a</text>
<polyline fill="none" stroke="black" points="29,-46.5 83,-46.5 "/>
<text text-anchor="middle" x="56" y="-31.3" font-family="Times-Roman" font-size="14.00">b</text>
<polyline fill="none" stroke="black" points="29,-23.5 83,-23.5 "/>
<text text-anchor="middle" x="56" y="-8.3" font-family="Times-Roman" font-size="14.00">c</text>
</g>
<!-- node2&#45;&gt;node3 -->
<g id="edge3" class="edge"><title>node2&#45;&gt;node3</title>
<path fill="none" stroke="black" d="M56,-105.812C56,-98.3278 56,-89.1798 56,-80.0019"/>
<polygon fill="black" stroke="black" points="59.5001,-79.7143 56,-69.7143 52.5001,-79.7143 59.5001,-79.7143"/>
</g>
</g>
</svg>
