<?xml version="1.0" encoding="UTF-8" standalone="no"?><svg xmlns="http://www.w3.org/2000/svg" xmlns:xlink="http://www.w3.org/1999/xlink" contentScriptType="application/ecmascript" contentStyleType="text/css" height="372px" preserveAspectRatio="none" style="width:361px;height:372px;" version="1.1" viewBox="0 0 361 372" width="361px" zoomAndPan="magnify"><defs><filter height="300%" id="ftr7dmbxscllx" width="300%" x="-1" y="-1"><feGaussianBlur result="blurOut" stdDeviation="2.0"/><feColorMatrix in="blurOut" result="blurOut2" type="matrix" values="0 0 0 0 0 0 0 0 0 0 0 0 0 0 0 0 0 0 .4 0"/><feOffset dx="4.0" dy="4.0" in="blurOut2" result="blurOut3"/><feBlend in="SourceGraphic" in2="blurOut3" mode="normal"/></filter></defs><g><!--class Animal--><rect fill="#FEFECE" filter="url(#ftr7dmbxscllx)" height="73.6094" id="Animal" style="stroke: #A80036; stroke-width: 1.5;" width="118" x="184.4497" y="8"/><ellipse cx="219.6997" cy="24" fill="#B4A7E5" rx="11" ry="11" style="stroke: #A80036; stroke-width: 1.0;"/><path d="M216.1997,20 L216.1997,18 L223.1997,18 L223.1997,20 L221.1997,20 L221.1997,28 L223.1997,28 L223.1997,30 L216.1997,30 L216.1997,28 L218.1997,28 L218.1997,20 L216.1997,20 Z "/><text fill="#000000" font-family="sans-serif" font-size="12" font-style="italic" lengthAdjust="spacingAndGlyphs" textLength="41" x="238.1997" y="28.1543">Animal</text><line style="stroke: #A80036; stroke-width: 1.5;" x1="185.4497" x2="301.4497" y1="40" y2="40"/><line style="stroke: #A80036; stroke-width: 1.5;" x1="185.4497" x2="301.4497" y1="48" y2="48"/><ellipse cx="195.4497" cy="59.9023" fill="#84BE84" rx="3" ry="3" style="stroke: #038048; stroke-width: 1.0;"/><text fill="#000000" font-family="sans-serif" font-size="11" lengthAdjust="spacingAndGlyphs" textLength="88" x="204.4497" y="62.2104">get_name(): str</text><ellipse cx="195.4497" cy="72.707" fill="#84BE84" rx="3" ry="3" style="stroke: #038048; stroke-width: 1.0;"/><text fill="#000000" font-family="sans-serif" font-size="11" lengthAdjust="spacingAndGlyphs" textLength="92" x="204.4497" y="75.0151">get_legs(): Leg[]</text><!--class Leg--><rect fill="#FEFECE" filter="url(#ftr7dmbxscllx)" height="48" id="Leg" style="stroke: #A80036; stroke-width: 1.5;" width="54" x="193.4497" y="307"/><ellipse cx="208.4497" cy="323" fill="#ADD1B2" rx="11" ry="11" style="stroke: #A80036; stroke-width: 1.0;"/><path d="M211.4497,328 Q210.8403,328.5 210.1841,328.75 Q209.5278,329 208.7935,329 Q206.1841,329 204.8169,327.4609 Q203.4497,325.9219 203.4497,323 Q203.4497,320.0781 204.8169,318.5391 Q206.1841,317 208.7935,317 Q209.5278,317 210.1997,317.25 Q210.8716,317.5 211.4497,318 L211.4497,321 Q210.8403,319.9688 210.2622,319.4844 Q209.6841,319 209.0747,319 Q207.7778,319 207.1138,320.0078 Q206.4497,321.0156 206.4497,323 Q206.4497,324.9844 207.1138,325.9922 Q207.7778,327 209.0747,327 Q209.6841,327 210.2622,326.5156 Q210.8403,326.0313 211.4497,325 L211.4497,328 Z "/><text fill="#000000" font-family="sans-serif" font-size="12" lengthAdjust="spacingAndGlyphs" textLength="22" x="222.4497" y="327.1543">Leg</text><line style="stroke: #A80036; stroke-width: 1.5;" x1="194.4497" x2="246.4497" y1="339" y2="339"/><line style="stroke: #A80036; stroke-width: 1.5;" x1="194.4497" x2="246.4497" y1="347" y2="347"/><!--class Fin--><rect fill="#FEFECE" filter="url(#ftr7dmbxscllx)" height="48" id="Fin" style="stroke: #A80036; stroke-width: 1.5;" width="50" x="285.4497" y="307"/><ellipse cx="300.4497" cy="323" fill="#ADD1B2" rx="11" ry="11" style="stroke: #A80036; stroke-width: 1.0;"/><path d="M303.4497,328 Q302.8403,328.5 302.1841,328.75 Q301.5278,329 300.7935,329 Q298.1841,329 296.8169,327.4609 Q295.4497,325.9219 295.4497,323 Q295.4497,320.0781 296.8169,318.5391 Q298.1841,317 300.7935,317 Q301.5278,317 302.1997,317.25 Q302.8716,317.5 303.4497,318 L303.4497,321 Q302.8403,319.9688 302.2622,319.4844 Q301.6841,319 301.0747,319 Q299.7778,319 299.1138,320.0078 Q298.4497,321.0156 298.4497,323 Q298.4497,324.9844 299.1138,325.9922 Q299.7778,327 301.0747,327 Q301.6841,327 302.2622,326.5156 Q302.8403,326.0313 303.4497,325 L303.4497,328 Z "/><text fill="#000000" font-family="sans-serif" font-size="12" lengthAdjust="spacingAndGlyphs" textLength="18" x="314.4497" y="327.1543">Fin</text><line style="stroke: #A80036; stroke-width: 1.5;" x1="286.4497" x2="334.4497" y1="339" y2="339"/><line style="stroke: #A80036; stroke-width: 1.5;" x1="286.4497" x2="334.4497" y1="347" y2="347"/><!--class Dog--><rect fill="#FEFECE" filter="url(#ftr7dmbxscllx)" height="60.8047" id="Dog" style="stroke: #A80036; stroke-width: 1.5;" width="66" x="166.4497" y="160.5"/><ellipse cx="185.4997" cy="176.5" fill="#ADD1B2" rx="11" ry="11" style="stroke: #A80036; stroke-width: 1.0;"/><path d="M188.4997,181.5 Q187.8903,182 187.2341,182.25 Q186.5778,182.5 185.8435,182.5 Q183.2341,182.5 181.8669,180.9609 Q180.4997,179.4219 180.4997,176.5 Q180.4997,173.5781 181.8669,172.0391 Q183.2341,170.5 185.8435,170.5 Q186.5778,170.5 187.2497,170.75 Q187.9216,171 188.4997,171.5 L188.4997,174.5 Q187.8903,173.4688 187.3122,172.9844 Q186.7341,172.5 186.1247,172.5 Q184.8278,172.5 184.1638,173.5078 Q183.4997,174.5156 183.4997,176.5 Q183.4997,178.4844 184.1638,179.4922 Q184.8278,180.5 186.1247,180.5 Q186.7341,180.5 187.3122,180.0156 Q187.8903,179.5313 188.4997,178.5 L188.4997,181.5 Z "/><text fill="#000000" font-family="sans-serif" font-size="12" lengthAdjust="spacingAndGlyphs" textLength="25" x="200.3997" y="180.6543">Dog</text><line style="stroke: #A80036; stroke-width: 1.5;" x1="167.4497" x2="231.4497" y1="192.5" y2="192.5"/><line style="stroke: #A80036; stroke-width: 1.5;" x1="167.4497" x2="231.4497" y1="200.5" y2="200.5"/><ellipse cx="177.4497" cy="212.4023" fill="#84BE84" rx="3" ry="3" style="stroke: #038048; stroke-width: 1.0;"/><text fill="#000000" font-family="sans-serif" font-size="11" lengthAdjust="spacingAndGlyphs" textLength="40" x="186.4497" y="214.7104">barks()</text><!--class Dolphin--><rect fill="#FEFECE" filter="url(#ftr7dmbxscllx)" height="48" id="Dolphin" style="stroke: #A80036; stroke-width: 1.5;" width="79" x="271.1997" y="167"/><ellipse cx="286.1997" cy="183" fill="#ADD1B2" rx="11" ry="11" style="stroke: #A80036; stroke-width: 1.0;"/><path d="M289.1997,188 Q288.5903,188.5 287.9341,188.75 Q287.2778,189 286.5435,189 Q283.9341,189 282.5669,187.4609 Q281.1997,185.9219 281.1997,183 Q281.1997,180.0781 282.5669,178.5391 Q283.9341,177 286.5435,177 Q287.2778,177 287.9497,177.25 Q288.6216,177.5 289.1997,178 L289.1997,181 Q288.5903,179.9688 288.0122,179.4844 Q287.4341,179 286.8247,179 Q285.5278,179 284.8638,180.0078 Q284.1997,181.0156 284.1997,183 Q284.1997,184.9844 284.8638,185.9922 Q285.5278,187 286.8247,187 Q287.4341,187 288.0122,186.5156 Q288.5903,186.0313 289.1997,185 L289.1997,188 Z "/><text fill="#000000" font-family="sans-serif" font-size="12" lengthAdjust="spacingAndGlyphs" textLength="47" x="300.1997" y="187.1543">Dolphin</text><line style="stroke: #A80036; stroke-width: 1.5;" x1="272.1997" x2="349.1997" y1="199" y2="199"/><line style="stroke: #A80036; stroke-width: 1.5;" x1="272.1997" x2="349.1997" y1="207" y2="207"/><!--class Lion--><rect fill="#FEFECE" filter="url(#ftr7dmbxscllx)" height="48" id="Lion" style="stroke: #A80036; stroke-width: 1.5;" width="57" x="25.1997" y="21"/><ellipse cx="40.1997" cy="37" fill="#ADD1B2" rx="11" ry="11" style="stroke: #A80036; stroke-width: 1.0;"/><path d="M43.1997,42 Q42.5903,42.5 41.9341,42.75 Q41.2778,43 40.5435,43 Q37.9341,43 36.5669,41.4609 Q35.1997,39.9219 35.1997,37 Q35.1997,34.0781 36.5669,32.5391 Q37.9341,31 40.5435,31 Q41.2778,31 41.9497,31.25 Q42.6216,31.5 43.1997,32 L43.1997,35 Q42.5903,33.9688 42.0122,33.4844 Q41.4341,33 40.8247,33 Q39.5278,33 38.8638,34.0078 Q38.1997,35.0156 38.1997,37 Q38.1997,38.9844 38.8638,39.9922 Q39.5278,41 40.8247,41 Q41.4341,41 42.0122,40.5156 Q42.5903,40.0313 43.1997,39 L43.1997,42 Z "/><text fill="#000000" font-family="sans-serif" font-size="12" lengthAdjust="spacingAndGlyphs" textLength="25" x="54.1997" y="41.1543">Lion</text><line style="stroke: #A80036; stroke-width: 1.5;" x1="26.1997" x2="81.1997" y1="53" y2="53"/><line style="stroke: #A80036; stroke-width: 1.5;" x1="26.1997" x2="81.1997" y1="61" y2="61"/><!--class Master--><rect fill="#FEFECE" filter="url(#ftr7dmbxscllx)" height="60.8047" id="Master" style="stroke: #A80036; stroke-width: 1.5;" width="75" x="8.1997" y="300.5"/><ellipse cx="23.1997" cy="316.5" fill="#ADD1B2" rx="11" ry="11" style="stroke: #A80036; stroke-width: 1.0;"/><path d="M26.1997,321.5 Q25.5903,322 24.9341,322.25 Q24.2778,322.5 23.5435,322.5 Q20.9341,322.5 19.5669,320.9609 Q18.1997,319.4219 18.1997,316.5 Q18.1997,313.5781 19.5669,312.0391 Q20.9341,310.5 23.5435,310.5 Q24.2778,310.5 24.9497,310.75 Q25.6216,311 26.1997,311.5 L26.1997,314.5 Q25.5903,313.4688 25.0122,312.9844 Q24.4341,312.5 23.8247,312.5 Q22.5278,312.5 21.8638,313.5078 Q21.1997,314.5156 21.1997,316.5 Q21.1997,318.4844 21.8638,319.4922 Q22.5278,320.5 23.8247,320.5 Q24.4341,320.5 25.0122,320.0156 Q25.5903,319.5313 26.1997,318.5 L26.1997,321.5 Z "/><text fill="#000000" font-family="sans-serif" font-size="12" lengthAdjust="spacingAndGlyphs" textLength="43" x="37.1997" y="320.6543">Master</text><line style="stroke: #A80036; stroke-width: 1.5;" x1="9.1997" x2="82.1997" y1="332.5" y2="332.5"/><line style="stroke: #A80036; stroke-width: 1.5;" x1="9.1997" x2="82.1997" y1="340.5" y2="340.5"/><ellipse cx="19.1997" cy="352.4023" fill="#84BE84" rx="3" ry="3" style="stroke: #038048; stroke-width: 1.0;"/><text fill="#000000" font-family="sans-serif" font-size="11" lengthAdjust="spacingAndGlyphs" textLength="27" x="28.1997" y="354.7104">run()</text><!--link Animal to Dog--><path d="M223.8537,101.293 C222.6737,104.907 221.5297,108.5 220.4497,112 C215.5727,127.813 210.7297,145.621 206.9257,160.224 " fill="none" id="Animal-Dog" style="stroke: #A80036; stroke-width: 1.0;"/><polygon fill="none" points="217.2867,98.861,230.3217,82.155,230.5497,103.343,217.2867,98.861" style="stroke: #A80036; stroke-width: 1.0;"/><text fill="#000000" font-family="sans-serif" font-size="13" lengthAdjust="spacingAndGlyphs" textLength="47" x="221.4497" y="125.0669">inherits</text><!--link Animal to Dolphin--><path d="M269.0547,100.438 C270.8837,104.35 272.6967,108.234 274.4497,112 C283.0117,130.388 292.6367,151.252 299.7787,166.773 " fill="none" id="Animal-Dolphin" style="stroke: #A80036; stroke-width: 1.0;"/><polygon fill="none" points="262.6977,103.371,260.5487,82.29,275.3747,97.429,262.6977,103.371" style="stroke: #A80036; stroke-width: 1.0;"/><text fill="#000000" font-family="sans-serif" font-size="13" lengthAdjust="spacingAndGlyphs" textLength="47" x="283.4497" y="125.0669">inherits</text><!--link Lion to Animal--><path d="M81.8946,45 C103.6587,45 134.7887,45 163.9227,45 " fill="none" id="Lion-Animal" style="stroke: #A80036; stroke-width: 1.0;"/><polygon fill="none" points="164.1267,38,184.1267,45,164.1267,52,164.1267,38" style="stroke: #A80036; stroke-width: 1.0;"/><text fill="#000000" font-family="sans-serif" font-size="13" lengthAdjust="spacingAndGlyphs" textLength="47" x="108.9497" y="37.0669">inherits</text><!--link Lion to Dog--><path d="M66.1923,80.2337 C66.1923,80.2337 84.2833,116.169 97.4497,130 C113.5207,146.882 135.3807,160.585 154.7417,170.611 " fill="none" id="Lion-Dog" style="stroke: #A80036; stroke-width: 1.0;"/><polygon fill="#A80036" points="166.3997,176.374,160.1044,168.7998,161.9175,174.1582,156.5591,175.9713,166.3997,176.374" style="stroke: #A80036; stroke-width: 1.0;"/><line style="stroke: #A80036; stroke-width: 1.0;" x1="161.9175" x2="154.7462" y1="174.1582" y2="170.613"/><polygon fill="#FFFFFF" points="61.5122,69.184,60.169,76.2689,66.1923,80.2337,67.5355,73.1488,61.5122,69.184" style="stroke: #A80036; stroke-width: 1.0;"/><text fill="#000000" font-family="sans-serif" font-size="13" lengthAdjust="spacingAndGlyphs" textLength="107" x="98.4497" y="125.0669">hold in its mouth</text><text fill="#000000" font-family="sans-serif" font-size="13" lengthAdjust="spacingAndGlyphs" textLength="21" x="137.578" y="168.9248">0-1</text><!--link Lion to Master--><path d="M47.6567,80.9113 C47.6567,80.9113 40.1679,133.772 38.4497,160 C36.6485,187.497 37.5581,194.459 38.4497,222 C39.1462,243.514 40.6212,267.4015 42.0384,287.2292 " fill="none" id="Lion-Master" style="stroke: #A80036; stroke-width: 1.0;"/><polygon fill="#A80036" points="43,300.2285,46.325,290.9579,42.631,295.2421,38.3468,291.5482,43,300.2285" style="stroke: #A80036; stroke-width: 1.0;"/><line style="stroke: #A80036; stroke-width: 1.0;" x1="42.631" x2="42.0409" y1="295.2421" y2="287.264"/><polygon fill="#FFFFFF" points="49.5147,69.056,44.6339,74.3643,47.6567,80.9113,52.5375,75.603,49.5147,69.056" style="stroke: #A80036; stroke-width: 1.0;"/><text fill="#000000" font-family="sans-serif" font-size="13" lengthAdjust="spacingAndGlyphs" textLength="107" x="39.4497" y="195.0669">hold in its mouth</text><text fill="#000000" font-family="sans-serif" font-size="13" lengthAdjust="spacingAndGlyphs" textLength="21" x="18.4707" y="289.3294">0-1</text><!--link Dog to Leg--><path d="M205.7601,233.4674 C205.7601,233.4674 212.1837,275.6791 214.9467,293.8363 " fill="none" id="Dog-Leg" style="stroke: #A80036; stroke-width: 1.0;"/><polygon fill="#A80036" points="216.9247,306.8326,219.5252,297.3333,216.1725,301.8895,211.6163,298.5368,216.9247,306.8326" style="stroke: #A80036; stroke-width: 1.0;"/><line style="stroke: #A80036; stroke-width: 1.0;" x1="216.1725" x2="214.9682" y1="301.8895" y2="293.9806"/><polygon fill="#A80036" points="203.9547,221.604,200.9029,228.1375,205.7601,233.4674,208.8119,226.9339,203.9547,221.604" style="stroke: #A80036; stroke-width: 1.0;"/><text fill="#000000" font-family="sans-serif" font-size="13" lengthAdjust="spacingAndGlyphs" textLength="23" x="212.4497" y="265.0669">has</text><text fill="#000000" font-family="sans-serif" font-size="13" lengthAdjust="spacingAndGlyphs" textLength="8" x="206.0599" y="295.768">4</text><!--link Dolphin to Leg--><path d="M288.831,225.1496 C288.831,225.1496 256.5927,274.5803 242.7877,295.7487 " fill="none" id="Dolphin-Leg" style="stroke: #A80036; stroke-width: 1.0;"/><polygon fill="#A80036" points="235.5627,306.8265,243.8296,301.4732,238.2941,302.6385,237.1288,297.103,235.5627,306.8265" style="stroke: #A80036; stroke-width: 1.0;"/><line style="stroke: #A80036; stroke-width: 1.0;" x1="238.2941" x2="242.6647" y1="302.6385" y2="295.9376"/><polygon fill="#A80036" points="295.3857,215.098,288.7578,217.9389,288.831,225.1496,295.4589,222.3087,295.3857,215.098" style="stroke: #A80036; stroke-width: 1.0;"/><text fill="#000000" font-family="sans-serif" font-size="13" lengthAdjust="spacingAndGlyphs" textLength="8" x="228.7749" y="295.7606">0</text><!--link Dolphin to Fin--><path d="M310.4497,227.098 C310.4497,227.098 310.4497,273.5997 310.4497,293.7631 " fill="none" id="Dolphin-Fin" style="stroke: #A80036; stroke-width: 1.0;"/><polygon fill="#A80036" points="310.4497,306.8265,314.4497,297.8265,310.4497,301.8265,306.4497,297.8265,310.4497,306.8265" style="stroke: #A80036; stroke-width: 1.0;"/><line style="stroke: #A80036; stroke-width: 1.0;" x1="310.4497" x2="310.4497" y1="301.8265" y2="293.8266"/><polygon fill="#A80036" points="310.4497,215.098,306.4497,221.098,310.4497,227.098,314.4497,221.098,310.4497,215.098" style="stroke: #A80036; stroke-width: 1.0;"/><text fill="#000000" font-family="sans-serif" font-size="13" lengthAdjust="spacingAndGlyphs" textLength="8" x="300.356" y="295.7606">1</text><!--link Dog to Master--><path d="M166.1857,209.076 C146.9547,219.869 122.9777,234.972 104.4497,252 C90.5147,264.8075 77.5289,281.25 67.3077,295.7337 " fill="none" id="Dog-Master" style="stroke: #A80036; stroke-width: 1.0; stroke-dasharray: 7.0,7.0;"/><polygon fill="#A80036" points="64.2263,300.1596,72.6514,295.0589,67.0832,296.0562,66.0859,290.4879,64.2263,300.1596" style="stroke: #A80036; stroke-width: 1.0;"/><text fill="#000000" font-family="sans-serif" font-size="13" lengthAdjust="spacingAndGlyphs" textLength="94" x="105.4497" y="265.0669">depends on its</text><!--
@startuml
interface Animal {
    +get_name(): str
    +get_legs(): Leg[]
}

class Leg
class Fin

class Dog {
    +barks()
}

Animal <|- - Dog: inherits
Animal <|- - Dolphin: inherits
Lion -|> Animal: inherits

Lion o- -> "0-1" Dog: hold in its mouth

Lion o- -> "0-1" Master: hold in its mouth

Dog *- -> "4" Leg: has

Dolphin *- -> "0" Leg
Dolphin *- -> "1" Fin

class Master {
    +run()
}

Dog ..> Master: depends on its

@enduml

PlantUML version 1.2019.08(Sat Jul 13 15:25:14 EDT 2019)
(GPL source distribution)
Java Runtime: OpenJDK Runtime Environment
JVM: OpenJDK 64-Bit Server VM
Java Version: 1.8.0_222-ga
Operating System: Linux
OS Version: 4.14.154
Default Encoding: UTF-8
Language: en
Country: GB
--></g></svg>