<?xml version="1.0" encoding="UTF-8" standalone="no"?><svg xmlns="http://www.w3.org/2000/svg" xmlns:xlink="http://www.w3.org/1999/xlink" contentScriptType="application/ecmascript" contentStyleType="text/css" height="175px" preserveAspectRatio="none" style="width:650px;height:175px;" version="1.1" viewBox="0 0 650 175" width="650px" zoomAndPan="magnify"><defs><filter height="300%" id="f15st633trgn1j" width="300%" x="-1" y="-1"><feGaussianBlur result="blurOut" stdDeviation="2.0"/><feColorMatrix in="blurOut" result="blurOut2" type="matrix" values="0 0 0 0 0 0 0 0 0 0 0 0 0 0 0 0 0 0 .4 0"/><feOffset dx="4.0" dy="4.0" in="blurOut2" result="blurOut3"/><feBlend in="SourceGraphic" in2="blurOut3" mode="normal"/></filter></defs><g><!--class MyInterface--><rect fill="#FEFECE" filter="url(#f15st633trgn1j)" height="48" id="MyInterface" style="stroke: #A80036; stroke-width: 1.5;" width="106" x="269.5" y="8"/><ellipse cx="284.5" cy="24" fill="#B4A7E5" rx="11" ry="11" style="stroke: #A80036; stroke-width: 1.0;"/><path d="M281,20 L281,18 L288,18 L288,20 L286,20 L286,28 L288,28 L288,30 L281,30 L281,28 L283,28 L283,20 L281,20 Z "/><text fill="#000000" font-family="sans-serif" font-size="12" font-style="italic" lengthAdjust="spacingAndGlyphs" textLength="74" x="298.5" y="28.1543">MyInterface</text><line style="stroke: #A80036; stroke-width: 1.5;" x1="270.5" x2="374.5" y1="40" y2="40"/><line style="stroke: #A80036; stroke-width: 1.5;" x1="270.5" x2="374.5" y1="48" y2="48"/><!--class MyDescendant0--><rect fill="#FEFECE" filter="url(#f15st633trgn1j)" height="48" id="MyDescendant0" style="stroke: #A80036; stroke-width: 1.5;" width="132" x="6" y="116"/><ellipse cx="21" cy="132" fill="#ADD1B2" rx="11" ry="11" style="stroke: #A80036; stroke-width: 1.0;"/><path d="M24,137 Q23.3906,137.5 22.7344,137.75 Q22.0781,138 21.3438,138 Q18.7344,138 17.3672,136.4609 Q16,134.9219 16,132 Q16,129.0781 17.3672,127.5391 Q18.7344,126 21.3438,126 Q22.0781,126 22.75,126.25 Q23.4219,126.5 24,127 L24,130 Q23.3906,128.9688 22.8125,128.4844 Q22.2344,128 21.625,128 Q20.3281,128 19.6641,129.0078 Q19,130.0156 19,132 Q19,133.9844 19.6641,134.9922 Q20.3281,136 21.625,136 Q22.2344,136 22.8125,135.5156 Q23.3906,135.0313 24,134 L24,137 Z "/><text fill="#000000" font-family="sans-serif" font-size="12" lengthAdjust="spacingAndGlyphs" textLength="100" x="35" y="136.1543">MyDescendant0</text><line style="stroke: #A80036; stroke-width: 1.5;" x1="7" x2="137" y1="148" y2="148"/><line style="stroke: #A80036; stroke-width: 1.5;" x1="7" x2="137" y1="156" y2="156"/><!--class MyDescendant1--><rect fill="#FEFECE" filter="url(#f15st633trgn1j)" height="48" id="MyDescendant1" style="stroke: #A80036; stroke-width: 1.5;" width="132" x="173" y="116"/><ellipse cx="188" cy="132" fill="#ADD1B2" rx="11" ry="11" style="stroke: #A80036; stroke-width: 1.0;"/><path d="M191,137 Q190.3906,137.5 189.7344,137.75 Q189.0781,138 188.3438,138 Q185.7344,138 184.3672,136.4609 Q183,134.9219 183,132 Q183,129.0781 184.3672,127.5391 Q185.7344,126 188.3438,126 Q189.0781,126 189.75,126.25 Q190.4219,126.5 191,127 L191,130 Q190.3906,128.9688 189.8125,128.4844 Q189.2344,128 188.625,128 Q187.3281,128 186.6641,129.0078 Q186,130.0156 186,132 Q186,133.9844 186.6641,134.9922 Q187.3281,136 188.625,136 Q189.2344,136 189.8125,135.5156 Q190.3906,135.0313 191,134 L191,137 Z "/><text fill="#000000" font-family="sans-serif" font-size="12" lengthAdjust="spacingAndGlyphs" textLength="100" x="202" y="136.1543">MyDescendant1</text><line style="stroke: #A80036; stroke-width: 1.5;" x1="174" x2="304" y1="148" y2="148"/><line style="stroke: #A80036; stroke-width: 1.5;" x1="174" x2="304" y1="156" y2="156"/><!--class MyDescendant2--><rect fill="#FEFECE" filter="url(#f15st633trgn1j)" height="48" id="MyDescendant2" style="stroke: #A80036; stroke-width: 1.5;" width="132" x="340" y="116"/><ellipse cx="355" cy="132" fill="#ADD1B2" rx="11" ry="11" style="stroke: #A80036; stroke-width: 1.0;"/><path d="M358,137 Q357.3906,137.5 356.7344,137.75 Q356.0781,138 355.3438,138 Q352.7344,138 351.3672,136.4609 Q350,134.9219 350,132 Q350,129.0781 351.3672,127.5391 Q352.7344,126 355.3438,126 Q356.0781,126 356.75,126.25 Q357.4219,126.5 358,127 L358,130 Q357.3906,128.9688 356.8125,128.4844 Q356.2344,128 355.625,128 Q354.3281,128 353.6641,129.0078 Q353,130.0156 353,132 Q353,133.9844 353.6641,134.9922 Q354.3281,136 355.625,136 Q356.2344,136 356.8125,135.5156 Q357.3906,135.0313 358,134 L358,137 Z "/><text fill="#000000" font-family="sans-serif" font-size="12" lengthAdjust="spacingAndGlyphs" textLength="100" x="369" y="136.1543">MyDescendant2</text><line style="stroke: #A80036; stroke-width: 1.5;" x1="341" x2="471" y1="148" y2="148"/><line style="stroke: #A80036; stroke-width: 1.5;" x1="341" x2="471" y1="156" y2="156"/><!--class MyDescendant3--><rect fill="#FEFECE" filter="url(#f15st633trgn1j)" height="48" id="MyDescendant3" style="stroke: #A80036; stroke-width: 1.5;" width="132" x="507" y="116"/><ellipse cx="522" cy="132" fill="#ADD1B2" rx="11" ry="11" style="stroke: #A80036; stroke-width: 1.0;"/><path d="M525,137 Q524.3906,137.5 523.7344,137.75 Q523.0781,138 522.3438,138 Q519.7344,138 518.3672,136.4609 Q517,134.9219 517,132 Q517,129.0781 518.3672,127.5391 Q519.7344,126 522.3438,126 Q523.0781,126 523.75,126.25 Q524.4219,126.5 525,127 L525,130 Q524.3906,128.9688 523.8125,128.4844 Q523.2344,128 522.625,128 Q521.3281,128 520.6641,129.0078 Q520,130.0156 520,132 Q520,133.9844 520.6641,134.9922 Q521.3281,136 522.625,136 Q523.2344,136 523.8125,135.5156 Q524.3906,135.0313 525,134 L525,137 Z "/><text fill="#000000" font-family="sans-serif" font-size="12" lengthAdjust="spacingAndGlyphs" textLength="100" x="536" y="136.1543">MyDescendant3</text><line style="stroke: #A80036; stroke-width: 1.5;" x1="508" x2="638" y1="148" y2="148"/><line style="stroke: #A80036; stroke-width: 1.5;" x1="508" x2="638" y1="156" y2="156"/><!--link MyInterface to MyDescendant0--><path d="M250.687,63.237 C211.167,79.9932 162.808,100.4976 126.368,115.9478 " fill="none" id="MyInterface-MyDescendant0" style="stroke: #A80036; stroke-width: 1.0;"/><polygon fill="none" points="248.141,56.713,269.287,55.35,253.606,69.6023,248.141,56.713" style="stroke: #A80036; stroke-width: 1.0;"/><!--link MyInterface to MyDescendant1--><path d="M291.323,72.1784 C279.874,86.7995 267.244,102.9295 257.261,115.6784 " fill="none" id="MyInterface-MyDescendant1" style="stroke: #A80036; stroke-width: 1.0;"/><polygon fill="none" points="286.149,67.4318,303.99,56,297.171,76.063,286.149,67.4318" style="stroke: #A80036; stroke-width: 1.0;"/><!--link MyInterface to MyDescendant2--><path d="M352.67,71.7021 C364.355,86.4485 377.306,102.7909 387.519,115.6784 " fill="none" id="MyInterface-MyDescendant2" style="stroke: #A80036; stroke-width: 1.0;"/><polygon fill="none" points="347.162,76.0229,340.227,56,358.135,67.3278,347.162,76.0229" style="stroke: #A80036; stroke-width: 1.0;"/><!--link MyInterface to MyDescendant3--><path d="M393.29,63.106 C432.977,79.8666 481.617,100.408 518.282,115.8918 " fill="none" id="MyInterface-MyDescendant3" style="stroke: #A80036; stroke-width: 1.0;"/><polygon fill="none" points="390.319,69.4505,374.618,55.221,395.766,56.553,390.319,69.4505" style="stroke: #A80036; stroke-width: 1.0;"/><!--
@startuml
interface MyInterface



MyInterface <|- - MyDescendant0


MyInterface <|- - MyDescendant1


MyInterface <|- - MyDescendant2


MyInterface <|- - MyDescendant3

@enduml

PlantUML version 1.2019.08(Sat Jul 13 15:25:14 EDT 2019)
(GPL source distribution)
Java Runtime: OpenJDK Runtime Environment
JVM: OpenJDK 64-Bit Server VM
Java Version: 1.8.0_222-ga
Operating System: Linux
OS Version: 4.14.154
Default Encoding: UTF-8
Language: en
Country: GB
--></g></svg>